<svg version="1.2" xmlns="http://www.w3.org/2000/svg" viewBox="0 0 967 469" width="967" height="469">
	<title>cyber_logo-ai</title>
	<style>
		.s0 { fill: #ed3943 } 
		.s1 { fill: #0d4167 } 
		.s2 { fill: #ee3944 } 
		.s3 { fill: #fefefe } 
		.s4 { fill: #050505 } 
	</style>
	<g id="Layer 1">
		<g id="&lt;Group&gt;">
			<g id="&lt;Group&gt;">
				<g id="&lt;Group&gt;">
					<path id="&lt;Path&gt;" class="s0" d="m647.2 200.6h66.7v66.7h66.7v66.7h-66.7-66.7v-66.7z"/>
				</g>
				<path id="&lt;Path&gt;" class="s1" d="m713.9 133.9h66.7v66.7h-66.7z"/>
				<g id="&lt;Group&gt;">
					<path id="&lt;Path&gt;" class="s2" d="m713.9 0.5h66.7v66.7h-66.7z"/>
				</g>
				<g id="&lt;Group&gt;">
					<path id="&lt;Path&gt;" class="s3" d="m647.2 67.2h66.7v66.7h-66.7z"/>
				</g>
			</g>
			<g id="&lt;Group&gt;">
				<g id="&lt;Group&gt;">
					<path id="&lt;Path&gt;" class="s0" d="m66.7 200.6v66.7h-66.7v-66.7l66.7-66.7h66.7 33.3c18.5 0 33.4 14.9 33.4 33.3 0 18.5-14.9 33.4-33.4 33.4h-33.3z"/>
					<path id="&lt;Path&gt;" class="s0" d="m133.4 267.3h66.7c0 36.8-29.9 66.7-66.7 66.7l-66.7-66.7h66.7z"/>
				</g>
			</g>
			<g id="&lt;Group&gt;">
				<g id="&lt;Group&gt;">
					<path id="&lt;Path&gt;" class="s0" d="m498.2 267.3h66.7l-66.7 66.7h-66.7v-66.7-66.7-66.7-33.4c0-18.4 14.9-33.3 33.3-33.3 18.5 0 33.4 14.9 33.4 33.3v33.4 66.7z"/>
					<path id="&lt;Path&gt;" class="s0" d="m631.6 200.6v66.7h-66.7v-66.7h-66.7l66.7-66.7c36.8 0 66.7 29.8 66.7 66.7z"/>
				</g>
			</g>
			<g id="&lt;Group&gt;">
				<g id="&lt;Group&gt;">
					<path id="&lt;Path&gt;" class="s0" d="m863 133.9v66.7 66.7 33.4c0 18.4-15 33.3-33.4 33.3-18.4 0-33.3-14.9-33.3-33.3v-33.4-66.7-66.7z"/>
					<path id="&lt;Path&gt;" class="s0" d="m963 167.2c0 18.5-14.9 33.4-33.3 33.4h-66.7l66.7-66.7c18.4 0 33.3 14.9 33.3 33.3z"/>
				</g>
			</g>
			<g id="&lt;Group&gt;">
				<g id="&lt;Group&gt;">
					<path id="&lt;Path&gt;" class="s0" d="m282.4 200.6v66.7h-66.6v-66.7-66.7h66.6z"/>
					<path id="&lt;Path&gt;" class="s0" d="m415.8 133.9v66.7 66.7 66.7l-66.7 66.7v-66.7l-66.7-66.7h66.7v-66.7-66.7z"/>
					<path id="&lt;Path&gt;" class="s0" d="m282.4 400.7h66.7l-66.7 66.7c-18.4 0-33.3-14.9-33.3-33.3 0-18.4 14.9-33.4 33.3-33.4z"/>
				</g>
			</g>
		</g>
		<g id="&lt;Group&gt;">
			<g id="&lt;Group&gt;">
				<g id="&lt;Group&gt;">
					<path id="&lt;Path&gt;" class="s4" d="m647.2 1112h66.7v66.7h66.7v66.7h-66.7-66.7v-66.7z"/>
				</g>
				<path id="&lt;Path&gt;" class="s1" d="m713.9 1045.3h66.7v66.7h-66.7z"/>
				<g id="&lt;Group&gt;">
					<path id="&lt;Path&gt;" class="s2" d="m713.9 911.8h66.7v66.8h-66.7z"/>
				</g>
				<g id="&lt;Group&gt;">
					<path id="&lt;Path&gt;" class="s4" d="m647.2 978.6h66.7v66.7h-66.7z"/>
				</g>
			</g>
			<g id="&lt;Group&gt;">
				<g id="&lt;Group&gt;">
					<path id="&lt;Path&gt;" class="s4" d="m66.7 1112v66.7h-66.7v-66.7l66.7-66.7h66.7 33.3c18.5 0 33.4 14.9 33.4 33.3 0 18.4-14.9 33.4-33.4 33.4h-33.3z"/>
					<path id="&lt;Path&gt;" class="s4" d="m133.4 1178.7h66.7c0 36.8-29.9 66.7-66.7 66.7l-66.7-66.7h66.7z"/>
				</g>
			</g>
			<g id="&lt;Group&gt;">
				<g id="&lt;Group&gt;">
					<path id="&lt;Path&gt;" class="s4" d="m498.2 1178.7h66.7l-66.7 66.7h-66.7v-66.7-66.7-66.7-33.4c0-18.4 14.9-33.3 33.3-33.3 18.5 0 33.4 14.9 33.4 33.3v33.4 66.7z"/>
					<path id="&lt;Path&gt;" class="s4" d="m631.6 1112v66.7h-66.7v-66.7h-66.7l66.7-66.7c36.8 0 66.7 29.8 66.7 66.7z"/>
				</g>
			</g>
			<g id="&lt;Group&gt;">
				<g id="&lt;Group&gt;">
					<path id="&lt;Path&gt;" class="s4" d="m863 1045.3v66.7 66.7 33.3c0 18.5-15 33.4-33.4 33.4-18.4 0-33.3-14.9-33.3-33.4v-33.3-66.7-66.7z"/>
					<path id="&lt;Path&gt;" class="s4" d="m963 1078.6c0 18.4-14.9 33.4-33.3 33.4h-66.7l66.7-66.7c18.4 0 33.3 14.9 33.3 33.3z"/>
				</g>
			</g>
			<g id="&lt;Group&gt;">
				<g id="&lt;Group&gt;">
					<path id="&lt;Path&gt;" class="s4" d="m282.4 1112v66.7h-66.6v-66.7-66.7h66.6z"/>
					<path id="&lt;Path&gt;" class="s4" d="m415.8 1045.3v66.7 66.7 66.7l-66.7 66.7v-66.7l-66.7-66.7h66.7v-66.7-66.7z"/>
					<path id="&lt;Path&gt;" class="s4" d="m282.4 1312.1h66.7l-66.7 66.7c-18.4 0-33.3-14.9-33.3-33.3 0-18.5 14.9-33.4 33.3-33.4z"/>
				</g>
			</g>
		</g>
	</g>
</svg>