<?xml version="1.0" standalone="no"?>
<!DOCTYPE svg PUBLIC "-//W3C//DTD SVG 20010904//EN"
 "http://www.w3.org/TR/2001/REC-SVG-20010904/DTD/svg10.dtd">
<svg version="1.0" xmlns="http://www.w3.org/2000/svg"
 width="700.000000pt" height="700.000000pt" viewBox="0 0 700.000000 700.000000"
 preserveAspectRatio="xMidYMid meet">
<metadata>
Created by potrace 1.14, written by Peter Selinger 2001-2017
</metadata>
<g transform="translate(0.000000,700.000000) scale(0.100000,-0.100000)"
fill="#000000" stroke="none">
<path d="M1769 5232 l-864 -863 0 -857 c-1 -471 0 -861 2 -867 2 -7 298 -10
866 -9 l862 1 866 -865 867 -865 103 7 c356 22 670 141 964 365 140 107 299
286 410 462 22 34 112 216 124 249 7 19 17 44 21 55 14 33 53 159 56 180 2 11
5 27 7 35 5 19 16 76 22 115 6 40 16 148 19 212 l2 51 -1724 0 c-948 0 -1726
2 -1729 5 -7 8 -5 1708 2 1715 4 4 601 7 1328 8 727 0 1345 4 1372 8 292 44
529 216 662 481 74 146 105 346 78 504 -4 20 -9 49 -12 65 -3 17 -16 62 -30
100 -97 271 -358 501 -628 552 -11 2 -31 7 -45 10 -14 4 -635 7 -1381 8
l-1357 2 -863 -864z"/>
</g>
</svg>
