<svg xmlns="http://www.w3.org/2000/svg" xmlns:xlink="http://www.w3.org/1999/xlink" xmlns:inkscape="http://www.inkscape.org/namespaces/inkscape" version="1.1" width="595.275" height="841.89" viewBox="0 0 595.275 841.89">
<defs>
<clipPath id="clip_1">
<path transform="matrix(1,0,0,-1,0,841.89)" d="M135.853 136.439H459.934V705.44998H135.853Z"/>
</clipPath>
</defs>
<g>
<g inkscape:groupmode="layer" inkscape:label="Skjold">
<g clip-path="url(#clip_1)">
<path transform="matrix(1,0,0,-1,416.6973,332.34074)" d="M0 0C2.293 14.106 12.335 54.778 15.549 63.395 1.521 69.987-15.639 63.819-2.796 46.746L-4.212 45.322C-34.096 76.525-34.096 6.935-4.215 38.29-3.628 37.702-2.796 36.872-2.796 36.872-5.301 32.037-12.813 21.685-14.459 20.456-22.564 17.135-33.213 16.682-42.551 20.456-46.04 23.227-52.252 35.142-53.249 39.224-53.249 39.224-52.307 40.161-52.137 40.333-24.464 12.662-24.464 76.106-52.137 48.435L-53.249 49.544C-24.686 78.105-91.893 78.105-63.662 49.544-64.076 49.128-64.764 48.434-64.764 48.434-92.438 76.106-92.438 12.662-64.764 40.333-64.596 40.163-63.926 39.492-63.662 39.224-64.65 35.142-70.862 23.227-74.348 20.456-84.158 17.357-92.688 17.213-102.43 20.454-106.907 23.813-113.252 36.803-114.378 40.57-114.111 40.843-113.408 41.541-113.089 41.862-84.007 9.398-84.007 81.323-113.089 48.856L-114.378 50.147C-81.309 80.639-156.054 80.639-122.979 50.147L-124.27 48.857C-153.356 81.324-153.356 9.398-124.27 41.864-123.941 41.541-123.243 40.843-122.979 40.57-124.106 36.803-130.446 23.813-134.924 20.456-143.604 17.357-152.678 16.965-161.765 20.456-165.25 23.227-172.815 35.141-173.806 39.225-173.534 39.492-172.863 40.161-172.698 40.333-145.028 12.662-145.028 76.105-172.7 48.435-172.7 48.435-173.39 49.128-173.806 49.544-145.58 78.105-212.779 78.105-184.219 49.544-184.637 49.128-185.333 48.434-185.333 48.434-213.004 76.106-213 12.662-185.333 40.333-185.157 40.163-184.491 39.492-184.219 39.224-185.212 35.141-191.424 23.227-194.913 20.456-203.901 16.682-216.126 17.135-223.142 20.456-224.792 21.685-232.305 32.035-234.811 36.872-234.811 36.872-233.979 37.702-233.39 38.29-203.506 6.935-203.508 76.525-233.39 45.324L-234.811 46.747C-221.96 63.818-239.123 69.987-253.15 63.395-249.941 54.778-239.893 14.106-237.601 0Z" fill="#ffd520"/>
<path transform="matrix(1,0,0,-1,416.6973,332.34074)" stroke-width="1.5" stroke-linecap="butt" stroke-miterlimit="10" stroke-linejoin="miter" fill="none" stroke="#ef373e" d="M0 0C2.293 14.106 12.335 54.778 15.549 63.395 1.521 69.987-15.639 63.819-2.796 46.746L-4.212 45.322C-34.096 76.525-34.096 6.935-4.215 38.29-3.628 37.702-2.796 36.872-2.796 36.872-5.301 32.037-12.813 21.685-14.459 20.456-22.564 17.135-33.213 16.682-42.551 20.456-46.04 23.227-52.252 35.142-53.249 39.224-53.249 39.224-52.307 40.161-52.137 40.333-24.464 12.662-24.464 76.106-52.137 48.435L-53.249 49.544C-24.686 78.105-91.893 78.105-63.662 49.544-64.076 49.128-64.764 48.434-64.764 48.434-92.438 76.106-92.438 12.662-64.764 40.333-64.596 40.163-63.926 39.492-63.662 39.224-64.65 35.142-70.862 23.227-74.348 20.456-84.158 17.357-92.688 17.213-102.43 20.454-106.907 23.813-113.252 36.803-114.378 40.57-114.111 40.843-113.408 41.541-113.089 41.862-84.007 9.398-84.007 81.323-113.089 48.856L-114.378 50.147C-81.309 80.639-156.054 80.639-122.979 50.147L-124.27 48.857C-153.356 81.324-153.356 9.398-124.27 41.864-123.941 41.541-123.243 40.843-122.979 40.57-124.106 36.803-130.446 23.813-134.924 20.456-143.604 17.357-152.678 16.965-161.765 20.456-165.25 23.227-172.815 35.141-173.806 39.225-173.534 39.492-172.863 40.161-172.698 40.333-145.028 12.662-145.028 76.105-172.7 48.435-172.7 48.435-173.39 49.128-173.806 49.544-145.58 78.105-212.779 78.105-184.219 49.544-184.637 49.128-185.333 48.434-185.333 48.434-213.004 76.106-213 12.662-185.333 40.333-185.157 40.163-184.491 39.492-184.219 39.224-185.212 35.141-191.424 23.227-194.913 20.456-203.901 16.682-216.126 17.135-223.142 20.456-224.792 21.685-232.305 32.035-234.811 36.872-234.811 36.872-233.979 37.702-233.39 38.29-203.506 6.935-203.508 76.525-233.39 45.324L-234.811 46.747C-221.96 63.818-239.123 69.987-253.15 63.395-249.941 54.778-239.893 14.106-237.601 0H0Z"/>
<path transform="matrix(1,0,0,-1,416.6973,332.34074)" stroke-width="1.5" stroke-linecap="butt" stroke-miterlimit="10" stroke-linejoin="miter" fill="none" stroke="#ef3d42" d="M0 0C2.293 14.106 12.335 54.778 15.549 63.395 1.521 69.987-15.639 63.819-2.796 46.746L-4.212 45.322C-34.096 76.525-34.096 6.935-4.215 38.29-3.628 37.702-2.796 36.872-2.796 36.872-5.301 32.037-12.813 21.685-14.459 20.456-22.564 17.135-33.213 16.682-42.551 20.456-46.04 23.227-52.252 35.142-53.249 39.224-53.249 39.224-52.307 40.161-52.137 40.333-24.464 12.662-24.464 76.106-52.137 48.435L-53.249 49.544C-24.686 78.105-91.893 78.105-63.662 49.544-64.076 49.128-64.764 48.434-64.764 48.434-92.438 76.106-92.438 12.662-64.764 40.333-64.596 40.163-63.926 39.492-63.662 39.224-64.65 35.142-70.862 23.227-74.348 20.456-84.158 17.357-92.688 17.213-102.43 20.454-106.907 23.813-113.252 36.803-114.378 40.57-114.111 40.843-113.408 41.541-113.089 41.862-84.007 9.398-84.007 81.323-113.089 48.856L-114.378 50.147C-81.309 80.639-156.054 80.639-122.979 50.147L-124.27 48.857C-153.356 81.324-153.356 9.398-124.27 41.864-123.941 41.541-123.243 40.843-122.979 40.57-124.106 36.803-130.446 23.813-134.924 20.456-143.604 17.357-152.678 16.965-161.765 20.456-165.25 23.227-172.815 35.141-173.806 39.225-173.534 39.492-172.863 40.161-172.698 40.333-145.028 12.662-145.028 76.105-172.7 48.435-172.7 48.435-173.39 49.128-173.806 49.544-145.58 78.105-212.779 78.105-184.219 49.544-184.637 49.128-185.333 48.434-185.333 48.434-213.004 76.106-213 12.662-185.333 40.333-185.157 40.163-184.491 39.492-184.219 39.224-185.212 35.141-191.424 23.227-194.913 20.456-203.901 16.682-216.126 17.135-223.142 20.456-224.792 21.685-232.305 32.035-234.811 36.872-234.811 36.872-233.979 37.702-233.39 38.29-203.506 6.935-203.508 76.525-233.39 45.324L-234.811 46.747C-221.96 63.818-239.123 69.987-253.15 63.395-249.941 54.778-239.893 14.106-237.601 0H0Z"/>
<path transform="matrix(1,0,0,-1,303.8369,182.23029)" d="M0 0C10.785-2.813 18.592-12.257 18.592-23.715 18.592-37.208 7.61-48.153-5.94-48.153-19.49-48.153-30.474-37.21-30.474-23.715-30.474-12.235-22.37-2.511-11.821 .019V19.185H-25.379V30.646H-11.821V45.041L.015 45.04V30.645L13.565 30.646V19.185L-.007 19.191C-.007 17.582 0 .644 0 0" fill="#ffd520"/>
<path transform="matrix(1,0,0,-1,303.8369,182.23029)" stroke-width="1.5" stroke-linecap="butt" stroke-miterlimit="10" stroke-linejoin="miter" fill="none" stroke="#ef3d42" d="M0 0C10.785-2.813 18.592-12.257 18.592-23.715 18.592-37.208 7.61-48.153-5.94-48.153-19.49-48.153-30.474-37.21-30.474-23.715-30.474-12.235-22.37-2.511-11.821 .019V19.185H-25.379V30.646H-11.821V45.041L.015 45.04V30.645L13.565 30.646V19.185L-.007 19.191C-.007 17.582 0 .644 0 0"/>
<path transform="matrix(1,0,0,-1,303.8369,182.23029)" stroke-width="1.5" stroke-linecap="butt" stroke-miterlimit="10" stroke-linejoin="miter" fill="none" stroke="#ef3d42" d="M0 0C10.785-2.813 18.592-12.257 18.592-23.715 18.592-37.208 7.61-48.153-5.94-48.153-19.49-48.153-30.474-37.21-30.474-23.715-30.474-12.235-22.37-2.511-11.821 .019V19.185H-25.379V30.646H-11.821V45.041L.015 45.04V30.645L13.565 30.646V19.185L-.007 19.191C-.007 17.582 0 .644 0 0"/>
<path transform="matrix(1,0,0,-1,321.6426,199.79633)" stroke-width="1.5" stroke-linecap="butt" stroke-miterlimit="4" stroke-linejoin="miter" fill="none" stroke="#ef3d42" d="M0 0C0 0 .896-3.381 .789-6.186 .869-8.524 .119-11.838 .119-11.838L-47.612-11.841C-47.612-11.841-48.356-8.511-48.279-6.188-48.403-3.453-47.483 .001-47.483 .001L-29.631 0V17.562C-29.631 17.562-25.777 18.264-23.751 18.264-21.704 18.264-17.811 17.542-17.811 17.542V.001L0 0Z"/>
<path transform="matrix(1,0,0,-1,292.3286,260.1283)" d="M0 0C3.503 1.022 7.688 1.068 11.218 .046L13.191 30.922 12.8 30.828C12.8 30.828 9.94 29.777 5.607 29.777 2.437 29.615-.897 30.595-1.791 30.882-1.936 30.933-2.064 30.961-2.064 30.961Z" fill="#ffd520"/>
<path transform="matrix(1,0,0,-1,292.3286,260.1283)" stroke-width="1.5" stroke-linecap="butt" stroke-miterlimit="10" stroke-linejoin="miter" fill="none" stroke="#ef3d42" d="M0 0C3.503 1.022 7.688 1.068 11.218 .046L13.191 30.922 12.8 30.828C12.8 30.828 9.94 29.777 5.607 29.777 2.437 29.615-.897 30.595-1.791 30.882-1.936 30.933-2.064 30.961-2.064 30.961L0 0Z"/>
<path transform="matrix(1,0,0,-1,353.1914,262.0926)" d="M0 0C3.603 1.055 7.907 .94 11.352-.336 16.971 37.555 27.787 42.872-47.672 32.812L-48.188 24.76C9.648 32.008 3.861 29.892 0 0" fill="#ffd520"/>
<path transform="matrix(1,0,0,-1,353.1914,262.0926)" stroke-width="1.5" stroke-linecap="butt" stroke-miterlimit="10" stroke-linejoin="miter" fill="none" stroke="#ef3d42" d="M0 0C3.603 1.055 7.907 .94 11.352-.336 16.971 37.555 27.787 42.872-47.672 32.812L-48.188 24.76C9.648 32.008 3.861 29.892 0 0Z"/>
<path transform="matrix(1,0,0,-1,181.5923,267.74555)" d="M0 0C-7.724 31.148-6.483 29.886 45.235 29.886 45.083 34.114 45.741 37.188 47.805 39.295-18.303 38.343-22.799 40.12-12.354 .751-7.724 1.8-3.232 1.53 0 0" fill="#ffd520"/>
<path transform="matrix(1,0,0,-1,181.5923,267.74555)" stroke-width="1.5" stroke-linecap="butt" stroke-miterlimit="10" stroke-linejoin="miter" fill="none" stroke="#ef3d42" d="M0 0C-7.724 31.148-6.483 29.886 45.235 29.886 45.083 34.114 45.741 37.188 47.805 39.295-18.303 38.343-22.799 40.12-12.354 .751-7.724 1.8-3.232 1.53 0 0Z"/>
<path transform="matrix(1,0,0,-1,368.4805,237.85919)" d="M0 0C52.749 0 53.329 .749 45.725-29.882 48.947-28.364 53.421-28.089 58.036-29.125 67.43 7.085 68.491 9.404-2.396 9.404-.283 7.299 .27 4.202 0 0" fill="#ffd520"/>
<path transform="matrix(1,0,0,-1,368.4805,237.85919)" stroke-width="1.5" stroke-linecap="butt" stroke-miterlimit="10" stroke-linejoin="miter" fill="none" stroke="#ef3d42" d="M0 0C52.749 0 53.329 .749 45.725-29.882 48.947-28.364 53.421-28.089 58.036-29.125 67.43 7.085 68.491 9.404-2.396 9.404-.283 7.299 .27 4.202 0 0Z"/>
<path transform="matrix(1,0,0,-1,242.1191,261.9276)" d="M0 0C-4.223 31.119-8.437 31.195 48.674 24.707 48.522 28.041 48.149 32.714 48.149 32.714-24.771 42.137-18.096 39.238-11.485-.802-8.128 .675-3.747 .939 0 0" fill="#ffd520"/>
<path transform="matrix(1,0,0,-1,242.1191,261.9276)" stroke-width="1.5" stroke-linecap="butt" stroke-miterlimit="10" stroke-linejoin="miter" fill="none" stroke="#ef3d42" d="M0 0C-4.223 31.119-8.437 31.195 48.674 24.707 48.522 28.041 48.149 32.714 48.149 32.714-24.771 42.137-18.096 39.238-11.485-.802-8.128 .675-3.747 .939 0 0"/>
<path transform="matrix(1,0,0,-1,231.3677,292.00874)" d="M0 0C-27.673-27.669-27.67 35.776 0 8.103 0 8.103 .692 8.798 1.11 9.211-9.579 19.902-6.853 26.591-.734 29.279-.86 30.019-2.035 36.796-2.264 38.081-18.632 34.306-33.233 28.168-45.035 18.277-45.04 18.323-45.058 18.367-45.063 18.413-44.57 15.348-45.775 11.334-49.481 6.415L-48.061 4.99C-18.177 36.196-18.177-33.398-48.061-2.041-48.649-2.63-49.481-3.461-49.481-3.461-46.976-8.296-39.463-18.649-37.813-19.875-30.799-23.197-18.571-23.649-9.583-19.875-6.094-17.108 .115-5.191 1.11-1.107 .839-.841 .172-.171 0 0" fill="#ef3d42"/>
<path transform="matrix(1,0,0,-1,231.3677,292.00874)" stroke-width="1.5" stroke-linecap="butt" stroke-miterlimit="10" stroke-linejoin="miter" fill="none" stroke="#ef373e" d="M0 0C-27.673-27.669-27.67 35.776 0 8.103 0 8.103 .692 8.798 1.11 9.211-9.579 19.902-6.853 26.591-.734 29.279-.86 30.019-2.035 36.796-2.264 38.081-18.632 34.306-33.233 28.168-45.035 18.277-45.04 18.323-45.058 18.367-45.063 18.413-44.57 15.348-45.775 11.334-49.481 6.415L-48.061 4.99C-18.177 36.196-18.177-33.398-48.061-2.041-48.649-2.63-49.481-3.461-49.481-3.461-46.976-8.296-39.463-18.649-37.813-19.875-30.799-23.197-18.571-23.649-9.583-19.875-6.094-17.108 .115-5.191 1.11-1.107 .839-.841 .172-.171 0 0"/>
<path transform="matrix(1,0,0,-1,292.4277,283.4828)" d="M0 0 1.29 1.289C-12.14 13.673-7.795 21.03-.099 23.355-.104 23.363-.908 35.301-.908 35.301-18.631 35.162-35.863 34.362-51.771 31.797-51.766 31.79-51.766 31.778-51.766 31.77-51.56 30.282-50.442 22.521-50.309 21.557-42.663 19.641-37.684 12.685-49.537 .687-49.122 .271-48.428-.424-48.428-.424-20.76 27.25-20.76-36.195-48.428-8.527-48.593-8.697-49.268-9.365-49.537-9.633-48.545-13.718-40.98-25.631-37.495-28.401-28.408-31.893-19.335-31.5-10.655-28.404-6.177-25.045 .163-12.055 1.29-8.287 1.023-8.016 .328-7.316 0-6.993-29.086-39.459-29.086 32.467 0 0" fill="#ef3d42"/>
<path transform="matrix(1,0,0,-1,292.4277,283.4828)" stroke-width="1.5" stroke-linecap="butt" stroke-miterlimit="10" stroke-linejoin="miter" fill="none" stroke="#ef373e" d="M0 0 1.29 1.289C-12.14 13.673-7.795 21.03-.099 23.355-.104 23.363-.908 35.301-.908 35.301-18.631 35.162-35.863 34.362-51.771 31.797-51.766 31.79-51.766 31.778-51.766 31.77-51.56 30.282-50.442 22.521-50.309 21.557-42.663 19.641-37.684 12.685-49.537 .687-49.122 .271-48.428-.424-48.428-.424-20.76 27.25-20.76-36.195-48.428-8.527-48.593-8.697-49.268-9.365-49.537-9.633-48.545-13.718-40.98-25.631-37.495-28.401-28.408-31.893-19.335-31.5-10.655-28.404-6.177-25.045 .163-12.055 1.29-8.287 1.023-8.016 .328-7.316 0-6.993-29.086-39.459-29.086 32.467 0 0"/>
<path transform="matrix(1,0,0,-1,351.9336,283.9071)" d="M0 0C0 0 .687 .695 1.104 1.109-10.43 12.778-6.029 19.681 1.258 21.816 1.768 25.741 2.309 29.184 2.73 32.194-11.583 34.384-28.277 35.515-47.63 35.715-47.63 35.715-48.387 23.821-48.393 23.819-40.602 21.553-36.088 14.182-49.613 1.713L-48.325 .424C-19.243 32.89-19.243-39.035-48.325-6.571-48.645-6.893-49.348-7.591-49.613-7.863-48.488-11.631-42.145-24.621-37.665-27.979-27.923-31.221-19.395-31.076-9.584-27.978-6.1-25.207 .113-13.292 1.102-9.21 .839-8.941 .168-8.273 0-8.103-27.675-35.772-27.675 27.674 0 0" fill="#ef3d42"/>
<path transform="matrix(1,0,0,-1,351.9336,283.9071)" stroke-width="1.5" stroke-linecap="butt" stroke-miterlimit="10" stroke-linejoin="miter" fill="none" stroke="#ef373e" d="M0 0C0 0 .687 .695 1.104 1.109-10.43 12.778-6.029 19.681 1.258 21.816 1.768 25.741 2.309 29.184 2.73 32.194-11.583 34.384-28.277 35.515-47.63 35.715-47.63 35.715-48.387 23.821-48.393 23.819-40.602 21.553-36.088 14.182-49.613 1.713L-48.325 .424C-19.243 32.89-19.243-39.035-48.325-6.571-48.645-6.893-49.348-7.591-49.613-7.863-48.488-11.631-42.145-24.621-37.665-27.979-27.923-31.221-19.395-31.076-9.584-27.978-6.1-25.207 .113-13.292 1.102-9.21 .839-8.941 .168-8.273 0-8.103-27.675-35.772-27.675 27.674 0 0"/>
<path transform="matrix(1,0,0,-1,412.4824,294.04975)" d="M0 0C-29.881-31.356-29.881 38.237 .003 7.031L1.419 8.454C-2.189 13.26-3.432 17.201-3.036 20.235-13.102 29.639-27.302 36.163-46.505 40.279-46.984 37.604-47.48 34.727-47.945 31.624-41.31 29.167-37.908 22.375-49.034 11.252L-47.922 10.144C-20.249 37.818-20.249-25.629-47.922 2.039-48.092 1.869-49.034 .934-49.034 .934-48.037-3.149-41.825-15.066-38.336-17.835-28.998-21.61-18.352-21.156-10.244-17.835-8.6-16.607-1.086-6.256 1.419-1.421 1.419-1.421 .587-.589 0 0" fill="#ef3d42"/>
<path transform="matrix(1,0,0,-1,412.4824,294.04975)" stroke-width="1.5" stroke-linecap="butt" stroke-miterlimit="10" stroke-linejoin="miter" fill="none" stroke="#ef373e" d="M0 0C-29.881-31.356-29.881 38.237 .003 7.031L1.419 8.454C-2.189 13.26-3.432 17.201-3.036 20.235-13.102 29.639-27.302 36.163-46.505 40.279-46.984 37.604-47.48 34.727-47.945 31.624-41.31 29.167-37.908 22.375-49.034 11.252L-47.922 10.144C-20.249 37.818-20.249-25.629-47.922 2.039-48.092 1.869-49.034 .934-49.034 .934-48.037-3.149-41.825-15.066-38.336-17.835-28.998-21.61-18.352-21.156-10.244-17.835-8.6-16.607-1.086-6.256 1.419-1.421 1.419-1.421 .587-.589 0 0"/>
<path transform="matrix(1,0,0,-1,136.605,332.34074)" stroke-width="1.5" stroke-linecap="butt" stroke-miterlimit="4" stroke-linejoin="miter" fill="none" stroke="#5b186a" d="M0 0H322.578C322.212-156.727 305.5-275.149 161.336-372.206 16.437-275.149 .332-157.11 0 0Z"/>
<path transform="matrix(1,0,0,-1,136.605,332.34074)" d="M0 0H322.578C322.212-156.727 305.5-275.149 161.336-372.206 16.437-275.149 .332-157.11 0 0" fill="#5b186a"/>
<path transform="matrix(1,0,0,-1,136.605,332.34074)" stroke-width="1.5" stroke-linecap="butt" stroke-miterlimit="10" stroke-linejoin="miter" fill="none" stroke="#5b186a" d="M0 0H322.578C322.212-156.727 305.5-275.149 161.336-372.206 16.437-275.149 .332-157.11 0 0"/>
<path transform="matrix(1,0,0,-1,190.6177,555.9701)" d="M0 0 19.845-19.844 214.128 174.441 194.285 194.286Z" fill="#ffffff"/>
<path transform="matrix(1,0,0,-1,190.6177,555.9701)" stroke-width="1.308" stroke-linecap="butt" stroke-miterlimit="4" stroke-linejoin="miter" fill="none" stroke="#5b186a" d="M0 0 19.845-19.844 214.128 174.441 194.285 194.286 0 0Z"/>
<path transform="matrix(1,0,0,-1,351.168,388.31044)" d="M0 0 26.953-26.953 32.798-21.108 5.846 5.845Z" fill="#ffffff"/>
<path transform="matrix(1,0,0,-1,351.168,388.31044)" stroke-width="1.308" stroke-linecap="butt" stroke-miterlimit="4" stroke-linejoin="miter" fill="none" stroke="#5b186a" d="M0 0 26.953-26.953 32.798-21.108 5.846 5.845 0 0Z"/>
<path transform="matrix(1,0,0,-1,375.4892,363.9891)" d="M0 0 26.953-26.953 32.798-21.108 5.845 5.845Z" fill="#ffffff"/>
<path transform="matrix(1,0,0,-1,375.4892,363.9891)" stroke-width="1.308" stroke-linecap="butt" stroke-miterlimit="4" stroke-linejoin="miter" fill="none" stroke="#5b186a" d="M0 0 26.953-26.953 32.798-21.108 5.845 5.845 0 0Z"/>
<path transform="matrix(1,0,0,-1,384.9023,361.68443)" d="M0 0 19.836-19.835 23.436-11.92 7.924 3.591Z" fill="#ffffff"/>
<path transform="matrix(1,0,0,-1,384.9023,361.68443)" stroke-width="1.308" stroke-linecap="butt" stroke-miterlimit="4" stroke-linejoin="miter" fill="none" stroke="#5b186a" d="M0 0 19.836-19.835 23.436-11.92 7.924 3.591 0 0Z"/>
<path transform="matrix(1,0,0,-1,204.6133,581.6537)" d="M0 0-19.835 19.836-23.436 11.922-7.924-3.592Z" fill="#ffffff"/>
<path transform="matrix(1,0,0,-1,204.6133,581.6537)" stroke-width="1.308" stroke-linecap="butt" stroke-miterlimit="4" stroke-linejoin="miter" fill="none" stroke="#5b186a" d="M0 0-19.835 19.836-23.436 11.922-7.924-3.592 0 0Z"/>
<path transform="matrix(1,0,0,-1,181.2187,558.2592)" d="M0 0 26.953-26.953 32.798-21.107 5.845 5.846Z" fill="#ffffff"/>
<path transform="matrix(1,0,0,-1,181.2187,558.2592)" stroke-width="1.308" stroke-linecap="butt" stroke-miterlimit="4" stroke-linejoin="miter" fill="none" stroke="#5b186a" d="M0 0 26.953-26.953 32.798-21.107 5.845 5.846 0 0Z"/>
<path transform="matrix(1,0,0,-1,205.54,533.93887)" d="M0 0 26.953-26.953 32.798-21.108 5.845 5.846Z" fill="#ffffff"/>
<path transform="matrix(1,0,0,-1,205.54,533.93887)" stroke-width="1.308" stroke-linecap="butt" stroke-miterlimit="4" stroke-linejoin="miter" fill="none" stroke="#5b186a" d="M0 0 26.953-26.953 32.798-21.108 5.845 5.846 0 0Z"/>
<path transform="matrix(1,0,0,-1,258.6147,513.03848)" d="M0 0C.289 .041 1.131 .16 1.417 .197 1.359 .553 1.043 .572 .96 .574 1.167 1.463-.13 1.025 .502 .486 .502 .457 .499 .455 .474 .437 .271 .484 .119 .562-.027 .822-.186 1.08-.255 1.158-.121 1.588-.087 1.596-.076 1.594-.057 1.58-.085 .896 .885 1.295 .396 1.795 .663 1.998 .402 2.527 .025 2.371-.179 3.045-.972 2.354-.364 2.059-.364 2.035-.386 2.002-.386 2.002-.78 2.033-.936 2.332-.984 2.41-1.194 2.76-1.198 2.814-1.109 3.117-1.084 3.142-1.069 3.117-1.054 3.117-.912 2.283 .107 3.219-.75 3.479-.708 3.551-.571 3.84-.845 4.068-1.015 3.84-1.565 3.102-1.744 2.865-1.623 2.662-.215 .344 0 0" fill="#ffffff"/>
<path transform="matrix(1,0,0,-1,258.6147,513.03848)" stroke-width=".275" stroke-linecap="butt" stroke-miterlimit="4" stroke-linejoin="miter" fill="none" stroke="#5b186a" d="M0 0C.289 .041 1.131 .16 1.417 .197 1.359 .553 1.043 .572 .96 .574 1.167 1.463-.13 1.025 .502 .486 .502 .457 .499 .455 .474 .437 .271 .484 .119 .562-.027 .822-.186 1.08-.255 1.158-.121 1.588-.087 1.596-.076 1.594-.057 1.58-.085 .896 .885 1.295 .396 1.795 .663 1.998 .402 2.527 .025 2.371-.179 3.045-.972 2.354-.364 2.059-.364 2.035-.386 2.002-.386 2.002-.78 2.033-.936 2.332-.984 2.41-1.194 2.76-1.198 2.814-1.109 3.117-1.084 3.142-1.069 3.117-1.054 3.117-.912 2.283 .107 3.219-.75 3.479-.708 3.551-.571 3.84-.845 4.068-1.015 3.84-1.565 3.102-1.744 2.865-1.623 2.662-.215 .344 0 0Z"/>
<path transform="matrix(1,0,0,-1,255.0806,511.2709)" d="M0 0C0 .082 .009 .324 .005 .359-.733 1.178-.56 .983-.66 1.352-.7 1.412-.873 1.348-.9 1.262-.86 .912-.945 1.027 0 0" fill="#ffffff"/>
<path transform="matrix(1,0,0,-1,255.0806,511.2709)" stroke-width=".28" stroke-linecap="butt" stroke-miterlimit="4" stroke-linejoin="miter" fill="none" stroke="#5b186a" d="M0 0C0 .082 .009 .324 .005 .359-.733 1.178-.56 .983-.66 1.352-.7 1.412-.873 1.348-.9 1.262-.86 .912-.945 1.027 0 0Z"/>
<path transform="matrix(1,0,0,-1,257.1265,517.181)" d="M0 0C-.019 .055-.025 .094-.025 .135 .146 .213 .893 .52 1.777 .617 4.063 3.244 7.449-.469 4.917-2.924 3.416-4.338 1.127-3.959-.822-4.199 .157-4.863-.147-5.295 .765-5.844 .765-5.916 .68-6.043 .68-6.043-.137-5.762-2.55-4.83-2.55-4.83L-2.675-4.924C-1.551-5.451-1.688-6.232-.843-6.721-.876-6.785-.943-6.916-.943-6.916L-3.697-5.834C-3.743-5.879-3.794-5.943-3.794-5.943-3.174-6.27-3.298-6.908-2.527-7.504-2.55-7.572-2.615-7.674-2.615-7.674L-4.572-6.936C-5.444-7.824-6.211-12.381-9.536-10.922-11.527-9.756-10.912-7.379-10.466-5.441-9.97-4.867-9.521-4.35-9.295-4.051-9.165-3.777-9.092-3.594-9.092-3.594-9.095-3.584-9.11-3.576-9.11-3.594-9.153-3.682-9.287-4.006-9.311-4.035-9.329-4.088-10.387-5.361-11.542-6.568-11.767-6.84-12.679-8.02-12.679-8.084-12.679-8.166-12.634-8.539-12.669-8.574-12.764-8.73-13.424-9.271-13.597-9.277-13.852-9.297-13.831-9.207-14.08-9.473-14.529-9.955-16.223-11.266-16.704-11.898-16.737-11.898-16.855-11.875-16.892-11.836-17.028-11.303-16.697-10.982-17.709-10.908-18.05-11.5-17.853-11.896-18.685-11.617-18.831-11.701-19.083-12.074-19.156-12.18-19.469-11.99-19.025-11.103-18.932-10.951-18.798-10.816-18.28-10.596-18.21-10.52-18.208-10.43-18.229-10.4-18.229-10.4-18.314-10.383-19.013-10.461-19.132-10.342-19.229-10.172-19.302-9.914-19.281-9.703-19.521-9.564-20.032-9.58-20.032-9.58-19.825-9.176-19.509-9.219-18.764-9.273-18.615-9.32-18.138-9.764-18.056-9.762-18.025-9.762-17.94-9.727-17.946-9.705-18.031-9.486-18.253-8.813-18.165-8.725-18.04-8.596-17.883-8.441-17.649-8.428-17.605-8.244-17.621-7.91-17.691-7.562-17.18-7.646-17.22-8.172-16.961-8.818-17.08-9.191-17.399-9.703-17.335-9.861-17.347-9.928-17.095-10.102-16.874-10.133-16.126-9.828-14.511-7.475-14.329-7.146-14.324-7.131-14.317-7.123-14.314-7.117-13.921-6.158-14.411-4.307-13.861-2.861-13.545-2.426-13.153-1.873-12.895-1.758-11.694-1.473-10.864-2.02-9.207-1.383-9.21-1.361-9.205-1.375-9.223-1.355-10.812-2-11.548-1.465-12.901-1.728-13.277-1.945-13.751-2.693-13.879-2.857-13.998-3.145-14.144-3.762-14.144-4.207-14.889-4.535-15.29-4.246-15.7-4.902-16.976-4.342-16.824-4.633-16.968-3.648-17.964-2.295-17.986-1.615-18.77-.963-18.8-.898-18.783-.803-18.743-.73-18.22-.73-18.083-.895-17.898-.02-18.569 .137-18.476 .096-18.87 .635-19.138 1.279-19.187 1.152-18.983 1.516-18.85 1.301-18.798 1.162-18.584 1.002-18.138 1.332-18.242 1.316-17.579 .684-17.539 .705-17.534 .709-17.49 .775-17.956 1.641-17.943 1.465-17.754 1.713-17.569 1.885-17.619 1.785-17.384 1.885-17.405 2.117-17.363 2.148-17.619 2.604-17.268 2.611-17.347 2.561-16.992 2.113-16.727 1.727-16.637 1.447-16.876 .562-16.849 .537-16.824 .514-16.794 .5-16.697 .572-16.335 .937-16.098 .963-15.982 .912-15.773 .68-15.746 .643-15.463 .721-15.321 .924-15.156 1.109-15.059 .637-15.223 .592-15.408 .346-16.138-.295-15.831-.174-16.846-.205-16.882-.311-17.18-.842-17.25-.916-17.145-1.164-16.056-2.334-15.779-2.697-15.664-2.353-15.314-2.102-13.943-1.105-12.767-.377-13.077-.5-11.867-.826-11.685-.879-10.749-1.406-10.697-1.314-10.399-.723-9.718-.027-9.785 1.022-9.773 1.289-9.573 1.818-9.472 1.979-9.086 2.016-6.69 2.279-6.69 2.279-6.679 2.285-6.685 2.299-6.685 2.299L-13.11 1.594C-13.227 1.713-13.22 1.783-13.086 1.932-12.864 2.207-12.831 2.277-13.25 2.729-13.664 2.633-13.801 2.588-14.184 2.555-14.509 2.527-14.448 2.604-14.621 2.859-14.763 2.717-15.752 1.641-15.782 1.674-15.852 1.709-16.199 2.041-16.223 2.125-16.147 2.205-15.189 3.188-15.144 3.23-15.219 3.338-15.655 3.191-15.733 3.236-15.73 3.283-15.658 3.451-15.612 3.5-15.159 3.678-15.117 3.787-14.621 3.766-14.542 3.848-14.07 4.324-14.047 4.352-14.147 4.545-14.266 4.48-14.01 4.937-13.806 5.1-13.965 5.172-14.022 5.312-14.07 5.404-14.32 5.592-14.402 5.68-14.077 5.82-14.065 5.732-13.892 5.633-13.561 5.484-13.472 5.352-13.242 5.176-13.217 5.203-9.937 8.557-9.748 8.746-9.98 8.76-9.949 8.621-10.204 9.23-10.664 9.338-10.833 9.199-11.041 9.18-10.977 9.66-10.584 9.652-10.296 9.748-9.581 9.975-9.472 9.713-8.988 9.523-8.898 9.619-8.955 9.557-8.916 9.596-8.995 9.762-9.165 9.98-9.265 10.164-9.205 10.314-9.184 10.445-8.94 10.74-9.073 11.053-9.11 11.029-9.436 11.365-9.001 11.52-9.146 11.471-8.624 11.096-8.429 10.895-8.193 10.77-8.144 10.389-7.815 10.723-5.958 12.619-5.897 12.682-5.84 12.647-5.491 12.293-5.459 12.229-5.626 12.053-7.909 9.725-7.939 9.691-7.913 9.615-7.897 9.447-7.855 9.477-7.754 9.561-7.263 9.914-7.196 9.9-7.061 9.871-6.894 9.781-6.752 9.674-6.618 9.684-6.396 9.893-6.129 10.09-5.913 9.781-6.281 9.527-6.375 9.328-6.827 8.889-6.578 8.924-7.739 8.772-7.776 8.41-7.612 8.455-7.515 8.219-7.642 7.846-7.35 7.41-6.942 5.973-7.372 5.736-8.357 4.973-8.502 4.902-8.547 5.207-8.697 7.631-8.761 7.707-8.824 7.803-8.946 7.945-9.003 8.01-9.037 8.24-9.065 8.209-8.603 8.26-8.621 8.363-8.728 8.814-8.746 8.867-9.007 8.598-12.839 4.682-12.882 4.641-12.889 4.533-12.843 4.012-12.804 3.971-12.776 3.955-12.703 3.941-12.669 3.961-12.642 4.062-12.512 4.631-12.463 4.701-12.32 4.756-12.226 4.869-11.889 4.85-11.605 5.215-11.718 5.314-11.597 5.588-11.311 5.352-11.426 5.402-11.39 4.822-11.618 4.047-11.341 4.35-12.375 3.295-12.375 3.219-12.305 3.016-12.256 2.984-11.867 3.092-8.451 4.022-8.532 4.104-8.646 4.246-8.873 4.441-9.022 4.604-8.347 4.848-6.994 6.145-6.511 6.076-4.362 5.936-3.469 5.674-2.457 4.846-2.189 4.627-2.146 4.633-1.785 4.789-1.688 4.791-2.542 5.605-2.612 5.713-2.45 5.803-2.149 5.812-1.986 5.879-1.952 6.647-2.052 6.125-1.545 7.068-1.369 7.047-.447 6.945-.347 6.955-.284 6.859 1.331 4.174 1.398 4.107 1.574 3.897 1.717 3.691 1.464 3.504 1.169 3.23 .872 3.299 .638 3.252-1.022 1.322-3.757 1.408-4.518 .522-4.618 .664-4.639 .816-4.703 .932-4.91 .721-8.183-2.488-8.247-2.658-8.193-3.549-9.696-6.643-9.967-8.117-10.521-10.928-7.053-12.039-6.333-7.949-5.588-5.689-6.034-1.672-.678-2.834 2.425-3.359 2.969-3.295 3.948-2.844 6.893-1.021 4.012 2.121 2.695 .273 3.2-.613 3.385-.193 2.744-1.566 2.474-1.842 1.604-2.465 1.464-2.508 1.413-2.508 1.373-2.471 1.328-2.418 1.841-1.785 1.835-1.441 1.947-1.154 1.942-1.107 1.881-1.021 1.857-1.062 1.655-1.422 1.58-1.578 1.091-1.846 .276-1.848-1.846-1.25-2.849-1.514-2.886-1.478-2.924-1.389-2.924-1.353-1.925-.766 .187-.641 .78-.428 .832-.375 1.045-.186 1.081-.125 1.109-.08 .471 .068 0 0" fill="#ffffff"/>
<path transform="matrix(1,0,0,-1,257.1265,517.181)" stroke-width=".28" stroke-linecap="butt" stroke-miterlimit="4" stroke-linejoin="miter" fill="none" stroke="#5b186a" d="M0 0C-.019 .055-.025 .094-.025 .135 .146 .213 .893 .52 1.777 .617 4.063 3.244 7.449-.469 4.917-2.924 3.416-4.338 1.127-3.959-.822-4.199 .157-4.863-.147-5.295 .765-5.844 .765-5.916 .68-6.043 .68-6.043-.137-5.762-2.55-4.83-2.55-4.83L-2.675-4.924C-1.551-5.451-1.688-6.232-.843-6.721-.876-6.785-.943-6.916-.943-6.916L-3.697-5.834C-3.743-5.879-3.794-5.943-3.794-5.943-3.174-6.27-3.298-6.908-2.527-7.504-2.55-7.572-2.615-7.674-2.615-7.674L-4.572-6.936C-5.444-7.824-6.211-12.381-9.536-10.922-11.527-9.756-10.912-7.379-10.466-5.441-9.97-4.867-9.521-4.35-9.295-4.051-9.165-3.777-9.092-3.594-9.092-3.594-9.095-3.584-9.11-3.576-9.11-3.594-9.153-3.682-9.287-4.006-9.311-4.035-9.329-4.088-10.387-5.361-11.542-6.568-11.767-6.84-12.679-8.02-12.679-8.084-12.679-8.166-12.634-8.539-12.669-8.574-12.764-8.73-13.424-9.271-13.597-9.277-13.852-9.297-13.831-9.207-14.08-9.473-14.529-9.955-16.223-11.266-16.704-11.898-16.737-11.898-16.855-11.875-16.892-11.836-17.028-11.303-16.697-10.982-17.709-10.908-18.05-11.5-17.853-11.896-18.685-11.617-18.831-11.701-19.083-12.074-19.156-12.18-19.469-11.99-19.025-11.103-18.932-10.951-18.798-10.816-18.28-10.596-18.21-10.52-18.208-10.43-18.229-10.4-18.229-10.4-18.314-10.383-19.013-10.461-19.132-10.342-19.229-10.172-19.302-9.914-19.281-9.703-19.521-9.564-20.032-9.58-20.032-9.58-19.825-9.176-19.509-9.219-18.764-9.273-18.615-9.32-18.138-9.764-18.056-9.762-18.025-9.762-17.94-9.727-17.946-9.705-18.031-9.486-18.253-8.813-18.165-8.725-18.04-8.596-17.883-8.441-17.649-8.428-17.605-8.244-17.621-7.91-17.691-7.562-17.18-7.646-17.22-8.172-16.961-8.818-17.08-9.191-17.399-9.703-17.335-9.861-17.347-9.928-17.095-10.102-16.874-10.133-16.126-9.828-14.511-7.475-14.329-7.146-14.324-7.131-14.317-7.123-14.314-7.117-13.921-6.158-14.411-4.307-13.861-2.861-13.545-2.426-13.153-1.873-12.895-1.758-11.694-1.473-10.864-2.02-9.207-1.383-9.21-1.361-9.205-1.375-9.223-1.355-10.812-2-11.548-1.465-12.901-1.728-13.277-1.945-13.751-2.693-13.879-2.857-13.998-3.145-14.144-3.762-14.144-4.207-14.889-4.535-15.29-4.246-15.7-4.902-16.976-4.342-16.824-4.633-16.968-3.648-17.964-2.295-17.986-1.615-18.77-.963-18.8-.898-18.783-.803-18.743-.73-18.22-.73-18.083-.895-17.898-.02-18.569 .137-18.476 .096-18.87 .635-19.138 1.279-19.187 1.152-18.983 1.516-18.85 1.301-18.798 1.162-18.584 1.002-18.138 1.332-18.242 1.316-17.579 .684-17.539 .705-17.534 .709-17.49 .775-17.956 1.641-17.943 1.465-17.754 1.713-17.569 1.885-17.619 1.785-17.384 1.885-17.405 2.117-17.363 2.148-17.619 2.604-17.268 2.611-17.347 2.561-16.992 2.113-16.727 1.727-16.637 1.447-16.876 .562-16.849 .537-16.824 .514-16.794 .5-16.697 .572-16.335 .937-16.098 .963-15.982 .912-15.773 .68-15.746 .643-15.463 .721-15.321 .924-15.156 1.109-15.059 .637-15.223 .592-15.408 .346-16.138-.295-15.831-.174-16.846-.205-16.882-.311-17.18-.842-17.25-.916-17.145-1.164-16.056-2.334-15.779-2.697-15.664-2.353-15.314-2.102-13.943-1.105-12.767-.377-13.077-.5-11.867-.826-11.685-.879-10.749-1.406-10.697-1.314-10.399-.723-9.718-.027-9.785 1.022-9.773 1.289-9.573 1.818-9.472 1.979-9.086 2.016-6.69 2.279-6.69 2.279-6.679 2.285-6.685 2.299-6.685 2.299L-13.11 1.594C-13.227 1.713-13.22 1.783-13.086 1.932-12.864 2.207-12.831 2.277-13.25 2.729-13.664 2.633-13.801 2.588-14.184 2.555-14.509 2.527-14.448 2.604-14.621 2.859-14.763 2.717-15.752 1.641-15.782 1.674-15.852 1.709-16.199 2.041-16.223 2.125-16.147 2.205-15.189 3.188-15.144 3.23-15.219 3.338-15.655 3.191-15.733 3.236-15.73 3.283-15.658 3.451-15.612 3.5-15.159 3.678-15.117 3.787-14.621 3.766-14.542 3.848-14.07 4.324-14.047 4.352-14.147 4.545-14.266 4.48-14.01 4.937-13.806 5.1-13.965 5.172-14.022 5.312-14.07 5.404-14.32 5.592-14.402 5.68-14.077 5.82-14.065 5.732-13.892 5.633-13.561 5.484-13.472 5.352-13.242 5.176-13.217 5.203-9.937 8.557-9.748 8.746-9.98 8.76-9.949 8.621-10.204 9.23-10.664 9.338-10.833 9.199-11.041 9.18-10.977 9.66-10.584 9.652-10.296 9.748-9.581 9.975-9.472 9.713-8.988 9.523-8.898 9.619-8.955 9.557-8.916 9.596-8.995 9.762-9.165 9.98-9.265 10.164-9.205 10.314-9.184 10.445-8.94 10.74-9.073 11.053-9.11 11.029-9.436 11.365-9.001 11.52-9.146 11.471-8.624 11.096-8.429 10.895-8.193 10.77-8.144 10.389-7.815 10.723-5.958 12.619-5.897 12.682-5.84 12.647-5.491 12.293-5.459 12.229-5.626 12.053-7.909 9.725-7.939 9.691-7.913 9.615-7.897 9.447-7.855 9.477-7.754 9.561-7.263 9.914-7.196 9.9-7.061 9.871-6.894 9.781-6.752 9.674-6.618 9.684-6.396 9.893-6.129 10.09-5.913 9.781-6.281 9.527-6.375 9.328-6.827 8.889-6.578 8.924-7.739 8.772-7.776 8.41-7.612 8.455-7.515 8.219-7.642 7.846-7.35 7.41-6.942 5.973-7.372 5.736-8.357 4.973-8.502 4.902-8.547 5.207-8.697 7.631-8.761 7.707-8.824 7.803-8.946 7.945-9.003 8.01-9.037 8.24-9.065 8.209-8.603 8.26-8.621 8.363-8.728 8.814-8.746 8.867-9.007 8.598-12.839 4.682-12.882 4.641-12.889 4.533-12.843 4.012-12.804 3.971-12.776 3.955-12.703 3.941-12.669 3.961-12.642 4.062-12.512 4.631-12.463 4.701-12.32 4.756-12.226 4.869-11.889 4.85-11.605 5.215-11.718 5.314-11.597 5.588-11.311 5.352-11.426 5.402-11.39 4.822-11.618 4.047-11.341 4.35-12.375 3.295-12.375 3.219-12.305 3.016-12.256 2.984-11.867 3.092-8.451 4.022-8.532 4.104-8.646 4.246-8.873 4.441-9.022 4.604-8.347 4.848-6.994 6.145-6.511 6.076-4.362 5.936-3.469 5.674-2.457 4.846-2.189 4.627-2.146 4.633-1.785 4.789-1.688 4.791-2.542 5.605-2.612 5.713-2.45 5.803-2.149 5.812-1.986 5.879-1.952 6.647-2.052 6.125-1.545 7.068-1.369 7.047-.447 6.945-.347 6.955-.284 6.859 1.331 4.174 1.398 4.107 1.574 3.897 1.717 3.691 1.464 3.504 1.169 3.23 .872 3.299 .638 3.252-1.022 1.322-3.757 1.408-4.518 .522-4.618 .664-4.639 .816-4.703 .932-4.91 .721-8.183-2.488-8.247-2.658-8.193-3.549-9.696-6.643-9.967-8.117-10.521-10.928-7.053-12.039-6.333-7.949-5.588-5.689-6.034-1.672-.678-2.834 2.425-3.359 2.969-3.295 3.948-2.844 6.893-1.021 4.012 2.121 2.695 .273 3.2-.613 3.385-.193 2.744-1.566 2.474-1.842 1.604-2.465 1.464-2.508 1.413-2.508 1.373-2.471 1.328-2.418 1.841-1.785 1.835-1.441 1.947-1.154 1.942-1.107 1.881-1.021 1.857-1.062 1.655-1.422 1.58-1.578 1.091-1.846 .276-1.848-1.846-1.25-2.849-1.514-2.886-1.478-2.924-1.389-2.924-1.353-1.925-.766 .187-.641 .78-.428 .832-.375 1.045-.186 1.081-.125 1.109-.08 .471 .068 0 0Z"/>
<path transform="matrix(1,0,0,-1,255.3931,511.25923)" d="M0 0C-.045-.086-.106-.238-.106-.275-.052-.357 .62-1.07 .62-1.07 .62-1.07 .742-.801 .73-.787 .663-.701 .043-.023 0 0" fill="#ffffff"/>
<path transform="matrix(1,0,0,-1,255.3931,511.25923)" stroke-width=".28" stroke-linecap="butt" stroke-miterlimit="4" stroke-linejoin="miter" fill="none" stroke="#5b186a" d="M0 0C-.045-.086-.106-.238-.106-.275-.052-.357 .62-1.07 .62-1.07 .62-1.07 .742-.801 .73-.787 .663-.701 .043-.023 0 0Z"/>
<path transform="matrix(1,0,0,-1,255.7734,510.61073)" d="M0 0C-.07 0-.195 .051-.235 .092-.225 .117-.222 .145-.183 .182-.131 .139-.025 .096 .049 .086 .036 .037 .015 .014 0 0" fill="#ffffff"/>
<path transform="matrix(1,0,0,-1,255.7734,510.61073)" stroke-width=".28" stroke-linecap="butt" stroke-miterlimit="4" stroke-linejoin="miter" fill="none" stroke="#5b186a" d="M0 0C-.07 0-.195 .051-.235 .092-.225 .117-.222 .145-.183 .182-.131 .139-.025 .096 .049 .086 .036 .037 .015 .014 0 0Z"/>
<path transform="matrix(1,0,0,-1,258.0195,513.0834)" d="M0 0C.119-.033 .279-.035 .356-.332 .219-.537 .139-.471-.188-.498-.173-.482-.183-.49-.155-.465-.009-.443 .191-.521 .316-.314 .286-.219 .306-.098 0-.027 0-.02-.003-.021 0 0" fill="#ffffff"/>
<path transform="matrix(1,0,0,-1,258.0195,513.0834)" stroke-width=".28" stroke-linecap="butt" stroke-miterlimit="4" stroke-linejoin="miter" fill="none" stroke="#5b186a" d="M0 0C.119-.033 .279-.035 .356-.332 .219-.537 .139-.471-.188-.498-.173-.482-.183-.49-.155-.465-.009-.443 .191-.521 .316-.314 .286-.219 .306-.098 0-.027 0-.02-.003-.021 0 0Z"/>
<path transform="matrix(1,0,0,-1,249.354,501.06773)" d="M0 0C.443-2.604 .483-2.875 2.24-4.668 2.051-4.859 1.543-5.381 1.331-5.598-.167-4.205 .31-3.852-2.438-4.105-2.123-2.404-.529-.393 0 0" fill="#ffffff"/>
<path transform="matrix(1,0,0,-1,249.354,501.06773)" stroke-width=".28" stroke-linecap="butt" stroke-miterlimit="4" stroke-linejoin="miter" fill="none" stroke="#5b186a" d="M0 0C.443-2.604 .483-2.875 2.24-4.668 2.051-4.859 1.543-5.381 1.331-5.598-.167-4.205 .31-3.852-2.438-4.105-2.123-2.404-.529-.393 0 0Z"/>
<path transform="matrix(1,0,0,-1,257.3086,511.81584)" d="M0 0C.015 .027 .015 .006 .023 .07-.055 .234-.469 .947-.615 1.162-.669 1.182-.974 1.248-1.012 1.248-1.031 1.227-1.031 1.215-1.012 1.197-1 1.182-.73 1.156-.639 1.119-.639 1.119-.581 1.023-.541 .955-.618 1.004-.727 .998-.782 .957-.867 .895-.855 .77-.763 .645-.669 .52-.541 .471-.462 .533-.417 .57-.374 .66-.399 .738-.295 .604-.003 .09 0 0" fill="#ffffff"/>
<path transform="matrix(1,0,0,-1,257.3086,511.81584)" stroke-width=".28" stroke-linecap="butt" stroke-miterlimit="4" stroke-linejoin="miter" fill="none" stroke="#5b186a" d="M0 0C.015 .027 .015 .006 .023 .07-.055 .234-.469 .947-.615 1.162-.669 1.182-.974 1.248-1.012 1.248-1.031 1.227-1.031 1.215-1.012 1.197-1 1.182-.73 1.156-.639 1.119-.639 1.119-.581 1.023-.541 .955-.618 1.004-.727 .998-.782 .957-.867 .895-.855 .77-.763 .645-.669 .52-.541 .471-.462 .533-.417 .57-.374 .66-.399 .738-.295 .604-.003 .09 0 0Z"/>
<path transform="matrix(1,0,0,-1,252.7793,513.0033)" d="M0 0C-1.362 1.229-.921 1.092-3.024 .58-3.031 .594-3.016 .594-3.016 .604-.909 1.123-1.344 1.232 .019 .004 .019 0 .005-.002 0 0" fill="#ffffff"/>
<path transform="matrix(1,0,0,-1,252.7793,513.0033)" stroke-width=".28" stroke-linecap="butt" stroke-miterlimit="4" stroke-linejoin="miter" fill="none" stroke="#5b186a" d="M0 0C-1.362 1.229-.921 1.092-3.024 .58-3.031 .594-3.016 .594-3.016 .604-.909 1.123-1.344 1.232 .019 .004 .019 0 .005-.002 0 0Z"/>
<path transform="matrix(1,0,0,-1,243.4936,513.34317)" d="M0 0C-.006-.01-.232-.24-.247-.256-.232-.291 .142-.416 .197-.412 .246-.381 .279-.34 .279-.307 .279-.272 .027 0 0 0" fill="#ffffff"/>
<path transform="matrix(1,0,0,-1,243.4936,513.34317)" stroke-width=".28" stroke-linecap="butt" stroke-miterlimit="4" stroke-linejoin="miter" fill="none" stroke="#5b186a" d="M0 0C-.006-.01-.232-.24-.247-.256-.232-.291 .142-.416 .197-.412 .246-.381 .279-.34 .279-.307 .279-.272 .027 0 0 0Z"/>
<path transform="matrix(1,0,0,-1,353.1963,418.45204)" d="M0 0C.289 .041 1.131 .159 1.417 .196 1.358 .553 1.043 .571 .96 .575 1.167 1.463-.131 1.026 .502 .486 .502 .456 .499 .455 .474 .436 .271 .485 .118 .561-.026 .823-.186 1.08-.256 1.159-.121 1.587-.088 1.594-.075 1.593-.058 1.579-.085 .896 .886 1.294 .396 1.794 .663 1.998 .401 2.528 .024 2.372-.179 3.044-.974 2.352-.364 2.057-.364 2.035-.386 2.001-.386 2.001-.78 2.034-.936 2.332-.983 2.41-1.194 2.758-1.196 2.813-1.108 3.117-1.084 3.141-1.069 3.117-1.056 3.117-.912 2.284 .106 3.218-.75 3.479-.708 3.549-.571 3.839-.845 4.068-1.017 3.839-1.565 3.101-1.744 2.865-1.623 2.663-.216 .343 0 0" fill="#ffffff"/>
<path transform="matrix(1,0,0,-1,353.1963,418.45204)" stroke-width=".275" stroke-linecap="butt" stroke-miterlimit="4" stroke-linejoin="miter" fill="none" stroke="#5b186a" d="M0 0C.289 .041 1.131 .159 1.417 .196 1.358 .553 1.043 .571 .96 .575 1.167 1.463-.131 1.026 .502 .486 .502 .456 .499 .455 .474 .436 .271 .485 .118 .561-.026 .823-.186 1.08-.256 1.159-.121 1.587-.088 1.594-.075 1.593-.058 1.579-.085 .896 .886 1.294 .396 1.794 .663 1.998 .401 2.528 .024 2.372-.179 3.044-.974 2.352-.364 2.057-.364 2.035-.386 2.001-.386 2.001-.78 2.034-.936 2.332-.983 2.41-1.194 2.758-1.196 2.813-1.108 3.117-1.084 3.141-1.069 3.117-1.056 3.117-.912 2.284 .106 3.218-.75 3.479-.708 3.549-.571 3.839-.845 4.068-1.017 3.839-1.565 3.101-1.744 2.865-1.623 2.663-.216 .343 0 0Z"/>
<path transform="matrix(1,0,0,-1,349.6621,416.68544)" d="M0 0C0 .083 .009 .325 .005 .361-.732 1.178-.561 .984-.66 1.351-.699 1.414-.873 1.347-.9 1.262-.859 .914-.945 1.028 0 0" fill="#ffffff"/>
<path transform="matrix(1,0,0,-1,349.6621,416.68544)" stroke-width=".28" stroke-linecap="butt" stroke-miterlimit="4" stroke-linejoin="miter" fill="none" stroke="#5b186a" d="M0 0C0 .083 .009 .325 .005 .361-.732 1.178-.561 .984-.66 1.351-.699 1.414-.873 1.347-.9 1.262-.859 .914-.945 1.028 0 0Z"/>
<path transform="matrix(1,0,0,-1,351.708,422.59413)" d="M0 0C-.019 .055-.024 .094-.024 .133 .145 .213 .894 .518 1.776 .617 4.064 3.244 7.448-.471 4.917-2.924 3.415-4.338 1.127-3.961-.821-4.201 .157-4.865-.146-5.297 .765-5.846 .765-5.918 .681-6.044 .681-6.044-.138-5.762-2.551-4.832-2.551-4.832L-2.676-4.926C-1.552-5.451-1.689-6.233-.843-6.722-.877-6.786-.942-6.917-.942-6.917L-3.696-5.836C-3.743-5.879-3.794-5.945-3.794-5.945-3.175-6.271-3.299-6.909-2.526-7.505-2.551-7.573-2.615-7.675-2.615-7.675L-4.571-6.936C-5.444-7.825-6.211-12.382-9.536-10.923-11.526-9.757-10.912-7.38-10.466-5.443-9.972-4.867-9.521-4.35-9.296-4.053-9.165-3.777-9.092-3.596-9.092-3.596-9.097-3.584-9.11-3.578-9.11-3.594-9.153-3.682-9.287-4.008-9.311-4.035-9.329-4.088-10.388-5.361-11.542-6.569-11.769-6.841-12.679-8.021-12.679-8.085-12.679-8.167-12.634-8.54-12.669-8.575-12.765-8.732-13.424-9.272-13.599-9.278-13.853-9.298-13.831-9.208-14.08-9.474-14.528-9.958-16.224-11.267-16.704-11.899-16.737-11.899-16.855-11.876-16.894-11.837-17.028-11.304-16.696-10.983-17.709-10.907-18.05-11.501-17.853-11.897-18.685-11.618-18.831-11.702-19.084-12.075-19.155-12.181-19.47-11.991-19.024-11.104-18.933-10.952-18.798-10.817-18.28-10.597-18.211-10.521-18.208-10.431-18.23-10.401-18.23-10.401-18.314-10.384-19.015-10.462-19.132-10.343-19.23-10.173-19.304-9.915-19.28-9.704-19.521-9.565-20.032-9.581-20.032-9.581-19.825-9.177-19.51-9.22-18.765-9.274-18.615-9.321-18.14-9.765-18.058-9.763-18.024-9.763-17.939-9.728-17.946-9.706-18.03-9.487-18.254-8.814-18.165-8.726-18.04-8.597-17.883-8.442-17.649-8.429-17.605-8.245-17.621-7.911-17.69-7.564-17.181-7.647-17.22-8.173-16.961-8.819-17.08-9.192-17.398-9.704-17.335-9.862-17.347-9.929-17.095-10.103-16.874-10.134-16.126-9.829-14.513-7.476-14.329-7.147-14.324-7.132-14.317-7.124-14.314-7.118-13.922-6.159-14.411-4.307-13.86-2.863-13.546-2.428-13.153-1.875-12.896-1.76-11.694-1.475-10.864-2.02-9.207-1.383-9.211-1.363-9.205-1.375-9.224-1.355-10.814-2.002-11.549-1.467-12.901-1.729-13.276-1.947-13.752-2.693-13.88-2.859-13.998-3.147-14.144-3.764-14.144-4.209-14.89-4.537-15.29-4.246-15.7-4.902-16.978-4.344-16.824-4.635-16.968-3.648-17.965-2.297-17.985-1.617-18.771-.965-18.8-.9-18.783-.805-18.743-.73-18.22-.73-18.083-.895-17.898-.02-18.569 .137-18.476 .094-18.87 .634-19.14 1.28-19.186 1.152-18.983 1.514-18.851 1.299-18.798 1.162-18.585 1-18.14 1.331-18.242 1.316-17.579 .682-17.539 .705-17.533 .707-17.49 .775-17.956 1.64-17.942 1.463-17.755 1.71-17.569 1.883-17.619 1.785-17.384 1.883-17.405 2.117-17.362 2.148-17.619 2.602-17.269 2.61-17.347 2.56-16.992 2.113-16.728 1.724-16.638 1.448-16.876 .562-16.851 .535-16.824 .514-16.794 .5-16.696 .57-16.335 .936-16.099 .962-15.981 .912-15.773 .679-15.745 .642-15.463 .72-15.321 .923-15.155 1.109-15.06 .636-15.224 .592-15.408 .346-16.138-.295-15.831-.176-16.847-.207-16.883-.312-17.181-.844-17.25-.918-17.146-1.166-16.056-2.336-15.778-2.697-15.663-2.354-15.314-2.104-13.942-1.107-12.769-.377-13.077-.5-11.867-.828-11.686-.879-10.749-1.408-10.696-1.315-10.399-.723-9.718-.029-9.785 1.021-9.773 1.289-9.571 1.818-9.474 1.978-9.087 2.014-6.69 2.279-6.69 2.279-6.679 2.284-6.686 2.297-6.686 2.297L-13.11 1.592C-13.228 1.71-13.22 1.783-13.087 1.93-12.864 2.206-12.831 2.276-13.25 2.727-13.664 2.632-13.801 2.587-14.185 2.554-14.509 2.527-14.448 2.602-14.621 2.858-14.765 2.716-15.752 1.64-15.782 1.672-15.853 1.707-16.199 2.04-16.224 2.124-16.148 2.204-15.189 3.186-15.144 3.231-15.22 3.335-15.655 3.192-15.733 3.236-15.73 3.282-15.658 3.45-15.612 3.499-15.159 3.676-15.117 3.787-14.621 3.765-14.543 3.846-14.069 4.324-14.047 4.35-14.148 4.542-14.267 4.479-14.01 4.937-13.808 5.099-13.965 5.171-14.023 5.311-14.069 5.404-14.319 5.59-14.401 5.679-14.077 5.819-14.065 5.731-13.892 5.632-13.561 5.484-13.474 5.351-13.241 5.175-13.217 5.202-9.939 8.555-9.748 8.746-9.98 8.758-9.949 8.62-10.204 9.228-10.663 9.337-10.834 9.198-11.041 9.179-10.978 9.659-10.585 9.653-10.296 9.747-9.581 9.974-9.474 9.712-8.987 9.522-8.898 9.619-8.955 9.555-8.916 9.595-8.995 9.759-9.165 9.978-9.267 10.163-9.205 10.313-9.185 10.444-8.94 10.74-9.073 11.051-9.11 11.03-9.436 11.364-9.001 11.518-9.146 11.468-8.624 11.094-8.429 10.894-8.192 10.768-8.144 10.386-7.815 10.722-5.959 12.62-5.898 12.681-5.84 12.645-5.491 12.292-5.46 12.227-5.627 12.051-7.909 9.722-7.939 9.691-7.913 9.615-7.898 9.446-7.855 9.475-7.754 9.56-7.263 9.914-7.196 9.9-7.061 9.871-6.896 9.78-6.752 9.672-6.618 9.682-6.396 9.892-6.129 10.089-5.913 9.78-6.28 9.526-6.375 9.329-6.827 8.887-6.578 8.922-7.739 8.77-7.776 8.411-7.612 8.455-7.515 8.218-7.644 7.845-7.351 7.41-6.942 5.972-7.372 5.736-8.356 4.971-8.503 4.902-8.548 5.206-8.696 7.628-8.761 7.706-8.824 7.8-8.946 7.945-9.004 8.008-9.037 8.24-9.065 8.207-8.603 8.259-8.621 8.362-8.728 8.815-8.746 8.867-9.007 8.597-12.84 4.68-12.883 4.639-12.89 4.534-12.843 4.011-12.804 3.97-12.776 3.955-12.703 3.942-12.669 3.96-12.644 4.061-12.513 4.628-12.464 4.7-12.319 4.754-12.228 4.869-11.89 4.848-11.605 5.213-11.719 5.313-11.597 5.585-11.311 5.35-11.427 5.403-11.39 4.822-11.618 4.046-11.342 4.349-12.375 3.292-12.375 3.218-12.306 3.014-12.257 2.983-11.867 3.09-8.45 4.02-8.532 4.103-8.646 4.245-8.873 4.441-9.021 4.602-8.347 4.847-6.994 6.143-6.513 6.075-4.362 5.934-3.469 5.673-2.457 4.843-2.189 4.624-2.146 4.632-1.785 4.789-1.689 4.789-2.542 5.604-2.612 5.712-2.45 5.801-2.149 5.811-1.985 5.875-1.952 6.645-2.054 6.124-1.545 7.067-1.369 7.044-.446 6.944-.349 6.955-.284 6.858 1.331 4.172 1.397 4.107 1.573 3.896 1.717 3.692 1.465 3.5 1.169 3.23 .872 3.297 .638 3.25-1.023 1.322-3.758 1.407-4.519 .52-4.618 .664-4.64 .815-4.703 .929-4.91 .719-8.185-2.49-8.247-2.658-8.192-3.549-9.696-6.644-9.967-8.118-10.521-10.929-7.054-12.04-6.333-7.95-5.588-5.691-6.034-1.674-.679-2.834 2.425-3.361 2.97-3.295 3.946-2.844 6.894-1.022 4.013 2.12 2.694 .271 3.2-.613 3.385-.193 2.744-1.566 2.474-1.844 1.604-2.467 1.465-2.508 1.413-2.51 1.373-2.471 1.327-2.418 1.841-1.787 1.835-1.441 1.946-1.156 1.94-1.107 1.881-1.022 1.856-1.062 1.655-1.424 1.58-1.58 1.091-1.846 .274-1.848-1.847-1.252-2.851-1.516-2.886-1.479-2.925-1.391-2.925-1.354-1.926-.768 .186-.641 .78-.428 .832-.375 1.045-.187 1.081-.127 1.108-.082 .472 .066 0 0" fill="#ffffff"/>
<path transform="matrix(1,0,0,-1,351.708,422.59413)" stroke-width=".28" stroke-linecap="butt" stroke-miterlimit="4" stroke-linejoin="miter" fill="none" stroke="#5b186a" d="M0 0C-.019 .055-.024 .094-.024 .133 .145 .213 .894 .518 1.776 .617 4.064 3.244 7.448-.471 4.917-2.924 3.415-4.338 1.127-3.961-.821-4.201 .157-4.865-.146-5.297 .765-5.846 .765-5.918 .681-6.044 .681-6.044-.138-5.762-2.551-4.832-2.551-4.832L-2.676-4.926C-1.552-5.451-1.689-6.233-.843-6.722-.877-6.786-.942-6.917-.942-6.917L-3.696-5.836C-3.743-5.879-3.794-5.945-3.794-5.945-3.175-6.271-3.299-6.909-2.526-7.505-2.551-7.573-2.615-7.675-2.615-7.675L-4.571-6.936C-5.444-7.825-6.211-12.382-9.536-10.923-11.526-9.757-10.912-7.38-10.466-5.443-9.972-4.867-9.521-4.35-9.296-4.053-9.165-3.777-9.092-3.596-9.092-3.596-9.097-3.584-9.11-3.578-9.11-3.594-9.153-3.682-9.287-4.008-9.311-4.035-9.329-4.088-10.388-5.361-11.542-6.569-11.769-6.841-12.679-8.021-12.679-8.085-12.679-8.167-12.634-8.54-12.669-8.575-12.765-8.732-13.424-9.272-13.599-9.278-13.853-9.298-13.831-9.208-14.08-9.474-14.528-9.958-16.224-11.267-16.704-11.899-16.737-11.899-16.855-11.876-16.894-11.837-17.028-11.304-16.696-10.983-17.709-10.907-18.05-11.501-17.853-11.897-18.685-11.618-18.831-11.702-19.084-12.075-19.155-12.181-19.47-11.991-19.024-11.104-18.933-10.952-18.798-10.817-18.28-10.597-18.211-10.521-18.208-10.431-18.23-10.401-18.23-10.401-18.314-10.384-19.015-10.462-19.132-10.343-19.23-10.173-19.304-9.915-19.28-9.704-19.521-9.565-20.032-9.581-20.032-9.581-19.825-9.177-19.51-9.22-18.765-9.274-18.615-9.321-18.14-9.765-18.058-9.763-18.024-9.763-17.939-9.728-17.946-9.706-18.03-9.487-18.254-8.814-18.165-8.726-18.04-8.597-17.883-8.442-17.649-8.429-17.605-8.245-17.621-7.911-17.69-7.564-17.181-7.647-17.22-8.173-16.961-8.819-17.08-9.192-17.398-9.704-17.335-9.862-17.347-9.929-17.095-10.103-16.874-10.134-16.126-9.829-14.513-7.476-14.329-7.147-14.324-7.132-14.317-7.124-14.314-7.118-13.922-6.159-14.411-4.307-13.86-2.863-13.546-2.428-13.153-1.875-12.896-1.76-11.694-1.475-10.864-2.02-9.207-1.383-9.211-1.363-9.205-1.375-9.224-1.355-10.814-2.002-11.549-1.467-12.901-1.729-13.276-1.947-13.752-2.693-13.88-2.859-13.998-3.147-14.144-3.764-14.144-4.209-14.89-4.537-15.29-4.246-15.7-4.902-16.978-4.344-16.824-4.635-16.968-3.648-17.965-2.297-17.985-1.617-18.771-.965-18.8-.9-18.783-.805-18.743-.73-18.22-.73-18.083-.895-17.898-.02-18.569 .137-18.476 .094-18.87 .634-19.14 1.28-19.186 1.152-18.983 1.514-18.851 1.299-18.798 1.162-18.585 1-18.14 1.331-18.242 1.316-17.579 .682-17.539 .705-17.533 .707-17.49 .775-17.956 1.64-17.942 1.463-17.755 1.71-17.569 1.883-17.619 1.785-17.384 1.883-17.405 2.117-17.362 2.148-17.619 2.602-17.269 2.61-17.347 2.56-16.992 2.113-16.728 1.724-16.638 1.448-16.876 .562-16.851 .535-16.824 .514-16.794 .5-16.696 .57-16.335 .936-16.099 .962-15.981 .912-15.773 .679-15.745 .642-15.463 .72-15.321 .923-15.155 1.109-15.06 .636-15.224 .592-15.408 .346-16.138-.295-15.831-.176-16.847-.207-16.883-.312-17.181-.844-17.25-.918-17.146-1.166-16.056-2.336-15.778-2.697-15.663-2.354-15.314-2.104-13.942-1.107-12.769-.377-13.077-.5-11.867-.828-11.686-.879-10.749-1.408-10.696-1.315-10.399-.723-9.718-.029-9.785 1.021-9.773 1.289-9.571 1.818-9.474 1.978-9.087 2.014-6.69 2.279-6.69 2.279-6.679 2.284-6.686 2.297-6.686 2.297L-13.11 1.592C-13.228 1.71-13.22 1.783-13.087 1.93-12.864 2.206-12.831 2.276-13.25 2.727-13.664 2.632-13.801 2.587-14.185 2.554-14.509 2.527-14.448 2.602-14.621 2.858-14.765 2.716-15.752 1.64-15.782 1.672-15.853 1.707-16.199 2.04-16.224 2.124-16.148 2.204-15.189 3.186-15.144 3.231-15.22 3.335-15.655 3.192-15.733 3.236-15.73 3.282-15.658 3.45-15.612 3.499-15.159 3.676-15.117 3.787-14.621 3.765-14.543 3.846-14.069 4.324-14.047 4.35-14.148 4.542-14.267 4.479-14.01 4.937-13.808 5.099-13.965 5.171-14.023 5.311-14.069 5.404-14.319 5.59-14.401 5.679-14.077 5.819-14.065 5.731-13.892 5.632-13.561 5.484-13.474 5.351-13.241 5.175-13.217 5.202-9.939 8.555-9.748 8.746-9.98 8.758-9.949 8.62-10.204 9.228-10.663 9.337-10.834 9.198-11.041 9.179-10.978 9.659-10.585 9.653-10.296 9.747-9.581 9.974-9.474 9.712-8.987 9.522-8.898 9.619-8.955 9.555-8.916 9.595-8.995 9.759-9.165 9.978-9.267 10.163-9.205 10.313-9.185 10.444-8.94 10.74-9.073 11.051-9.11 11.03-9.436 11.364-9.001 11.518-9.146 11.468-8.624 11.094-8.429 10.894-8.192 10.768-8.144 10.386-7.815 10.722-5.959 12.62-5.898 12.681-5.84 12.645-5.491 12.292-5.46 12.227-5.627 12.051-7.909 9.722-7.939 9.691-7.913 9.615-7.898 9.446-7.855 9.475-7.754 9.56-7.263 9.914-7.196 9.9-7.061 9.871-6.896 9.78-6.752 9.672-6.618 9.682-6.396 9.892-6.129 10.089-5.913 9.78-6.28 9.526-6.375 9.329-6.827 8.887-6.578 8.922-7.739 8.77-7.776 8.411-7.612 8.455-7.515 8.218-7.644 7.845-7.351 7.41-6.942 5.972-7.372 5.736-8.356 4.971-8.503 4.902-8.548 5.206-8.696 7.628-8.761 7.706-8.824 7.8-8.946 7.945-9.004 8.008-9.037 8.24-9.065 8.207-8.603 8.259-8.621 8.362-8.728 8.815-8.746 8.867-9.007 8.597-12.84 4.68-12.883 4.639-12.89 4.534-12.843 4.011-12.804 3.97-12.776 3.955-12.703 3.942-12.669 3.96-12.644 4.061-12.513 4.628-12.464 4.7-12.319 4.754-12.228 4.869-11.89 4.848-11.605 5.213-11.719 5.313-11.597 5.585-11.311 5.35-11.427 5.403-11.39 4.822-11.618 4.046-11.342 4.349-12.375 3.292-12.375 3.218-12.306 3.014-12.257 2.983-11.867 3.09-8.45 4.02-8.532 4.103-8.646 4.245-8.873 4.441-9.021 4.602-8.347 4.847-6.994 6.143-6.513 6.075-4.362 5.934-3.469 5.673-2.457 4.843-2.189 4.624-2.146 4.632-1.785 4.789-1.689 4.789-2.542 5.604-2.612 5.712-2.45 5.801-2.149 5.811-1.985 5.875-1.952 6.645-2.054 6.124-1.545 7.067-1.369 7.044-.446 6.944-.349 6.955-.284 6.858 1.331 4.172 1.397 4.107 1.573 3.896 1.717 3.692 1.465 3.5 1.169 3.23 .872 3.297 .638 3.25-1.023 1.322-3.758 1.407-4.519 .52-4.618 .664-4.64 .815-4.703 .929-4.91 .719-8.185-2.49-8.247-2.658-8.192-3.549-9.696-6.644-9.967-8.118-10.521-10.929-7.054-12.04-6.333-7.95-5.588-5.691-6.034-1.674-.679-2.834 2.425-3.361 2.97-3.295 3.946-2.844 6.894-1.022 4.013 2.12 2.694 .271 3.2-.613 3.385-.193 2.744-1.566 2.474-1.844 1.604-2.467 1.465-2.508 1.413-2.51 1.373-2.471 1.327-2.418 1.841-1.787 1.835-1.441 1.946-1.156 1.94-1.107 1.881-1.022 1.856-1.062 1.655-1.424 1.58-1.58 1.091-1.846 .274-1.848-1.847-1.252-2.851-1.516-2.886-1.479-2.925-1.391-2.925-1.354-1.926-.768 .186-.641 .78-.428 .832-.375 1.045-.187 1.081-.127 1.108-.082 .472 .066 0 0Z"/>
<path transform="matrix(1,0,0,-1,349.9746,416.67274)" d="M0 0C-.046-.087-.105-.239-.105-.276-.052-.357 .62-1.07 .62-1.07 .62-1.07 .741-.8 .728-.787 .663-.701 .043-.023 0 0" fill="#ffffff"/>
<path transform="matrix(1,0,0,-1,349.9746,416.67274)" stroke-width=".28" stroke-linecap="butt" stroke-miterlimit="4" stroke-linejoin="miter" fill="none" stroke="#5b186a" d="M0 0C-.046-.087-.105-.239-.105-.276-.052-.357 .62-1.07 .62-1.07 .62-1.07 .741-.8 .728-.787 .663-.701 .043-.023 0 0Z"/>
<path transform="matrix(1,0,0,-1,350.3545,416.02333)" d="M0 0C-.069 0-.194 .049-.233 .09-.226 .116-.222 .142-.183 .179-.131 .136-.024 .094 .049 .084 .036 .036 .017 .012 0 0" fill="#ffffff"/>
<path transform="matrix(1,0,0,-1,350.3545,416.02333)" stroke-width=".28" stroke-linecap="butt" stroke-miterlimit="4" stroke-linejoin="miter" fill="none" stroke="#5b186a" d="M0 0C-.069 0-.194 .049-.233 .09-.226 .116-.222 .142-.183 .179-.131 .136-.024 .094 .049 .084 .036 .036 .017 .012 0 0Z"/>
<path transform="matrix(1,0,0,-1,352.6016,418.49794)" d="M0 0C.118-.034 .277-.035 .355-.331 .219-.536 .139-.47-.189-.497-.174-.482-.184-.49-.155-.465-.01-.443 .189-.522 .314-.314 .285-.219 .307-.097 0-.026 0-.019-.004-.022 0 0" fill="#ffffff"/>
<path transform="matrix(1,0,0,-1,352.6016,418.49794)" stroke-width=".28" stroke-linecap="butt" stroke-miterlimit="4" stroke-linejoin="miter" fill="none" stroke="#5b186a" d="M0 0C.118-.034 .277-.035 .355-.331 .219-.536 .139-.47-.189-.497-.174-.482-.184-.49-.155-.465-.01-.443 .189-.522 .314-.314 .285-.219 .307-.097 0-.026 0-.019-.004-.022 0 0Z"/>
<path transform="matrix(1,0,0,-1,343.9355,406.48133)" d="M0 0C.441-2.603 .483-2.875 2.238-4.669 2.051-4.859 1.543-5.382 1.331-5.599-.167-4.205 .311-3.852-2.438-4.107-2.122-2.405-.529-.392 0 0" fill="#ffffff"/>
<path transform="matrix(1,0,0,-1,343.9355,406.48133)" stroke-width=".28" stroke-linecap="butt" stroke-miterlimit="4" stroke-linejoin="miter" fill="none" stroke="#5b186a" d="M0 0C.441-2.603 .483-2.875 2.238-4.669 2.051-4.859 1.543-5.382 1.331-5.599-.167-4.205 .311-3.852-2.438-4.107-2.122-2.405-.529-.392 0 0Z"/>
<path transform="matrix(1,0,0,-1,351.8896,417.2294)" d="M0 0C.017 .026 .017 .006 .023 .069-.056 .234-.47 .947-.614 1.163-.669 1.181-.974 1.248-1.013 1.247-1.03 1.227-1.03 1.215-1.013 1.197-1 1.182-.729 1.156-.64 1.119-.64 1.119-.581 1.024-.541 .954-.617 1.004-.727 .998-.781 .956-.866 .895-.854 .77-.763 .645-.669 .519-.541 .471-.462 .533-.417 .57-.374 .661-.397 .738-.295 .604-.003 .09 0 0" fill="#ffffff"/>
<path transform="matrix(1,0,0,-1,351.8896,417.2294)" stroke-width=".28" stroke-linecap="butt" stroke-miterlimit="4" stroke-linejoin="miter" fill="none" stroke="#5b186a" d="M0 0C.017 .026 .017 .006 .023 .069-.056 .234-.47 .947-.614 1.163-.669 1.181-.974 1.248-1.013 1.247-1.03 1.227-1.03 1.215-1.013 1.197-1 1.182-.729 1.156-.64 1.119-.64 1.119-.581 1.024-.541 .954-.617 1.004-.727 .998-.781 .956-.866 .895-.854 .77-.763 .645-.669 .519-.541 .471-.462 .533-.417 .57-.374 .661-.397 .738-.295 .604-.003 .09 0 0Z"/>
<path transform="matrix(1,0,0,-1,347.3603,418.4169)" d="M0 0C-1.362 1.227-.921 1.091-3.024 .581-3.03 .592-3.017 .593-3.017 .603-.908 1.123-1.345 1.233 .019 .004 .019 0 .006-.002 0 0" fill="#ffffff"/>
<path transform="matrix(1,0,0,-1,347.3603,418.4169)" stroke-width=".28" stroke-linecap="butt" stroke-miterlimit="4" stroke-linejoin="miter" fill="none" stroke="#5b186a" d="M0 0C-1.362 1.227-.921 1.091-3.024 .581-3.03 .592-3.017 .593-3.017 .603-.908 1.123-1.345 1.233 .019 .004 .019 0 .006-.002 0 0Z"/>
<path transform="matrix(1,0,0,-1,338.0752,418.75773)" d="M0 0C-.007-.009-.232-.239-.247-.256-.232-.29 .143-.416 .196-.411 .246-.381 .278-.339 .278-.306 .278-.272 .026 0 0 0" fill="#ffffff"/>
<path transform="matrix(1,0,0,-1,338.0752,418.75773)" stroke-width=".28" stroke-linecap="butt" stroke-miterlimit="4" stroke-linejoin="miter" fill="none" stroke="#5b186a" d="M0 0C-.007-.009-.232-.239-.247-.256-.232-.29 .143-.416 .196-.411 .246-.381 .278-.339 .278-.306 .278-.272 .026 0 0 0Z"/>
<path transform="matrix(1,0,0,-1,404.8398,555.974)" d="M0 0-19.846-19.846-214.13 174.44-194.285 194.285Z" fill="#ffffff"/>
<path transform="matrix(1,0,0,-1,404.8398,555.974)" stroke-width="1.308" stroke-linecap="butt" stroke-miterlimit="4" stroke-linejoin="miter" fill="none" stroke="#5b186a" d="M0 0-19.846-19.846-214.13 174.44-194.285 194.285 0 0Z"/>
<path transform="matrix(1,0,0,-1,244.2891,388.3153)" d="M0 0-26.953-26.952-32.798-21.107-5.845 5.846Z" fill="#ffffff"/>
<path transform="matrix(1,0,0,-1,244.2891,388.3153)" stroke-width="1.308" stroke-linecap="butt" stroke-miterlimit="4" stroke-linejoin="miter" fill="none" stroke="#5b186a" d="M0 0-26.953-26.952-32.798-21.107-5.845 5.846 0 0Z"/>
<path transform="matrix(1,0,0,-1,219.9683,363.99403)" d="M0 0-26.953-26.953-32.798-21.108-5.845 5.845Z" fill="#ffffff"/>
<path transform="matrix(1,0,0,-1,219.9683,363.99403)" stroke-width="1.308" stroke-linecap="butt" stroke-miterlimit="4" stroke-linejoin="miter" fill="none" stroke="#5b186a" d="M0 0-26.953-26.953-32.798-21.108-5.845 5.845 0 0Z"/>
<path transform="matrix(1,0,0,-1,210.5552,361.6893)" d="M0 0-19.836-19.835-23.436-11.921-7.924 3.592Z" fill="#ffffff"/>
<path transform="matrix(1,0,0,-1,210.5552,361.6893)" stroke-width="1.308" stroke-linecap="butt" stroke-miterlimit="4" stroke-linejoin="miter" fill="none" stroke="#5b186a" d="M0 0-19.836-19.835-23.436-11.921-7.924 3.592 0 0Z"/>
<path transform="matrix(1,0,0,-1,390.8437,581.65957)" d="M0 0 19.836 19.838 23.437 11.922 7.925-3.59Z" fill="#ffffff"/>
<path transform="matrix(1,0,0,-1,390.8437,581.65957)" stroke-width="1.308" stroke-linecap="butt" stroke-miterlimit="4" stroke-linejoin="miter" fill="none" stroke="#5b186a" d="M0 0 19.836 19.838 23.437 11.922 7.925-3.59 0 0Z"/>
<path transform="matrix(1,0,0,-1,414.2383,558.265)" d="M0 0-26.953-26.951-32.798-21.107-5.845 5.846Z" fill="#ffffff"/>
<path transform="matrix(1,0,0,-1,414.2383,558.265)" stroke-width="1.308" stroke-linecap="butt" stroke-miterlimit="4" stroke-linejoin="miter" fill="none" stroke="#5b186a" d="M0 0-26.953-26.951-32.798-21.107-5.845 5.846 0 0Z"/>
<path transform="matrix(1,0,0,-1,389.917,533.94277)" d="M0 0-26.953-26.953-32.798-21.108-5.845 5.846Z" fill="#ffffff"/>
<path transform="matrix(1,0,0,-1,389.917,533.94277)" stroke-width="1.308" stroke-linecap="butt" stroke-miterlimit="4" stroke-linejoin="miter" fill="none" stroke="#5b186a" d="M0 0-26.953-26.953-32.798-21.108-5.845 5.846 0 0Z"/>
<path transform="matrix(1,0,0,-1,342.4853,507.9193)" d="M0 0C-.041 .287-.159 1.131-.196 1.416-.554 1.357-.571 1.043-.574 .959-1.463 1.166-1.024-.131-.485 .502-.456 .502-.454 .498-.436 .475-.485 .271-.561 .117-.822-.027-1.08-.186-1.159-.256-1.587-.121-1.595-.088-1.593-.076-1.579-.059-.895-.086-1.294 .885-1.794 .396-1.998 .662-2.526 .4-2.372 .023-3.044-.18-2.352-.973-2.058-.365-2.035-.365-2.001-.387-2.001-.387-2.033-.781-2.332-.937-2.409-.984-2.759-1.193-2.813-1.197-3.116-1.109-3.142-1.086-3.116-1.068-3.116-1.055-2.283-.912-3.218 .105-3.479-.752-3.549-.709-3.839-.57-4.067-.846-3.839-1.016-3.1-1.565-2.865-1.744-2.663-1.625-.343-.217 0 0" fill="#ffffff"/>
<path transform="matrix(1,0,0,-1,342.4853,507.9193)" stroke-width=".275" stroke-linecap="butt" stroke-miterlimit="4" stroke-linejoin="miter" fill="none" stroke="#5b186a" d="M0 0C-.041 .287-.159 1.131-.196 1.416-.554 1.357-.571 1.043-.574 .959-1.463 1.166-1.024-.131-.485 .502-.456 .502-.454 .498-.436 .475-.485 .271-.561 .117-.822-.027-1.08-.186-1.159-.256-1.587-.121-1.595-.088-1.593-.076-1.579-.059-.895-.086-1.294 .885-1.794 .396-1.998 .662-2.526 .4-2.372 .023-3.044-.18-2.352-.973-2.058-.365-2.035-.365-2.001-.387-2.001-.387-2.033-.781-2.332-.937-2.409-.984-2.759-1.193-2.813-1.197-3.116-1.109-3.142-1.086-3.116-1.068-3.116-1.055-2.283-.912-3.218 .105-3.479-.752-3.549-.709-3.839-.57-4.067-.846-3.839-1.016-3.1-1.565-2.865-1.744-2.663-1.625-.343-.217 0 0Z"/>
<path transform="matrix(1,0,0,-1,340.7187,511.4525)" d="M0 0C-.084 0-.324 .008-.359 .004-1.178-.734-.984-.561-1.352-.66-1.414-.701-1.348-.875-1.262-.9-.913-.861-1.027-.947 0 0" fill="#ffffff"/>
<path transform="matrix(1,0,0,-1,340.7187,511.4525)" stroke-width=".28" stroke-linecap="butt" stroke-miterlimit="4" stroke-linejoin="miter" fill="none" stroke="#5b186a" d="M0 0C-.084 0-.324 .008-.359 .004-1.178-.734-.984-.561-1.352-.66-1.414-.701-1.348-.875-1.262-.9-.913-.861-1.027-.947 0 0Z"/>
<path transform="matrix(1,0,0,-1,346.6269,509.40953)" d="M0 0C-.055-.018-.092-.023-.133-.023-.211 .146-.517 .895-.616 1.777-3.243 4.064 .47 7.449 2.925 4.918 4.338 3.416 3.961 1.129 4.201-.82 4.866 .158 5.297-.145 5.846 .767 5.917 .767 6.045 .682 6.045 .682 5.762-.137 4.832-2.549 4.832-2.549L4.925-2.674C5.453-1.551 6.234-1.686 6.723-.842L6.918-.941 5.836-3.695C5.879-3.74 5.945-3.793 5.945-3.793 6.272-3.174 6.909-3.297 7.504-2.525 7.574-2.549 7.674-2.613 7.674-2.613L6.937-4.57C7.827-5.441 12.382-6.209 10.922-9.533 9.756-11.525 7.381-10.91 5.443-10.465 4.869-9.969 4.35-9.52 4.052-9.295 3.779-9.164 3.596-9.09 3.596-9.09 3.584-9.094 3.579-9.108 3.594-9.108 3.684-9.15 4.008-9.285 4.036-9.311 4.088-9.326 5.363-10.387 6.57-11.539 6.841-11.766 8.022-12.678 8.085-12.678 8.168-12.678 8.541-12.633 8.577-12.668 8.733-12.764 9.272-13.422 9.279-13.596 9.298-13.85 9.209-13.83 9.473-14.078 9.958-14.527 11.268-16.223 11.9-16.701 11.898-16.734 11.876-16.854 11.837-16.891 11.304-17.025 10.984-16.695 10.909-17.709 11.502-18.049 11.898-17.852 11.618-18.684 11.704-18.83 12.076-19.082 12.182-19.154 11.991-19.469 11.105-19.023 10.953-18.93 10.818-18.797 10.598-18.279 10.522-18.209 10.432-18.207 10.402-18.229 10.402-18.229 10.385-18.312 10.463-19.012 10.344-19.131 10.173-19.229 9.916-19.301 9.704-19.279 9.566-19.52 9.582-20.029 9.582-20.029 9.178-19.822 9.221-19.508 9.275-18.764 9.322-18.613 9.766-18.137 9.764-18.055 9.762-18.023 9.729-17.937 9.706-17.943 9.488-18.029 8.813-18.252 8.727-18.162 8.598-18.039 8.443-17.881 8.43-17.647 8.246-17.604 7.912-17.619 7.565-17.69 7.648-17.18 8.172-17.219 8.82-16.961 9.191-17.078 9.704-17.397 9.863-17.334 9.929-17.346 10.104-17.094 10.134-16.871 9.83-16.125 7.477-14.51 7.148-14.326 7.132-14.322 7.124-14.315 7.118-14.313 6.16-13.92 4.309-14.408 2.863-13.859 2.428-13.545 1.874-13.15 1.76-12.893 1.475-11.691 2.02-10.861 1.384-9.205 1.363-9.209 1.375-9.203 1.358-9.223 2.002-10.811 1.467-11.547 1.729-12.898 1.947-13.275 2.695-13.75 2.859-13.879 3.147-13.996 3.764-14.143 4.209-14.143 4.538-14.887 4.248-15.287 4.904-15.697 4.343-16.975 4.634-16.822 3.648-16.967 2.296-17.963 1.618-17.984 .965-18.77 .9-18.799 .804-18.781 .73-18.74 .73-18.219 .897-18.082 .022-17.897-.137-18.566-.094-18.475-.633-18.867-1.279-19.137-1.15-19.186-1.514-18.98-1.299-18.848-1.161-18.797-1-18.584-1.33-18.137-1.314-18.24-.682-17.576-.704-17.537-.707-17.531-.773-17.488-1.641-17.953-1.462-17.941-1.711-17.754-1.883-17.566-1.784-17.617-1.883-17.383-2.116-17.402-2.146-17.361-2.602-17.617-2.609-17.268-2.559-17.346-2.111-16.99-1.725-16.727-1.447-16.637-.56-16.875-.535-16.848-.514-16.822-.5-16.793-.57-16.695-.935-16.334-.962-16.098-.911-15.98-.678-15.772-.641-15.744-.719-15.463-.923-15.318-1.107-15.154-.637-15.059-.591-15.221-.346-15.406 .295-16.137 .175-15.828 .206-16.846 .312-16.881 .844-17.18 .918-17.248 1.166-17.143 2.336-16.055 2.699-15.777 2.354-15.662 2.104-15.313 1.108-13.941 .377-12.766 .501-13.074 .829-11.865 .88-11.684 1.409-10.746 1.316-10.695 .725-10.397 .029-9.717-1.021-9.783-1.288-9.772-1.816-9.57-1.977-9.471-2.014-9.086-2.277-6.687-2.277-6.687-2.283-6.678-2.297-6.684-2.297-6.684L-1.592-13.108C-1.711-13.225-1.782-13.219-1.93-13.086-2.205-12.861-2.275-12.828-2.727-13.25-2.631-13.662-2.586-13.801-2.555-14.182-2.525-14.508-2.602-14.445-2.857-14.619-2.715-14.762-1.641-15.75-1.671-15.779-1.708-15.852-2.04-16.197-2.123-16.223-2.203-16.145-3.185-15.188-3.23-15.143-3.335-15.219-3.191-15.652-3.234-15.733-3.281-15.729-3.449-15.656-3.498-15.609-3.675-15.156-3.786-15.115-3.764-14.619-3.846-14.541-4.323-14.068-4.35-14.045-4.543-14.145-4.478-14.264-4.937-14.01-5.1-13.805-5.171-13.963-5.31-14.02-5.402-14.068-5.589-14.318-5.678-14.4-5.818-14.074-5.73-14.063-5.631-13.891-5.482-13.561-5.352-13.471-5.174-13.24-5.201-13.215-8.555-9.936-8.745-9.746-8.757-9.979-8.619-9.947-9.228-10.201-9.336-10.662-9.197-10.832-9.18-11.039-9.658-10.977-9.652-10.584-9.747-10.295-9.975-9.58-9.711-9.471-9.521-8.986-9.619-8.897-9.555-8.953-9.594-8.914-9.759-8.992-9.978-9.164-10.162-9.264-10.313-9.203-10.443-9.182-10.739-8.938-11.051-9.072-11.029-9.108-11.363-9.436-11.517-9-11.469-9.145-11.094-8.621-10.895-8.428-10.767-8.191-10.387-8.143-10.721-7.815-12.619-5.957-12.68-5.895-12.645-5.84-12.292-5.488-12.227-5.459-12.051-5.625-9.723-7.908-9.691-7.937-9.614-7.91-9.445-7.897-9.475-7.854-9.56-7.754-9.913-7.262-9.898-7.193-9.87-7.061-9.779-6.893-9.672-6.75-9.682-6.615-9.891-6.395-10.089-6.127-9.78-5.912-9.525-6.279-9.328-6.373-8.887-6.826-8.921-6.576-8.77-7.736-8.41-7.773-8.454-7.609-8.219-7.514-7.844-7.641-7.409-7.35-5.973-6.941-5.734-7.369-4.971-8.355-4.9-8.502-5.206-8.547-7.628-8.695-7.705-8.76-7.8-8.822-7.943-8.943-8.008-9.002-8.239-9.035-8.207-9.063-8.258-8.602-8.361-8.619-8.814-8.727-8.866-8.744-8.598-9.006-4.68-12.838-4.639-12.881-4.533-12.889-4.01-12.842-3.969-12.803-3.954-12.773-3.941-12.701-3.96-12.668-4.06-12.641-4.628-12.512-4.699-12.463-4.754-12.318-4.868-12.225-4.848-11.889-5.213-11.604-5.312-11.717-5.585-11.596-5.35-11.311-5.402-11.426-4.821-11.389-4.045-11.617-4.348-11.34-3.292-12.373-3.219-12.373-3.014-12.305-2.982-12.256-3.089-11.865-4.02-8.449-4.103-8.531-4.244-8.645-4.439-8.871-4.602-9.02-4.846-8.346-6.142-6.992-6.074-6.51-5.934-4.359-5.673-3.467-4.844-2.455-4.625-2.188-4.631-2.145-4.788-1.783-4.789-1.686-5.603-2.539-5.712-2.609-5.8-2.447-5.81-2.148-5.876-1.984-6.645-1.951-6.123-2.051-7.066-1.543-7.044-1.367-6.943-.445-6.954-.346-6.857-.281-4.171 1.332-4.105 1.398-3.895 1.574-3.691 1.719-3.501 1.467-3.228 1.172-3.296 .873-3.25 .641-1.321-1.02-1.406-3.756-.52-4.516-.663-4.615-.814-4.639-.93-4.701-.719-4.908 2.491-8.182 2.66-8.244 3.549-8.191 6.645-9.695 8.12-9.967 10.93-10.52 12.041-7.051 7.952-6.33 5.691-5.586 1.674-6.031 2.834-.678 3.361 2.428 3.296 2.971 2.845 3.949 1.022 6.895-2.119 4.014-.271 2.697 .615 3.201 .193 3.387 1.566 2.744 1.843 2.475 2.467 1.605 2.508 1.467 2.509 1.414 2.473 1.373 2.419 1.328 1.787 1.842 1.441 1.838 1.156 1.949 1.109 1.943 1.022 1.883 1.062 1.857 1.424 1.656 1.581 1.58 1.848 1.092 1.848 .277 1.252-1.844 1.516-2.848 1.479-2.885 1.391-2.924 1.355-2.924 .768-1.924 .643 .187 .429 .781 .376 .832 .187 1.047 .127 1.082 .082 1.109-.066 .473 0 0" fill="#ffffff"/>
<path transform="matrix(1,0,0,-1,346.6269,509.40953)" stroke-width=".28" stroke-linecap="butt" stroke-miterlimit="4" stroke-linejoin="miter" fill="none" stroke="#5b186a" d="M0 0C-.055-.018-.092-.023-.133-.023-.211 .146-.517 .895-.616 1.777-3.243 4.064 .47 7.449 2.925 4.918 4.338 3.416 3.961 1.129 4.201-.82 4.866 .158 5.297-.145 5.846 .767 5.917 .767 6.045 .682 6.045 .682 5.762-.137 4.832-2.549 4.832-2.549L4.925-2.674C5.453-1.551 6.234-1.686 6.723-.842L6.918-.941 5.836-3.695C5.879-3.74 5.945-3.793 5.945-3.793 6.272-3.174 6.909-3.297 7.504-2.525 7.574-2.549 7.674-2.613 7.674-2.613L6.937-4.57C7.827-5.441 12.382-6.209 10.922-9.533 9.756-11.525 7.381-10.91 5.443-10.465 4.869-9.969 4.35-9.52 4.052-9.295 3.779-9.164 3.596-9.09 3.596-9.09 3.584-9.094 3.579-9.108 3.594-9.108 3.684-9.15 4.008-9.285 4.036-9.311 4.088-9.326 5.363-10.387 6.57-11.539 6.841-11.766 8.022-12.678 8.085-12.678 8.168-12.678 8.541-12.633 8.577-12.668 8.733-12.764 9.272-13.422 9.279-13.596 9.298-13.85 9.209-13.83 9.473-14.078 9.958-14.527 11.268-16.223 11.9-16.701 11.898-16.734 11.876-16.854 11.837-16.891 11.304-17.025 10.984-16.695 10.909-17.709 11.502-18.049 11.898-17.852 11.618-18.684 11.704-18.83 12.076-19.082 12.182-19.154 11.991-19.469 11.105-19.023 10.953-18.93 10.818-18.797 10.598-18.279 10.522-18.209 10.432-18.207 10.402-18.229 10.402-18.229 10.385-18.312 10.463-19.012 10.344-19.131 10.173-19.229 9.916-19.301 9.704-19.279 9.566-19.52 9.582-20.029 9.582-20.029 9.178-19.822 9.221-19.508 9.275-18.764 9.322-18.613 9.766-18.137 9.764-18.055 9.762-18.023 9.729-17.937 9.706-17.943 9.488-18.029 8.813-18.252 8.727-18.162 8.598-18.039 8.443-17.881 8.43-17.647 8.246-17.604 7.912-17.619 7.565-17.69 7.648-17.18 8.172-17.219 8.82-16.961 9.191-17.078 9.704-17.397 9.863-17.334 9.929-17.346 10.104-17.094 10.134-16.871 9.83-16.125 7.477-14.51 7.148-14.326 7.132-14.322 7.124-14.315 7.118-14.313 6.16-13.92 4.309-14.408 2.863-13.859 2.428-13.545 1.874-13.15 1.76-12.893 1.475-11.691 2.02-10.861 1.384-9.205 1.363-9.209 1.375-9.203 1.358-9.223 2.002-10.811 1.467-11.547 1.729-12.898 1.947-13.275 2.695-13.75 2.859-13.879 3.147-13.996 3.764-14.143 4.209-14.143 4.538-14.887 4.248-15.287 4.904-15.697 4.343-16.975 4.634-16.822 3.648-16.967 2.296-17.963 1.618-17.984 .965-18.77 .9-18.799 .804-18.781 .73-18.74 .73-18.219 .897-18.082 .022-17.897-.137-18.566-.094-18.475-.633-18.867-1.279-19.137-1.15-19.186-1.514-18.98-1.299-18.848-1.161-18.797-1-18.584-1.33-18.137-1.314-18.24-.682-17.576-.704-17.537-.707-17.531-.773-17.488-1.641-17.953-1.462-17.941-1.711-17.754-1.883-17.566-1.784-17.617-1.883-17.383-2.116-17.402-2.146-17.361-2.602-17.617-2.609-17.268-2.559-17.346-2.111-16.99-1.725-16.727-1.447-16.637-.56-16.875-.535-16.848-.514-16.822-.5-16.793-.57-16.695-.935-16.334-.962-16.098-.911-15.98-.678-15.772-.641-15.744-.719-15.463-.923-15.318-1.107-15.154-.637-15.059-.591-15.221-.346-15.406 .295-16.137 .175-15.828 .206-16.846 .312-16.881 .844-17.18 .918-17.248 1.166-17.143 2.336-16.055 2.699-15.777 2.354-15.662 2.104-15.313 1.108-13.941 .377-12.766 .501-13.074 .829-11.865 .88-11.684 1.409-10.746 1.316-10.695 .725-10.397 .029-9.717-1.021-9.783-1.288-9.772-1.816-9.57-1.977-9.471-2.014-9.086-2.277-6.687-2.277-6.687-2.283-6.678-2.297-6.684-2.297-6.684L-1.592-13.108C-1.711-13.225-1.782-13.219-1.93-13.086-2.205-12.861-2.275-12.828-2.727-13.25-2.631-13.662-2.586-13.801-2.555-14.182-2.525-14.508-2.602-14.445-2.857-14.619-2.715-14.762-1.641-15.75-1.671-15.779-1.708-15.852-2.04-16.197-2.123-16.223-2.203-16.145-3.185-15.188-3.23-15.143-3.335-15.219-3.191-15.652-3.234-15.733-3.281-15.729-3.449-15.656-3.498-15.609-3.675-15.156-3.786-15.115-3.764-14.619-3.846-14.541-4.323-14.068-4.35-14.045-4.543-14.145-4.478-14.264-4.937-14.01-5.1-13.805-5.171-13.963-5.31-14.02-5.402-14.068-5.589-14.318-5.678-14.4-5.818-14.074-5.73-14.063-5.631-13.891-5.482-13.561-5.352-13.471-5.174-13.24-5.201-13.215-8.555-9.936-8.745-9.746-8.757-9.979-8.619-9.947-9.228-10.201-9.336-10.662-9.197-10.832-9.18-11.039-9.658-10.977-9.652-10.584-9.747-10.295-9.975-9.58-9.711-9.471-9.521-8.986-9.619-8.897-9.555-8.953-9.594-8.914-9.759-8.992-9.978-9.164-10.162-9.264-10.313-9.203-10.443-9.182-10.739-8.938-11.051-9.072-11.029-9.108-11.363-9.436-11.517-9-11.469-9.145-11.094-8.621-10.895-8.428-10.767-8.191-10.387-8.143-10.721-7.815-12.619-5.957-12.68-5.895-12.645-5.84-12.292-5.488-12.227-5.459-12.051-5.625-9.723-7.908-9.691-7.937-9.614-7.91-9.445-7.897-9.475-7.854-9.56-7.754-9.913-7.262-9.898-7.193-9.87-7.061-9.779-6.893-9.672-6.75-9.682-6.615-9.891-6.395-10.089-6.127-9.78-5.912-9.525-6.279-9.328-6.373-8.887-6.826-8.921-6.576-8.77-7.736-8.41-7.773-8.454-7.609-8.219-7.514-7.844-7.641-7.409-7.35-5.973-6.941-5.734-7.369-4.971-8.355-4.9-8.502-5.206-8.547-7.628-8.695-7.705-8.76-7.8-8.822-7.943-8.943-8.008-9.002-8.239-9.035-8.207-9.063-8.258-8.602-8.361-8.619-8.814-8.727-8.866-8.744-8.598-9.006-4.68-12.838-4.639-12.881-4.533-12.889-4.01-12.842-3.969-12.803-3.954-12.773-3.941-12.701-3.96-12.668-4.06-12.641-4.628-12.512-4.699-12.463-4.754-12.318-4.868-12.225-4.848-11.889-5.213-11.604-5.312-11.717-5.585-11.596-5.35-11.311-5.402-11.426-4.821-11.389-4.045-11.617-4.348-11.34-3.292-12.373-3.219-12.373-3.014-12.305-2.982-12.256-3.089-11.865-4.02-8.449-4.103-8.531-4.244-8.645-4.439-8.871-4.602-9.02-4.846-8.346-6.142-6.992-6.074-6.51-5.934-4.359-5.673-3.467-4.844-2.455-4.625-2.188-4.631-2.145-4.788-1.783-4.789-1.686-5.603-2.539-5.712-2.609-5.8-2.447-5.81-2.148-5.876-1.984-6.645-1.951-6.123-2.051-7.066-1.543-7.044-1.367-6.943-.445-6.954-.346-6.857-.281-4.171 1.332-4.105 1.398-3.895 1.574-3.691 1.719-3.501 1.467-3.228 1.172-3.296 .873-3.25 .641-1.321-1.02-1.406-3.756-.52-4.516-.663-4.615-.814-4.639-.93-4.701-.719-4.908 2.491-8.182 2.66-8.244 3.549-8.191 6.645-9.695 8.12-9.967 10.93-10.52 12.041-7.051 7.952-6.33 5.691-5.586 1.674-6.031 2.834-.678 3.361 2.428 3.296 2.971 2.845 3.949 1.022 6.895-2.119 4.014-.271 2.697 .615 3.201 .193 3.387 1.566 2.744 1.843 2.475 2.467 1.605 2.508 1.467 2.509 1.414 2.473 1.373 2.419 1.328 1.787 1.842 1.441 1.838 1.156 1.949 1.109 1.943 1.022 1.883 1.062 1.857 1.424 1.656 1.581 1.58 1.848 1.092 1.848 .277 1.252-1.844 1.516-2.848 1.479-2.885 1.391-2.924 1.355-2.924 .768-1.924 .643 .187 .429 .781 .376 .832 .187 1.047 .127 1.082 .082 1.109-.066 .473 0 0Z"/>
<path transform="matrix(1,0,0,-1,340.706,511.14)" d="M0 0C.087-.047 .239-.107 .276-.107 .358-.053 1.069 .617 1.069 .617 1.069 .617 .8 .74 .787 .728 .702 .66 .025 .043 0 0" fill="#ffffff"/>
<path transform="matrix(1,0,0,-1,340.706,511.14)" stroke-width=".28" stroke-linecap="butt" stroke-miterlimit="4" stroke-linejoin="miter" fill="none" stroke="#5b186a" d="M0 0C.087-.047 .239-.107 .276-.107 .358-.053 1.069 .617 1.069 .617 1.069 .617 .8 .74 .787 .728 .702 .66 .025 .043 0 0Z"/>
<path transform="matrix(1,0,0,-1,340.0566,510.7611)" d="M0 0C0-.07-.049-.195-.09-.234-.115-.227-.143-.223-.18-.184-.137-.133-.094-.023-.084 .049-.036 .035-.012 .016 0 0" fill="#ffffff"/>
<path transform="matrix(1,0,0,-1,340.0566,510.7611)" stroke-width=".28" stroke-linecap="butt" stroke-miterlimit="4" stroke-linejoin="miter" fill="none" stroke="#5b186a" d="M0 0C0-.07-.049-.195-.09-.234-.115-.227-.143-.223-.18-.184-.137-.133-.094-.023-.084 .049-.036 .035-.012 .016 0 0Z"/>
<path transform="matrix(1,0,0,-1,342.5312,508.515)" d="M0 0C.034 .119 .035 .279 .332 .355 .536 .219 .47 .141 .497-.187 .483-.174 .49-.184 .465-.154 .443-.01 .522 .191 .315 .316 .219 .285 .098 .307 .025 0 .02 0 .022-.004 0 0" fill="#ffffff"/>
<path transform="matrix(1,0,0,-1,342.5312,508.515)" stroke-width=".28" stroke-linecap="butt" stroke-miterlimit="4" stroke-linejoin="miter" fill="none" stroke="#5b186a" d="M0 0C.034 .119 .035 .279 .332 .355 .536 .219 .47 .141 .497-.187 .483-.174 .49-.184 .465-.154 .443-.01 .522 .191 .315 .316 .219 .285 .098 .307 .025 0 .02 0 .022-.004 0 0Z"/>
<path transform="matrix(1,0,0,-1,330.5146,517.181)" d="M0 0C2.605 .443 2.875 .482 4.669 2.24 4.86 2.053 5.382 1.543 5.599 1.33 4.205-.168 3.853 .311 4.107-2.438 2.405-2.121 .392-.527 0 0" fill="#ffffff"/>
<path transform="matrix(1,0,0,-1,330.5146,517.181)" stroke-width=".28" stroke-linecap="butt" stroke-miterlimit="4" stroke-linejoin="miter" fill="none" stroke="#5b186a" d="M0 0C2.605 .443 2.875 .482 4.669 2.24 4.86 2.053 5.382 1.543 5.599 1.33 4.205-.168 3.853 .311 4.107-2.438 2.405-2.121 .392-.527 0 0Z"/>
<path transform="matrix(1,0,0,-1,341.2637,509.22593)" d="M0 0C-.027 .016-.007 .016-.07 .023-.234-.055-.947-.469-1.164-.613-1.182-.67-1.249-.975-1.248-1.014-1.227-1.029-1.216-1.029-1.197-1.014-1.182-1-1.158-.729-1.12-.641-1.12-.641-1.025-.58-.956-.541-1.005-.617-.999-.727-.957-.781-.895-.867-.772-.854-.645-.764-.52-.67-.471-.541-.535-.463-.57-.418-.662-.375-.738-.398-.604-.297-.091-.004 0 0" fill="#ffffff"/>
<path transform="matrix(1,0,0,-1,341.2637,509.22593)" stroke-width=".28" stroke-linecap="butt" stroke-miterlimit="4" stroke-linejoin="miter" fill="none" stroke="#5b186a" d="M0 0C-.027 .016-.007 .016-.07 .023-.234-.055-.947-.469-1.164-.613-1.182-.67-1.249-.975-1.248-1.014-1.227-1.029-1.216-1.029-1.197-1.014-1.182-1-1.158-.729-1.12-.641-1.12-.641-1.025-.58-.956-.541-1.005-.617-.999-.727-.957-.781-.895-.867-.772-.854-.645-.764-.52-.67-.471-.541-.535-.463-.57-.418-.662-.375-.738-.398-.604-.297-.091-.004 0 0Z"/>
<path transform="matrix(1,0,0,-1,342.4502,513.75527)" d="M0 0C-1.228-1.361-1.091-.922-.581-3.023-.592-3.031-.594-3.016-.604-3.016-1.123-.908-1.232-1.344-.004 .02 0 .02 .002 .006 0 0" fill="#ffffff"/>
<path transform="matrix(1,0,0,-1,342.4502,513.75527)" stroke-width=".28" stroke-linecap="butt" stroke-miterlimit="4" stroke-linejoin="miter" fill="none" stroke="#5b186a" d="M0 0C-1.228-1.361-1.091-.922-.581-3.023-.592-3.031-.594-3.016-.604-3.016-1.123-.908-1.232-1.344-.004 .02 0 .02 .002 .006 0 0Z"/>
<path transform="matrix(1,0,0,-1,342.791,523.0404)" d="M0 0C.009-.008 .238-.232 .255-.246 .29-.232 .415 .143 .411 .197 .381 .244 .339 .277 .307 .277 .272 .277 0 .025 0 0" fill="#ffffff"/>
<path transform="matrix(1,0,0,-1,342.791,523.0404)" stroke-width=".28" stroke-linecap="butt" stroke-miterlimit="4" stroke-linejoin="miter" fill="none" stroke="#5b186a" d="M0 0C.009-.008 .238-.232 .255-.246 .29-.232 .415 .143 .411 .197 .381 .244 .339 .277 .307 .277 .272 .277 0 .025 0 0Z"/>
<path transform="matrix(1,0,0,-1,246.8086,412.8573)" d="M0 0C-.04 .289-.159 1.131-.196 1.417-.552 1.359-.571 1.043-.574 .96-1.462 1.167-1.025-.13-.486 .502-.456 .502-.454 .499-.435 .474-.485 .27-.562 .119-.822-.027-1.08-.187-1.158-.255-1.587-.121-1.594-.087-1.592-.075-1.579-.057-.895-.085-1.294 .885-1.793 .395-1.998 .663-2.527 .402-2.372 .025-3.044-.179-2.352-.972-2.057-.364-2.035-.364-2.001-.386-2.001-.386-2.033-.78-2.332-.937-2.409-.984-2.758-1.194-2.813-1.197-3.116-1.109-3.141-1.084-3.116-1.069-3.116-1.054-2.283-.912-3.218 .106-3.478-.75-3.549-.708-3.838-.571-4.068-.845-3.838-1.015-3.1-1.565-2.865-1.744-2.663-1.623-.343-.215 0 0" fill="#ffffff"/>
<path transform="matrix(1,0,0,-1,246.8086,412.8573)" stroke-width=".275" stroke-linecap="butt" stroke-miterlimit="4" stroke-linejoin="miter" fill="none" stroke="#5b186a" d="M0 0C-.04 .289-.159 1.131-.196 1.417-.552 1.359-.571 1.043-.574 .96-1.462 1.167-1.025-.13-.486 .502-.456 .502-.454 .499-.435 .474-.485 .27-.562 .119-.822-.027-1.08-.187-1.158-.255-1.587-.121-1.594-.087-1.592-.075-1.579-.057-.895-.085-1.294 .885-1.793 .395-1.998 .663-2.527 .402-2.372 .025-3.044-.179-2.352-.972-2.057-.364-2.035-.364-2.001-.386-2.001-.386-2.033-.78-2.332-.937-2.409-.984-2.758-1.194-2.813-1.197-3.116-1.109-3.141-1.084-3.116-1.069-3.116-1.054-2.283-.912-3.218 .106-3.478-.75-3.549-.708-3.838-.571-4.068-.845-3.838-1.015-3.1-1.565-2.865-1.744-2.663-1.623-.343-.215 0 0Z"/>
<path transform="matrix(1,0,0,-1,245.042,416.3915)" d="M0 0C-.083 0-.324 .009-.36 .005-1.178-.733-.984-.56-1.351-.66-1.414-.699-1.347-.873-1.261-.9-.913-.86-1.028-.945 0 0" fill="#ffffff"/>
<path transform="matrix(1,0,0,-1,245.042,416.3915)" stroke-width=".28" stroke-linecap="butt" stroke-miterlimit="4" stroke-linejoin="miter" fill="none" stroke="#5b186a" d="M0 0C-.083 0-.324 .009-.36 .005-1.178-.733-.984-.56-1.351-.66-1.414-.699-1.347-.873-1.261-.9-.913-.86-1.028-.945 0 0Z"/>
<path transform="matrix(1,0,0,-1,250.9512,414.3456)" d="M0 0C-.054-.019-.092-.025-.133-.025-.212 .145-.518 .894-.617 1.777-3.244 4.063 .469 7.449 2.924 4.917 4.337 3.416 3.96 1.127 4.201-.821 4.865 .157 5.296-.147 5.845 .765 5.917 .765 6.044 .68 6.044 .68 5.761-.137 4.831-2.55 4.831-2.55L4.924-2.675C5.452-1.551 6.234-1.689 6.721-.843 6.786-.876 6.917-.943 6.917-.943L5.835-3.697C5.878-3.743 5.945-3.794 5.945-3.794 6.271-3.174 6.909-3.298 7.504-2.526 7.574-2.55 7.673-2.615 7.673-2.615L6.936-4.572C7.827-5.444 12.381-6.21 10.921-9.536 9.755-11.528 7.38-10.913 5.443-10.465 4.868-9.969 4.35-9.522 4.051-9.295 3.779-9.165 3.595-9.09 3.595-9.09 3.583-9.094 3.578-9.11 3.593-9.11 3.682-9.153 4.007-9.288 4.036-9.311 4.087-9.329 5.363-10.387 6.57-11.542 6.84-11.766 8.021-12.678 8.084-12.678 8.167-12.678 8.54-12.633 8.576-12.668 8.732-12.764 9.272-13.422 9.279-13.596 9.297-13.85 9.208-13.831 9.472-14.081 9.957-14.531 11.267-16.222 11.901-16.705 11.899-16.738 11.875-16.855 11.836-16.892 11.303-17.029 10.983-16.697 10.909-17.708 11.501-18.048 11.897-17.851 11.618-18.683 11.704-18.832 12.075-19.083 12.18-19.156 11.991-19.468 11.106-19.025 10.953-18.931 10.817-18.796 10.596-18.281 10.521-18.21 10.43-18.208 10.402-18.23 10.402-18.23 10.384-18.314 10.462-19.013 10.343-19.13 10.172-19.23 9.915-19.302 9.704-19.281 9.566-19.521 9.581-20.033 9.581-20.033 9.177-19.826 9.22-19.509 9.275-18.763 9.322-18.615 9.765-18.138 9.763-18.056 9.761-18.025 9.728-17.941 9.706-17.947 9.489-18.033 8.812-18.253 8.726-18.165 8.597-18.04 8.443-17.882 8.429-17.65 8.245-17.607 7.911-17.621 7.564-17.691 7.649-17.179 8.171-17.22 8.819-16.96 9.192-17.08 9.704-17.4 9.863-17.335 9.928-17.347 10.103-17.093 10.133-16.875 9.829-16.125 7.475-14.511 7.147-14.33 7.131-14.324 7.124-14.318 7.118-14.314 6.16-13.92 4.307-14.412 2.864-13.862 2.427-13.545 1.874-13.153 1.759-12.893 1.473-11.694 2.019-10.864 1.383-9.208 1.363-9.209 1.375-9.206 1.357-9.223 2.001-10.811 1.466-11.547 1.729-12.901 1.947-13.278 2.694-13.751 2.859-13.879 3.146-13.999 3.763-14.143 4.208-14.143 4.537-14.888 4.247-15.29 4.903-15.701 4.342-16.976 4.633-16.824 3.649-16.966 2.295-17.964 1.617-17.986 .964-18.771 .9-18.8 .803-18.783 .731-18.744 .731-18.22 .895-18.083 .02-17.898-.136-18.57-.093-18.474-.633-18.871-1.28-19.138-1.152-19.187-1.514-18.984-1.299-18.849-1.162-18.796-1.001-18.583-1.331-18.138-1.316-18.242-.682-17.58-.705-17.539-.708-17.535-.775-17.492-1.64-17.957-1.463-17.943-1.711-17.753-1.883-17.57-1.785-17.619-1.883-17.382-2.117-17.406-2.148-17.363-2.602-17.619-2.61-17.267-2.56-17.347-2.113-16.994-1.724-16.726-1.448-16.636-.561-16.875-.536-16.849-.513-16.824-.5-16.794-.571-16.697-.937-16.333-.962-16.097-.912-15.982-.679-15.773-.642-15.746-.72-15.462-.923-15.322-1.109-15.156-.636-15.058-.591-15.222-.345-15.408 .294-16.136 .174-15.832 .206-16.845 .312-16.882 .843-17.179 .917-17.25 1.165-17.144 2.335-16.056 2.698-15.779 2.354-15.664 2.103-15.314 1.107-13.944 .376-12.766 .5-13.077 .828-11.868 .879-11.684 1.409-10.749 1.315-10.698 .723-10.399 .029-9.717-1.021-9.786-1.289-9.774-1.818-9.573-1.978-9.471-2.014-9.086-2.279-6.69-2.279-6.69-2.284-6.678-2.297-6.685-2.297-6.685L-1.592-13.11C-1.711-13.225-1.783-13.219-1.93-13.086-2.206-12.864-2.277-12.831-2.727-13.251-2.632-13.665-2.587-13.801-2.554-14.182-2.527-14.509-2.602-14.449-2.858-14.621-2.716-14.763-1.64-15.751-1.672-15.783-1.708-15.851-2.041-16.199-2.124-16.222-2.204-16.148-3.186-15.189-3.231-15.144-3.335-15.218-3.192-15.656-3.236-15.734-3.282-15.73-3.45-15.658-3.499-15.613-3.676-15.16-3.787-15.117-3.765-14.621-3.846-14.543-4.324-14.071-4.351-14.045-4.543-14.147-4.48-14.265-4.937-14.01-5.099-13.805-5.171-13.963-5.312-14.022-5.404-14.071-5.59-14.32-5.679-14.402-5.819-14.077-5.731-14.065-5.632-13.891-5.484-13.559-5.351-13.471-5.175-13.243-5.202-13.215-8.555-9.936-8.746-9.749-8.758-9.981-8.62-9.95-9.228-10.204-9.337-10.665-9.198-10.833-9.179-11.042-9.659-10.977-9.653-10.584-9.748-10.295-9.974-9.583-9.712-9.471-9.522-8.989-9.62-8.899-9.555-8.956-9.595-8.917-9.76-8.995-9.979-9.165-10.163-9.264-10.313-9.206-10.444-9.182-10.74-8.94-11.051-9.075-11.03-9.11-11.364-9.436-11.518-9.001-11.468-9.147-11.094-8.624-10.894-8.428-10.768-8.194-10.386-8.143-10.722-7.817-12.62-5.958-12.681-5.897-12.645-5.84-12.292-5.491-12.227-5.459-12.051-5.626-9.722-7.911-9.692-7.94-9.615-7.913-9.446-7.899-9.475-7.856-9.56-7.754-9.914-7.263-9.9-7.196-9.871-7.061-9.78-6.894-9.672-6.752-9.682-6.618-9.892-6.397-10.089-6.129-9.781-5.913-9.526-6.281-9.329-6.375-8.887-6.827-8.922-6.578-8.77-7.739-8.411-7.776-8.455-7.612-8.218-7.515-7.845-7.642-7.41-7.35-5.972-6.942-5.736-7.372-4.971-8.358-4.902-8.502-5.207-8.547-7.628-8.698-7.706-8.76-7.801-8.825-7.945-8.946-8.008-9.002-8.24-9.038-8.208-9.065-8.259-8.602-8.362-8.622-8.815-8.727-8.867-8.747-8.597-9.006-4.68-12.838-4.639-12.881-4.534-12.889-4.011-12.842-3.97-12.803-3.955-12.776-3.942-12.704-3.96-12.668-4.061-12.641-4.628-12.512-4.7-12.463-4.754-12.321-4.869-12.225-4.849-11.889-5.213-11.606-5.313-11.717-5.586-11.596-5.35-11.311-5.403-11.426-4.822-11.389-4.046-11.62-4.349-11.34-3.293-12.376-3.218-12.376-3.015-12.305-2.984-12.256-3.09-11.868-4.02-8.452-4.103-8.534-4.245-8.645-4.441-8.874-4.602-9.022-4.847-8.346-6.144-6.994-6.075-6.511-5.935-4.362-5.673-3.469-4.844-2.457-4.626-2.189-4.632-2.147-4.789-1.785-4.79-1.689-5.604-2.542-5.712-2.612-5.801-2.45-5.811-2.149-5.876-1.985-6.645-1.952-6.124-2.052-7.067-1.544-7.045-1.369-6.944-.447-6.955-.347-6.858-.284-4.172 1.331-4.107 1.398-3.896 1.574-3.692 1.717-3.501 1.465-3.23 1.169-3.297 .872-3.251 .638-1.322-1.022-1.407-3.757-.519-4.518-.664-4.618-.815-4.639-.929-4.703-.719-4.91 2.491-8.182 2.659-8.247 3.548-8.194 6.643-9.698 8.119-9.967 10.929-10.522 12.041-7.052 7.952-6.333 5.691-5.587 1.673-6.034 2.833-.678 3.361 2.425 3.295 2.969 2.844 3.948 1.022 6.893-2.12 4.012-.273 2.696 .615 3.2 .194 3.385 1.567 2.744 1.842 2.474 2.466 1.603 2.507 1.465 2.508 1.413 2.471 1.373 2.418 1.328 1.787 1.841 1.442 1.835 1.156 1.947 1.108 1.942 1.022 1.881 1.063 1.857 1.423 1.655 1.581 1.58 1.846 1.091 1.847 .276 1.251-1.845 1.514-2.849 1.479-2.886 1.39-2.924 1.354-2.924 .767-1.925 .641 .186 .428 .78 .375 .832 .186 1.045 .126 1.081 .082 1.109-.067 .471 0 0" fill="#ffffff"/>
<path transform="matrix(1,0,0,-1,250.9512,414.3456)" stroke-width=".28" stroke-linecap="butt" stroke-miterlimit="4" stroke-linejoin="miter" fill="none" stroke="#5b186a" d="M0 0C-.054-.019-.092-.025-.133-.025-.212 .145-.518 .894-.617 1.777-3.244 4.063 .469 7.449 2.924 4.917 4.337 3.416 3.96 1.127 4.201-.821 4.865 .157 5.296-.147 5.845 .765 5.917 .765 6.044 .68 6.044 .68 5.761-.137 4.831-2.55 4.831-2.55L4.924-2.675C5.452-1.551 6.234-1.689 6.721-.843 6.786-.876 6.917-.943 6.917-.943L5.835-3.697C5.878-3.743 5.945-3.794 5.945-3.794 6.271-3.174 6.909-3.298 7.504-2.526 7.574-2.55 7.673-2.615 7.673-2.615L6.936-4.572C7.827-5.444 12.381-6.21 10.921-9.536 9.755-11.528 7.38-10.913 5.443-10.465 4.868-9.969 4.35-9.522 4.051-9.295 3.779-9.165 3.595-9.09 3.595-9.09 3.583-9.094 3.578-9.11 3.593-9.11 3.682-9.153 4.007-9.288 4.036-9.311 4.087-9.329 5.363-10.387 6.57-11.542 6.84-11.766 8.021-12.678 8.084-12.678 8.167-12.678 8.54-12.633 8.576-12.668 8.732-12.764 9.272-13.422 9.279-13.596 9.297-13.85 9.208-13.831 9.472-14.081 9.957-14.531 11.267-16.222 11.901-16.705 11.899-16.738 11.875-16.855 11.836-16.892 11.303-17.029 10.983-16.697 10.909-17.708 11.501-18.048 11.897-17.851 11.618-18.683 11.704-18.832 12.075-19.083 12.18-19.156 11.991-19.468 11.106-19.025 10.953-18.931 10.817-18.796 10.596-18.281 10.521-18.21 10.43-18.208 10.402-18.23 10.402-18.23 10.384-18.314 10.462-19.013 10.343-19.13 10.172-19.23 9.915-19.302 9.704-19.281 9.566-19.521 9.581-20.033 9.581-20.033 9.177-19.826 9.22-19.509 9.275-18.763 9.322-18.615 9.765-18.138 9.763-18.056 9.761-18.025 9.728-17.941 9.706-17.947 9.489-18.033 8.812-18.253 8.726-18.165 8.597-18.04 8.443-17.882 8.429-17.65 8.245-17.607 7.911-17.621 7.564-17.691 7.649-17.179 8.171-17.22 8.819-16.96 9.192-17.08 9.704-17.4 9.863-17.335 9.928-17.347 10.103-17.093 10.133-16.875 9.829-16.125 7.475-14.511 7.147-14.33 7.131-14.324 7.124-14.318 7.118-14.314 6.16-13.92 4.307-14.412 2.864-13.862 2.427-13.545 1.874-13.153 1.759-12.893 1.473-11.694 2.019-10.864 1.383-9.208 1.363-9.209 1.375-9.206 1.357-9.223 2.001-10.811 1.466-11.547 1.729-12.901 1.947-13.278 2.694-13.751 2.859-13.879 3.146-13.999 3.763-14.143 4.208-14.143 4.537-14.888 4.247-15.29 4.903-15.701 4.342-16.976 4.633-16.824 3.649-16.966 2.295-17.964 1.617-17.986 .964-18.771 .9-18.8 .803-18.783 .731-18.744 .731-18.22 .895-18.083 .02-17.898-.136-18.57-.093-18.474-.633-18.871-1.28-19.138-1.152-19.187-1.514-18.984-1.299-18.849-1.162-18.796-1.001-18.583-1.331-18.138-1.316-18.242-.682-17.58-.705-17.539-.708-17.535-.775-17.492-1.64-17.957-1.463-17.943-1.711-17.753-1.883-17.57-1.785-17.619-1.883-17.382-2.117-17.406-2.148-17.363-2.602-17.619-2.61-17.267-2.56-17.347-2.113-16.994-1.724-16.726-1.448-16.636-.561-16.875-.536-16.849-.513-16.824-.5-16.794-.571-16.697-.937-16.333-.962-16.097-.912-15.982-.679-15.773-.642-15.746-.72-15.462-.923-15.322-1.109-15.156-.636-15.058-.591-15.222-.345-15.408 .294-16.136 .174-15.832 .206-16.845 .312-16.882 .843-17.179 .917-17.25 1.165-17.144 2.335-16.056 2.698-15.779 2.354-15.664 2.103-15.314 1.107-13.944 .376-12.766 .5-13.077 .828-11.868 .879-11.684 1.409-10.749 1.315-10.698 .723-10.399 .029-9.717-1.021-9.786-1.289-9.774-1.818-9.573-1.978-9.471-2.014-9.086-2.279-6.69-2.279-6.69-2.284-6.678-2.297-6.685-2.297-6.685L-1.592-13.11C-1.711-13.225-1.783-13.219-1.93-13.086-2.206-12.864-2.277-12.831-2.727-13.251-2.632-13.665-2.587-13.801-2.554-14.182-2.527-14.509-2.602-14.449-2.858-14.621-2.716-14.763-1.64-15.751-1.672-15.783-1.708-15.851-2.041-16.199-2.124-16.222-2.204-16.148-3.186-15.189-3.231-15.144-3.335-15.218-3.192-15.656-3.236-15.734-3.282-15.73-3.45-15.658-3.499-15.613-3.676-15.16-3.787-15.117-3.765-14.621-3.846-14.543-4.324-14.071-4.351-14.045-4.543-14.147-4.48-14.265-4.937-14.01-5.099-13.805-5.171-13.963-5.312-14.022-5.404-14.071-5.59-14.32-5.679-14.402-5.819-14.077-5.731-14.065-5.632-13.891-5.484-13.559-5.351-13.471-5.175-13.243-5.202-13.215-8.555-9.936-8.746-9.749-8.758-9.981-8.62-9.95-9.228-10.204-9.337-10.665-9.198-10.833-9.179-11.042-9.659-10.977-9.653-10.584-9.748-10.295-9.974-9.583-9.712-9.471-9.522-8.989-9.62-8.899-9.555-8.956-9.595-8.917-9.76-8.995-9.979-9.165-10.163-9.264-10.313-9.206-10.444-9.182-10.74-8.94-11.051-9.075-11.03-9.11-11.364-9.436-11.518-9.001-11.468-9.147-11.094-8.624-10.894-8.428-10.768-8.194-10.386-8.143-10.722-7.817-12.62-5.958-12.681-5.897-12.645-5.84-12.292-5.491-12.227-5.459-12.051-5.626-9.722-7.911-9.692-7.94-9.615-7.913-9.446-7.899-9.475-7.856-9.56-7.754-9.914-7.263-9.9-7.196-9.871-7.061-9.78-6.894-9.672-6.752-9.682-6.618-9.892-6.397-10.089-6.129-9.781-5.913-9.526-6.281-9.329-6.375-8.887-6.827-8.922-6.578-8.77-7.739-8.411-7.776-8.455-7.612-8.218-7.515-7.845-7.642-7.41-7.35-5.972-6.942-5.736-7.372-4.971-8.358-4.902-8.502-5.207-8.547-7.628-8.698-7.706-8.76-7.801-8.825-7.945-8.946-8.008-9.002-8.24-9.038-8.208-9.065-8.259-8.602-8.362-8.622-8.815-8.727-8.867-8.747-8.597-9.006-4.68-12.838-4.639-12.881-4.534-12.889-4.011-12.842-3.97-12.803-3.955-12.776-3.942-12.704-3.96-12.668-4.061-12.641-4.628-12.512-4.7-12.463-4.754-12.321-4.869-12.225-4.849-11.889-5.213-11.606-5.313-11.717-5.586-11.596-5.35-11.311-5.403-11.426-4.822-11.389-4.046-11.62-4.349-11.34-3.293-12.376-3.218-12.376-3.015-12.305-2.984-12.256-3.09-11.868-4.02-8.452-4.103-8.534-4.245-8.645-4.441-8.874-4.602-9.022-4.847-8.346-6.144-6.994-6.075-6.511-5.935-4.362-5.673-3.469-4.844-2.457-4.626-2.189-4.632-2.147-4.789-1.785-4.79-1.689-5.604-2.542-5.712-2.612-5.801-2.45-5.811-2.149-5.876-1.985-6.645-1.952-6.124-2.052-7.067-1.544-7.045-1.369-6.944-.447-6.955-.347-6.858-.284-4.172 1.331-4.107 1.398-3.896 1.574-3.692 1.717-3.501 1.465-3.23 1.169-3.297 .872-3.251 .638-1.322-1.022-1.407-3.757-.519-4.518-.664-4.618-.815-4.639-.929-4.703-.719-4.91 2.491-8.182 2.659-8.247 3.548-8.194 6.643-9.698 8.119-9.967 10.929-10.522 12.041-7.052 7.952-6.333 5.691-5.587 1.673-6.034 2.833-.678 3.361 2.425 3.295 2.969 2.844 3.948 1.022 6.893-2.12 4.012-.273 2.696 .615 3.2 .194 3.385 1.567 2.744 1.842 2.474 2.466 1.603 2.507 1.465 2.508 1.413 2.471 1.373 2.418 1.328 1.787 1.841 1.442 1.835 1.156 1.947 1.108 1.942 1.022 1.881 1.063 1.857 1.423 1.655 1.581 1.58 1.846 1.091 1.847 .276 1.251-1.845 1.514-2.849 1.479-2.886 1.39-2.924 1.354-2.924 .767-1.925 .641 .186 .428 .78 .375 .832 .186 1.045 .126 1.081 .082 1.109-.067 .471 0 0Z"/>
<path transform="matrix(1,0,0,-1,245.0293,416.079)" d="M0 0C.087-.045 .24-.106 .277-.106 .358-.052 1.071 .62 1.071 .62 1.071 .62 .8 .742 .788 .73 .702 .663 .024 .043 0 0" fill="#ffffff"/>
<path transform="matrix(1,0,0,-1,245.0293,416.079)" stroke-width=".28" stroke-linecap="butt" stroke-miterlimit="4" stroke-linejoin="miter" fill="none" stroke="#5b186a" d="M0 0C.087-.045 .24-.106 .277-.106 .358-.052 1.071 .62 1.071 .62 1.071 .62 .8 .742 .788 .73 .702 .663 .024 .043 0 0Z"/>
<path transform="matrix(1,0,0,-1,244.3804,415.69914)" d="M0 0C0-.069-.049-.194-.09-.234-.116-.225-.142-.222-.179-.183-.136-.131-.094-.023-.084 .05-.036 .036-.012 .016 0 0" fill="#ffffff"/>
<path transform="matrix(1,0,0,-1,244.3804,415.69914)" stroke-width=".28" stroke-linecap="butt" stroke-miterlimit="4" stroke-linejoin="miter" fill="none" stroke="#5b186a" d="M0 0C0-.069-.049-.194-.09-.234-.116-.225-.142-.222-.179-.183-.136-.131-.094-.023-.084 .05-.036 .036-.012 .016 0 0Z"/>
<path transform="matrix(1,0,0,-1,246.8545,413.45204)" d="M0 0C.035 .119 .036 .279 .332 .354 .537 .219 .47 .139 .498-.189 .482-.174 .491-.184 .465-.155 .444-.01 .523 .189 .314 .316 .219 .286 .097 .306 .027 0 .019 0 .023-.003 0 0" fill="#ffffff"/>
<path transform="matrix(1,0,0,-1,246.8545,413.45204)" stroke-width=".28" stroke-linecap="butt" stroke-miterlimit="4" stroke-linejoin="miter" fill="none" stroke="#5b186a" d="M0 0C.035 .119 .036 .279 .332 .354 .537 .219 .47 .139 .498-.189 .482-.174 .491-.184 .465-.155 .444-.01 .523 .189 .314 .316 .219 .286 .097 .306 .027 0 .019 0 .023-.003 0 0Z"/>
<path transform="matrix(1,0,0,-1,234.8379,422.11753)" d="M0 0C2.604 .442 2.875 .482 4.669 2.239 4.86 2.051 5.382 1.542 5.599 1.331 4.206-.168 3.852 .309 4.107-2.438 2.406-2.123 .392-.529 0 0" fill="#ffffff"/>
<path transform="matrix(1,0,0,-1,234.8379,422.11753)" stroke-width=".28" stroke-linecap="butt" stroke-miterlimit="4" stroke-linejoin="miter" fill="none" stroke="#5b186a" d="M0 0C2.604 .442 2.875 .482 4.669 2.239 4.86 2.051 5.382 1.542 5.599 1.331 4.206-.168 3.852 .309 4.107-2.438 2.406-2.123 .392-.529 0 0Z"/>
<path transform="matrix(1,0,0,-1,245.5869,414.1639)" d="M0 0C-.027 .016-.006 .016-.07 .023-.235-.055-.948-.469-1.164-.613-1.181-.669-1.249-.973-1.248-1.012-1.227-1.03-1.215-1.03-1.198-1.012-1.182-1-1.157-.73-1.12-.639-1.12-.639-1.025-.581-.956-.541-1.004-.617-.999-.727-.957-.781-.895-.866-.77-.855-.645-.763-.519-.669-.471-.541-.535-.462-.571-.417-.662-.374-.739-.398-.604-.295-.09-.003 0 0" fill="#ffffff"/>
<path transform="matrix(1,0,0,-1,245.5869,414.1639)" stroke-width=".28" stroke-linecap="butt" stroke-miterlimit="4" stroke-linejoin="miter" fill="none" stroke="#5b186a" d="M0 0C-.027 .016-.006 .016-.07 .023-.235-.055-.948-.469-1.164-.613-1.181-.669-1.249-.973-1.248-1.012-1.227-1.03-1.215-1.03-1.198-1.012-1.182-1-1.157-.73-1.12-.639-1.12-.639-1.025-.581-.956-.541-1.004-.617-.999-.727-.957-.781-.895-.866-.77-.855-.645-.763-.519-.669-.471-.541-.535-.462-.571-.417-.662-.374-.739-.398-.604-.295-.09-.003 0 0Z"/>
<path transform="matrix(1,0,0,-1,246.7739,418.6932)" d="M0 0C-1.228-1.361-1.091-.921-.581-3.023-.592-3.03-.594-3.016-.603-3.016-1.123-.908-1.232-1.344-.004 .02 0 .02 .002 .006 0 0" fill="#ffffff"/>
<path transform="matrix(1,0,0,-1,246.7739,418.6932)" stroke-width=".28" stroke-linecap="butt" stroke-miterlimit="4" stroke-linejoin="miter" fill="none" stroke="#5b186a" d="M0 0C-1.228-1.361-1.091-.921-.581-3.023-.592-3.03-.594-3.016-.603-3.016-1.123-.908-1.232-1.344-.004 .02 0 .02 .002 .006 0 0Z"/>
<path transform="matrix(1,0,0,-1,247.1142,427.9789)" d="M0 0C.009-.006 .24-.23 .255-.246 .29-.23 .416 .143 .412 .197 .381 .246 .339 .279 .306 .279 .272 .279 0 .027 0 0" fill="#ffffff"/>
<path transform="matrix(1,0,0,-1,247.1142,427.9789)" stroke-width=".28" stroke-linecap="butt" stroke-miterlimit="4" stroke-linejoin="miter" fill="none" stroke="#5b186a" d="M0 0C.009-.006 .24-.23 .255-.246 .29-.23 .416 .143 .412 .197 .381 .246 .339 .279 .306 .279 .272 .279 0 .027 0 0Z"/>
<path transform="matrix(1,0,0,-1,249.1811,474.64784)" d="M0 0C0-3.043-2.57-5.611-5.613-5.611H-52.319C-55.362-5.611-57.932-3.043-57.932 0V11.908C-57.932 14.949-55.362 17.522-52.319 17.522H-5.613C-2.57 17.522 0 14.949 0 11.908ZM-5.613 28.746H-52.318C-61.58 28.746-69.157 21.168-69.157 11.906V0C-69.157-9.262-61.58-16.84-52.318-16.84H-5.613C3.648-16.84 11.226-9.262 11.226 0V11.906C11.226 21.168 3.648 28.746-5.613 28.746" fill="#ffffff" fill-rule="evenodd"/>
<path transform="matrix(1,0,0,-1,249.1811,474.64784)" stroke-width="1" stroke-linecap="butt" stroke-miterlimit="4" stroke-linejoin="miter" fill="none" stroke="#5b186a" d="M0 0C0-3.043-2.57-5.611-5.613-5.611H-52.319C-55.362-5.611-57.932-3.043-57.932 0V11.908C-57.932 14.949-55.362 17.522-52.319 17.522H-5.613C-2.57 17.522 0 14.949 0 11.908V0ZM-5.613 28.746H-52.318C-61.58 28.746-69.157 21.168-69.157 11.906V0C-69.157-9.262-61.58-16.84-52.318-16.84H-5.613C3.648-16.84 11.226-9.262 11.226 0V11.906C11.226 21.168 3.648 28.746-5.613 28.746Z"/>
<path transform="matrix(1,0,0,-1,404.4189,474.64784)" d="M0 0C0-3.043-2.569-5.611-5.612-5.611H-52.317C-55.36-5.611-57.933-3.043-57.933 0V11.908C-57.933 14.949-55.36 17.522-52.317 17.522H-5.612C-2.569 17.522 0 14.949 0 11.908ZM-5.612 28.746H-52.317C-61.579 28.746-69.157 21.168-69.157 11.906V0C-69.157-9.262-61.579-16.84-52.317-16.84H-5.612C3.647-16.84 11.228-9.262 11.228 0V11.906C11.228 21.168 3.647 28.746-5.612 28.746" fill="#ffffff" fill-rule="evenodd"/>
<path transform="matrix(1,0,0,-1,404.4189,474.64784)" stroke-width="1" stroke-linecap="butt" stroke-miterlimit="4" stroke-linejoin="miter" fill="none" stroke="#5b186a" d="M0 0C0-3.043-2.569-5.611-5.612-5.611H-52.317C-55.36-5.611-57.933-3.043-57.933 0V11.908C-57.933 14.949-55.36 17.522-52.317 17.522H-5.612C-2.569 17.522 0 14.949 0 11.908V0ZM-5.612 28.746H-52.317C-61.579 28.746-69.157 21.168-69.157 11.906V0C-69.157-9.262-61.579-16.84-52.317-16.84H-5.612C3.647-16.84 11.228-9.262 11.228 0V11.906C11.228 21.168 3.647 28.746-5.612 28.746Z"/>
<path transform="matrix(1,0,0,-1,303.6865,517.349)" d="M0 0C3.042 0 5.612-2.568 5.612-5.611V-52.316C5.612-55.359 3.042-57.93 0-57.93H-11.908C-14.951-57.93-17.521-55.359-17.521-52.316V-5.611C-17.521-2.568-14.951 0-11.908 0ZM-28.747-5.611V-52.316C-28.747-61.578-21.169-69.156-11.908-69.156H0C9.261-69.156 16.839-61.578 16.839-52.316V-5.611C16.839 3.648 9.261 11.229 0 11.229H-11.908C-21.169 11.229-28.747 3.648-28.747-5.611" fill="#ffffff" fill-rule="evenodd"/>
<path transform="matrix(1,0,0,-1,303.6865,517.349)" stroke-width="1" stroke-linecap="butt" stroke-miterlimit="4" stroke-linejoin="miter" fill="none" stroke="#5b186a" d="M0 0C3.042 0 5.612-2.568 5.612-5.611V-52.316C5.612-55.359 3.042-57.93 0-57.93H-11.908C-14.951-57.93-17.521-55.359-17.521-52.316V-5.611C-17.521-2.568-14.951 0-11.908 0H0ZM-28.747-5.611V-52.316C-28.747-61.578-21.169-69.156-11.908-69.156H0C9.261-69.156 16.839-61.578 16.839-52.316V-5.611C16.839 3.648 9.261 11.229 0 11.229H-11.908C-21.169 11.229-28.747 3.648-28.747-5.611Z"/>
<path transform="matrix(1,0,0,-1,303.6865,362.10923)" d="M0 0C3.042 0 5.612-2.57 5.612-5.613V-52.319C5.612-55.362 3.042-57.932 0-57.932H-11.908C-14.951-57.932-17.521-55.362-17.521-52.319V-5.613C-17.521-2.57-14.951 0-11.908 0ZM-28.747-5.613V-52.318C-28.747-61.581-21.169-69.158-11.908-69.158H0C9.261-69.158 16.839-61.581 16.839-52.318V-5.613C16.839 3.647 9.261 11.225 0 11.225H-11.908C-21.169 11.225-28.747 3.647-28.747-5.613" fill="#ffffff" fill-rule="evenodd"/>
<path transform="matrix(1,0,0,-1,303.6865,362.10923)" stroke-width="1" stroke-linecap="butt" stroke-miterlimit="4" stroke-linejoin="miter" fill="none" stroke="#5b186a" d="M0 0C3.042 0 5.612-2.57 5.612-5.613V-52.319C5.612-55.362 3.042-57.932 0-57.932H-11.908C-14.951-57.932-17.521-55.362-17.521-52.319V-5.613C-17.521-2.57-14.951 0-11.908 0H0ZM-28.747-5.613V-52.318C-28.747-61.581-21.169-69.158-11.908-69.158H0C9.261-69.158 16.839-61.581 16.839-52.318V-5.613C16.839 3.647 9.261 11.225 0 11.225H-11.908C-21.169 11.225-28.747 3.647-28.747-5.613Z"/>
<path transform="matrix(1,0,0,-1,349.543,475.5248)" d="M0 0H-103.646C-107.387 0-110.448 3.061-110.448 6.803V6.812C-110.448 10.553-107.387 13.613-103.646 13.613H0C3.74 13.613 6.803 10.553 6.803 6.812V6.803C6.803 3.061 3.74 0 0 0" fill="#ffffff" fill-rule="evenodd"/>
<path transform="matrix(1,0,0,-1,349.543,475.5248)" stroke-width="1" stroke-linecap="butt" stroke-miterlimit="4" stroke-linejoin="miter" fill="none" stroke="#5b186a" d="M0 0H-103.646C-107.387 0-110.448 3.061-110.448 6.803V6.812C-110.448 10.553-107.387 13.613-103.646 13.613H0C3.74 13.613 6.803 10.553 6.803 6.812V6.803C6.803 3.061 3.74 0 0 0Z"/>
<path transform="matrix(1,0,0,-1,304.5273,416.89543)" d="M0 0V-103.645C0-107.385-3.063-110.448-6.803-110.448H-6.812C-10.554-110.448-13.615-107.385-13.615-103.645V0C-13.615 3.741-10.554 6.802-6.812 6.802H-6.803C-3.063 6.802 0 3.741 0 0" fill="#ffffff" fill-rule="evenodd"/>
<path transform="matrix(1,0,0,-1,304.5273,416.89543)" stroke-width="1" stroke-linecap="butt" stroke-miterlimit="4" stroke-linejoin="miter" fill="none" stroke="#5b186a" d="M0 0V-103.645C0-107.385-3.063-110.448-6.803-110.448H-6.812C-10.554-110.448-13.615-107.385-13.615-103.645V0C-13.615 3.741-10.554 6.802-6.812 6.802H-6.803C-3.063 6.802 0 3.741 0 0Z"/>
</g>
</g>
</g>
</svg>
