<svg id="Hovedlogo" xmlns="http://www.w3.org/2000/svg" viewBox="0 0 2220 1090"><defs><style>.cls-1{fill:#007ac1;}.cls-2{fill:#0079c1;}.cls-3{fill:#fefefe;}.cls-4{fill:#057bc2;}</style></defs><title>Stående nettsidelogo</title><path class="cls-1" d="M175.05,968.62v93.22H150.89l-3.9-17.09a48.6,48.6,0,0,1-20.5,15.87q-12.69,5.36-29,5.36-24.65,0-43.8-11.22a77.39,77.39,0,0,1-29.77-31.36q-10.62-20.13-10.62-46,0-25.63,10.5-46.25A78.25,78.25,0,0,1,53.41,899q19.16-11.58,44-11.59,26.35,0,46.73,13.18t29.89,37.58l-31.72,12.44Q137,935.68,125,927.87T97,920.06q-22.93,0-36.11,14.76T47.67,976.67q0,27.58,14,42T99.89,1033q19.27,0,30-8.54a27.31,27.31,0,0,0,10.73-22.45v-2.44H103.31v-31Z"/><path class="cls-1" d="M207.62,1050.49q-15.74-15.49-17.44-42.58L224.1,1004q1,15.87,6.83,22.94t17.81,7.08q12.69,0,18.3-8.18t5.62-24.52V923.23H209.94V891.75h97.12v111.52q0,19.28-7.07,33.43a50.31,50.31,0,0,1-20.26,21.72q-13.17,7.56-31,7.56Q223.36,1066,207.62,1050.49Z"/><path class="cls-1" d="M489.46,940.8a108.6,108.6,0,0,1,5.74,36.12q0,26.36-10.37,46.61a75.56,75.56,0,0,1-29.16,31.35q-18.8,11.1-42.95,11.1-25.38,0-45.39-12.68l-6.59,8.54H337.32l15.62-20.75a84.23,84.23,0,0,1-16.6-28.3,105.8,105.8,0,0,1-5.85-35.87q0-26.59,10.37-46.85a75.68,75.68,0,0,1,29-31.36q18.67-11.1,42.83-11.1,26.11,0,45.88,12.93l6.58-8.79h23.43l-15.62,21A80.28,80.28,0,0,1,489.46,940.8ZM374.17,1013l64.17-85.4q-10.74-7.08-25.62-7.08-22,0-34.89,15.13t-12.94,41.24Q364.89,998.88,374.17,1013Zm73.44,4.88q12.94-15.12,12.94-41,0-21.48-9-35.87l-63.93,85.16a46.51,46.51,0,0,0,25.13,6.83Q434.68,1033,447.61,1017.91Z"/><path class="cls-1" d="M657.23,891.75l-68.09,170.09H563.52L495.2,891.75h38.06l43.19,113.47,42.71-113.47Z"/><path class="cls-1" d="M675.53,891.75h34.4v170.09h-34.4Z"/><path class="cls-1" d="M861,1061.84l-48.81-81.51-29,29.53v52H748.73V891.75h34.41v74.92l71.49-74.92h45.15L835.6,956.91l65.15,104.93Z"/><path class="cls-1" d="M1091.57,1061.84l-48.8-81.51-29,29.53v52h-34.4V891.75h34.4v74.92l71.5-74.92h45.14l-64.17,65.16,65.15,104.93Z"/><path class="cls-1" d="M1164.9,1054.76a76.72,76.72,0,0,1-29-31.36q-10.38-20.13-10.38-46.48,0-26.59,10.38-46.85a75.68,75.68,0,0,1,29-31.36q18.67-11.1,42.83-11.1,24.39,0,43.07,11.1a75.77,75.77,0,0,1,29,31.36q10.37,20.25,10.37,46.85,0,26.36-10.37,46.61a75.56,75.56,0,0,1-29.16,31.35q-18.79,11.1-43,11.1T1164.9,1054.76Zm77.72-36.85q12.93-15.12,12.94-41,0-26.11-12.94-41.24t-34.89-15.13q-22,0-34.9,15.13t-12.93,41.24q0,26.12,12.93,41.11t34.9,15Q1229.69,1033,1242.62,1017.91Z"/><path class="cls-1" d="M1495.91,891.75v170.09h-34.4V940.31L1423,1046.71h-33.19l-38.31-105.66v120.79h-34.4V891.75h49l40,114.45,40.51-114.45Z"/><path class="cls-1" d="M1713.58,891.75v170.09h-34.41V940.31l-38.55,106.4h-33.19l-38.31-105.66v120.79h-34.41V891.75h49l40,114.45,40.51-114.45Z"/><path class="cls-1" d="M1748.72,1000.34V891.75h34.4V996.44q0,13.66,2.81,21.59a20.72,20.72,0,0,0,9.64,11.72q6.83,3.78,19.28,3.78,18,0,25-8.54t7-28.31V891.75h34.41V999.12q0,33.43-16.72,50.15T1814.85,1066Q1748.72,1066,1748.72,1000.34Z"/><path class="cls-1" d="M2054,891.75v170.09H2018.6l-67.6-111v111h-34.4V891.75h35.14l67.83,110.3V891.75Z"/><path class="cls-1" d="M2093,891.75h113.72v31.48h-79.31v34.9h74.42v31.72h-74.42v40.26h79.31v31.73H2093Z"/><path class="cls-2" d="M829.88,24V454C829.13,608.2,963.12,724,1121,724c142.84,0,275.14-116.93,275.14-270.33.76-139.75-.15-281,0-422V24H829.88"/><path class="cls-3" d="M973.45,629.09c-20.65.35-34.46-8-46.74-22.11-43.36-49.92-50.45-133.68-16.89-194.67,17.65-32.07,41.95-58.94,66.09-86,21.87-24.49,44.71-48.22,61.31-76.89,14.14-24.42,23.8-50.47,21.76-79-2.63-36.75-18.61-48-47.17-46.51-27.7,1.46-55.51.8-83.28.72-7.33,0-14.26,1.7-21.8,4.31-2.66-9.67.91-15.42,7.74-19.38a80.77,80.77,0,0,1,13.94-6.07c19.86-6.91,41.65-11.36,43.21-35.32,10.3-8.53,17.66-.49,27.07-1.65,16.21-27.56,41.79-21.78,66.44-13.76,29.41,9.56,43.22,33.19,49,62.06,6.88,34.53-.87,67.49-12.16,99.83-14.11,40.43-36.11,76.59-60.93,111.22-17.81,24.84-36.39,49.18-51.22,76-10.58,19.14-17.27,39.36-15.47,61.65,1.37,17.1,9.06,29,20.65,32.07,13.65,3.59,24.61-1.92,34.53-18.45,14.49-24.14,20.35-51.41,26.83-78.3C1070.5,340,1090.24,283.75,1129,236c28-34.55,60.19-64.54,98.81-87.25,44.22-26,90.48-49.25,124.25-92.4,6.33,14.92,3.31,26.67-1.85,38-7.64,16.83-20.09,30-33.66,42.18-40,36-83.21,68.3-119.75,108.1a240.16,240.16,0,0,0-43.51,66.47c-5.09,11.62-7.57,23.54-4.35,35.86,7.89,4.67,12.33.64,15.8-5.08a112.82,112.82,0,0,0,6.86-13.63q37.32-86.13,117.79-134.43c22.7-13.7,46.26-26.09,66-44.85,3.24,12.56,1.88,22.28-5.4,36.87-13,26.07-34.18,44.65-56.6,62.29-37.26,29.32-65.11,65.87-82,110.35-3.38,8.88-7,18.21,2.33,26.86,8.68-.2,12.63-6.22,16-12.87,4.28-8.6,8.5-17.23,12.53-26,21.77-47.11,58.29-79.66,103.3-104.75,3.37,11.39-1.09,21.15-5.53,30.77-7.65,16.57-18.68,31.07-29.77,45.35-21.05,27.12-33.62,57.2-36.58,91.62-2.13,24.7-12.65,46.59-27.88,66.3,32.54,14.46,62,9,84.87-14.73,16.35-17,23.42-20.07,39.88-16.4-20.41,24.13-26.19,53.43-32.64,82.65-8.74,39.56-24.38,75.39-59.84,101.26Z"/><path class="cls-4" d="M1017.46,78.35c-3.43,17-5.25,17.86-22.84,12.42C998.55,80.58,1007,79.77,1017.46,78.35Z"/></svg>