<svg width="486" height="98" viewBox="0 0 486 98" fill="none" xmlns="http://www.w3.org/2000/svg">
<path d="M68.2717 3.71387C64.1913 -0.381103 57.5748 -0.381103 53.4943 3.71387L38.8733 18.3869C42.8049 14.2818 42.7645 7.75819 38.732 3.71387C34.6516 -0.381103 28.0351 -0.381103 23.9546 3.71387L3.06033 24.6851C-1.02011 28.7801 -1.02011 35.4201 3.06033 39.5151C7.14078 43.6101 13.7573 43.6101 17.8377 39.5151L32.4587 24.8421C28.5271 28.9472 28.5675 35.4708 32.6 39.5151C36.6805 43.6101 43.297 43.6101 47.3774 39.5151L68.2742 18.5439C72.3547 14.4489 72.3547 7.80884 68.2742 3.71387H68.2717Z" fill="#015945"/>
<path d="M127.689 13.7905V1.54865H133.506V41.9032H126.559L114.189 22.3502C110.575 16.6826 107.958 12.3571 106.338 9.37138C106.487 13.869 106.565 20.6332 106.565 29.6614V41.9032H100.691V1.54865H107.638L120.063 21.1017C123.415 26.43 126.031 30.7756 127.914 34.1362C127.762 29.6031 127.687 22.8212 127.687 13.788L127.689 13.7905Z" fill="#015945"/>
<path d="M163.722 38.3907C161.049 41.1865 157.567 42.5844 153.275 42.5844C148.982 42.5844 145.5 41.1865 142.825 38.3907C140.15 35.5949 138.815 31.8924 138.815 27.2808C138.815 22.6692 140.15 18.9111 142.825 16.1153C145.459 13.3574 148.944 11.9772 153.275 11.9772C157.605 11.9772 161.087 13.3574 163.722 16.1153C166.356 18.8731 167.676 22.5958 167.676 27.2808C167.676 31.9659 166.359 35.6328 163.722 38.3907ZM147.004 34.9339C148.548 36.7851 150.638 37.712 153.272 37.712C155.907 37.712 157.988 36.7876 159.513 34.9339C161.037 33.0827 161.799 30.5325 161.799 27.2834C161.799 24.0342 161.037 21.484 159.513 19.6328C157.988 17.7816 155.907 16.8547 153.272 16.8547C150.638 16.8547 148.546 17.7816 147.004 19.6328C145.459 21.484 144.687 24.0342 144.687 27.2834C144.687 30.5325 145.459 33.0852 147.004 34.9339Z" fill="#015945"/>
<path d="M187.16 12.2052C187.987 12.2052 188.535 12.2255 188.797 12.2609V17.6449H187.387C184.487 17.6449 182.246 18.3641 180.667 19.8C179.085 21.2359 178.295 23.3151 178.295 26.0349V41.9058H172.647V12.6585H178.07V17.8728C179.915 14.0944 182.945 12.2052 187.162 12.2052H187.16Z" fill="#015945"/>
<path d="M202.747 42.6401C194.652 42.6401 190.397 39.2973 189.983 32.6091H195.631C195.858 34.6503 196.514 36.0862 197.607 36.9168C198.699 37.7474 200.431 38.1628 202.803 38.1628C207.095 38.1628 209.24 36.8028 209.24 34.083C209.24 32.913 208.788 32.0038 207.885 31.3631C206.981 30.7199 205.361 30.1931 203.027 29.7753L200.034 29.208C193.859 28.0735 190.771 25.1662 190.771 20.4787C190.771 17.8702 191.767 15.8012 193.764 14.2716C195.76 12.742 198.508 11.9772 202.01 11.9772C210.03 11.9772 214.133 15.2466 214.322 21.7829H208.844C208.73 19.8177 208.127 18.4299 207.037 17.617C205.944 16.8041 204.269 16.3989 202.01 16.3989C200.203 16.3989 198.81 16.7382 197.831 17.4195C196.852 18.0982 196.363 19.063 196.363 20.309C196.363 21.441 196.794 22.3198 197.662 22.9453C198.528 23.5683 199.903 24.0697 201.786 24.447L204.837 24.956C208.412 25.6373 210.991 26.6553 212.573 28.0178C214.156 29.3777 214.946 31.2669 214.946 33.6854C214.946 36.5192 213.873 38.7224 211.726 40.29C209.578 41.8576 206.585 42.6427 202.745 42.6427L202.747 42.6401Z" fill="#015945"/>
<path d="M245.331 41.9032H238.835L229.572 27.1112L224.714 31.8722V41.9032H219.122V1.54865H224.714V25.3537L237.533 12.6585H244.594L233.581 23.429L245.328 41.9058L245.331 41.9032Z" fill="#015945"/>
<path d="M274.699 11.9773C277.898 11.9773 280.402 12.8763 282.208 14.6693C284.015 16.4648 284.919 19.0048 284.919 22.2919V41.9032H279.271V23.0871C279.271 19.0073 277.217 16.9662 273.114 16.9662C271.231 16.9662 269.536 17.6854 268.032 19.1188C266.525 20.5927 265.773 22.6895 265.773 25.4094V41.9032H260.126V1.54865H265.773V16.6826C267.994 13.5474 270.969 11.9798 274.696 11.9798L274.699 11.9773Z" fill="#015945"/>
<path d="M317.62 27.5087V29.1523H295.651C295.913 32.0241 296.761 34.1868 298.192 35.643C299.623 37.0991 301.561 37.8259 304.009 37.8259C307.698 37.8259 310.108 36.2026 311.238 32.951H316.942C316.152 35.9367 314.617 38.2894 312.339 40.0064C310.06 41.7259 307.246 42.5844 303.895 42.5844C299.716 42.5844 296.345 41.1865 293.786 38.3907C291.225 35.5949 289.945 31.8924 289.945 27.2808C289.945 22.6692 291.225 18.9693 293.786 16.171C296.345 13.3751 299.678 11.9772 303.782 11.9772C307.885 11.9772 311.463 13.4309 313.949 16.3406C316.396 19.2504 317.62 22.9731 317.62 27.5062V27.5087ZM303.784 16.7408C301.561 16.7408 299.747 17.422 298.333 18.7819C296.923 20.1419 296.047 22.107 295.707 24.6775H311.801C311.539 22.297 310.698 20.3799 309.288 18.9237C307.877 17.4701 306.04 16.7408 303.782 16.7408H303.784Z" fill="#015945"/>
<path d="M328.294 41.9032H322.647V1.54865H328.294V41.9032Z" fill="#015945"/>
<path d="M345.406 42.6401C337.311 42.6401 333.056 39.2973 332.642 32.6091H338.29C338.517 34.6503 339.173 36.0862 340.266 36.9168C341.359 37.7474 343.09 38.1628 345.462 38.1628C349.754 38.1628 351.899 36.8028 351.899 34.083C351.899 32.913 351.447 32.0038 350.544 31.3631C349.641 30.7199 348.02 30.1931 345.686 29.7753L342.693 29.208C336.519 28.0735 333.43 25.1662 333.43 20.4787C333.43 17.8702 334.427 15.8012 336.423 14.2716C338.419 12.742 341.167 11.9772 344.669 11.9772C352.689 11.9772 356.792 15.2466 356.981 21.7829H351.503C351.389 19.8177 350.786 18.4299 349.696 17.617C348.603 16.8041 346.928 16.3989 344.669 16.3989C342.863 16.3989 341.47 16.7382 340.49 17.4195C339.511 18.0982 339.022 19.063 339.022 20.309C339.022 21.441 339.453 22.3198 340.321 22.9453C341.187 23.5683 342.562 24.0697 344.445 24.447L347.496 24.956C351.071 25.6373 353.65 26.6553 355.233 28.0178C356.815 29.3777 357.605 31.2669 357.605 33.6854C357.605 36.5192 356.532 38.7224 354.385 40.29C352.237 41.8576 349.244 42.6427 345.404 42.6427L345.406 42.6401Z" fill="#015945"/>
<path d="M388.103 27.5087V29.1523H366.134C366.396 32.0241 367.244 34.1868 368.675 35.643C370.106 37.0991 372.044 37.8259 374.492 37.8259C378.181 37.8259 380.591 36.2026 381.721 32.951H387.424C386.635 35.9367 385.1 38.2894 382.822 40.0064C380.543 41.7259 377.729 42.5844 374.378 42.5844C370.199 42.5844 366.828 41.1865 364.269 38.3907C361.708 35.5949 360.428 31.8924 360.428 27.2808C360.428 22.6692 361.708 18.9693 364.269 16.171C366.828 13.3751 370.161 11.9772 374.264 11.9772C378.368 11.9772 381.946 13.4309 384.432 16.3406C386.879 19.2504 388.103 22.9731 388.103 27.5062V27.5087ZM374.267 16.7408C372.044 16.7408 370.229 17.422 368.816 18.7819C367.406 20.1419 366.53 22.107 366.189 24.6775H382.284C382.022 22.297 381.181 20.3799 379.771 18.9237C378.36 17.4701 376.523 16.7408 374.264 16.7408H374.267Z" fill="#015945"/>
<path d="M407.701 11.9772C410.9 11.9772 413.404 12.8763 415.21 14.6692C417.017 16.4647 417.921 19.0048 417.921 22.2919V41.9032H412.273V23.0871C412.273 19.0073 410.219 16.9662 406.116 16.9662C404.233 16.9662 402.537 17.6854 401.034 19.1187C399.527 20.5926 398.775 22.6895 398.775 25.4093V41.9032H393.128V12.6585H398.55V17.0219C400.771 13.6588 403.822 11.9772 407.701 11.9772Z" fill="#015945"/>
<path d="M450.622 27.5087V29.1523H428.653C428.915 32.0241 429.763 34.1868 431.194 35.643C432.625 37.0991 434.563 37.8259 437.011 37.8259C440.7 37.8259 443.11 36.2026 444.24 32.951H449.943C449.154 35.9367 447.619 38.2894 445.341 40.0064C443.062 41.7259 440.248 42.5844 436.897 42.5844C432.718 42.5844 429.347 41.1865 426.788 38.3907C424.227 35.5949 422.947 31.8924 422.947 27.2808C422.947 22.6692 424.227 18.9693 426.788 16.171C429.347 13.3751 432.68 11.9772 436.784 11.9772C440.887 11.9772 444.465 13.4309 446.951 16.3406C449.398 19.2504 450.622 22.9731 450.622 27.5062V27.5087ZM436.786 16.7408C434.563 16.7408 432.749 17.422 431.335 18.7819C429.925 20.1419 429.049 22.107 428.708 24.6775H444.803C444.541 22.297 443.7 20.3799 442.29 18.9237C440.879 17.4701 439.042 16.7408 436.784 16.7408H436.786Z" fill="#015945"/>
<path d="M484 17.3056V12.6585H478.125V4.27106H472.478V12.6585H462.028V4.27106H456.381V12.6585H451.692V17.3056H456.381V35.3847C456.381 37.7272 457.039 39.4291 458.356 40.4851C459.674 41.5436 461.708 42.0729 464.456 42.0729C465.508 42.0729 466.659 42.0172 467.9 41.9033V37.3702H465.359C464.153 37.3702 463.297 37.1726 462.79 36.775C462.28 36.3774 462.028 35.7469 462.028 34.8757V17.3056H472.478V35.3847C472.478 37.7272 473.136 39.4291 474.454 40.4851C475.771 41.5436 477.805 42.0729 480.553 42.0729C481.605 42.0729 482.756 42.0172 483.997 41.9033V37.3702H481.456C480.25 37.3702 479.395 37.1726 478.887 36.775C478.378 36.3774 478.125 35.7469 478.125 34.8757V17.3056H484Z" fill="#015945"/>
<path d="M115.337 77.2396V68.1566H118.22V90.2286H115.337V79.7506H103.65V90.2286H100.767V68.1566H103.65V77.2396H115.337ZM137.576 81.8586V82.9126H125.579C125.672 86.5086 127.532 88.2756 130.415 88.2756C132.647 88.2756 134.011 87.2216 134.755 85.3616L137.359 85.6716C136.336 88.8026 133.732 90.6006 130.322 90.6006C125.548 90.6006 122.727 87.0976 122.727 82.1686C122.727 77.2706 125.486 73.8606 130.26 73.8606C134.755 73.8606 137.576 76.8676 137.576 81.8586ZM130.291 76.1856C127.749 76.1856 125.889 77.7356 125.61 80.8666H134.91C134.538 77.8286 132.895 76.1856 130.291 76.1856ZM144.772 90.2286H141.92V68.1566H144.772V90.2286ZM155.434 90.6316C151.435 90.6316 149.172 88.8646 148.8 85.2996L151.497 85.1756C151.776 87.4076 153.109 88.3376 155.558 88.3376C158.162 88.3376 159.402 87.3456 159.402 85.8266C159.402 84.5556 158.534 83.8426 156.86 83.5016L153.636 82.8196C150.536 82.1686 149.203 80.7426 149.203 78.4796C149.203 75.6896 151.218 73.8606 155.155 73.8606C158.72 73.8606 161.2 75.4106 161.665 78.7586L158.844 78.8826C158.534 77.0536 157.325 76.1236 155.062 76.1236C153.047 76.1236 151.838 76.8056 151.838 78.2316C151.838 79.2546 152.427 79.9676 154.318 80.3706L157.418 81.0526C160.735 81.7966 162.13 83.2536 162.13 85.5786C162.13 88.7096 159.65 90.6316 155.434 90.6316ZM179.92 81.8586V82.9126H167.923C168.016 86.5086 169.876 88.2756 172.759 88.2756C174.991 88.2756 176.355 87.2216 177.099 85.3616L179.703 85.6716C178.68 88.8026 176.076 90.6006 172.666 90.6006C167.892 90.6006 165.071 87.0976 165.071 82.1686C165.071 77.2706 167.83 73.8606 172.604 73.8606C177.099 73.8606 179.92 76.8676 179.92 81.8586ZM172.635 76.1856C170.093 76.1856 168.233 77.7356 167.954 80.8666H177.254C176.882 77.8286 175.239 76.1856 172.635 76.1856ZM192.014 83.4706H183.334V80.8976H192.014V83.4706ZM211.773 90.6316C207.185 90.6316 204.085 87.2526 204.085 82.2306C204.085 77.0846 207.278 73.8296 211.866 73.8296C216.33 73.8296 219.492 77.0226 219.492 82.1066C219.492 87.1286 216.268 90.6316 211.773 90.6316ZM211.773 88.2446C214.873 88.2446 216.64 85.7336 216.64 82.1066C216.64 78.4796 214.873 76.2166 211.773 76.2166C208.735 76.2166 206.937 78.6036 206.937 82.2306C206.937 85.8576 208.766 88.2446 211.773 88.2446ZM234.982 76.7126V74.2326H237.648V89.7016C237.648 94.8476 234.672 96.9246 230.146 96.9246C226.426 96.9246 223.822 95.4986 223.388 92.2436H226.178C226.612 94.0416 227.976 94.6616 230.239 94.6616C233.525 94.6616 234.889 93.3286 234.889 89.9806V87.9036C233.897 89.4536 232.099 90.5696 229.867 90.5696C225.527 90.5696 222.892 86.9426 222.892 81.9826C222.892 77.1466 225.744 73.8916 229.805 73.8916C232.13 73.8916 234.021 74.9766 234.982 76.7126ZM230.146 88.1206C232.812 88.1206 234.796 85.8266 234.796 82.0446C234.796 78.2626 232.874 76.3406 230.208 76.3406C227.449 76.3406 225.744 78.3246 225.744 81.9826C225.744 85.7026 227.387 88.1206 230.146 88.1206ZM269.702 68.1566L260.371 77.0536L270.322 90.2286H266.726L261.177 82.7266L258.356 78.8826L254.636 82.5096V90.2286H251.753V68.1566H254.636V78.9756L265.858 68.1566H269.702ZM279.857 90.6316C275.269 90.6316 272.169 87.2526 272.169 82.2306C272.169 77.0846 275.362 73.8296 279.95 73.8296C284.414 73.8296 287.576 77.0226 287.576 82.1066C287.576 87.1286 284.352 90.6316 279.857 90.6316ZM279.857 88.2446C282.957 88.2446 284.724 85.7336 284.724 82.1066C284.724 78.4796 282.957 76.2166 279.857 76.2166C276.819 76.2166 275.021 78.6036 275.021 82.2306C275.021 85.8576 276.85 88.2446 279.857 88.2446ZM308.894 73.8296C312.025 73.8296 313.792 75.5346 313.792 79.2546V90.2286H310.94V79.2856C310.94 77.4256 309.948 76.3096 308.181 76.3096C306.321 76.3096 304.275 77.4256 304.275 81.5486V90.2286H301.423V79.2856C301.423 77.4256 300.431 76.3096 298.664 76.3096C296.804 76.3096 294.758 77.5806 294.758 81.7036V90.2286H291.906V74.2326H294.572V76.4956C295.626 74.7906 297.176 73.8296 299.377 73.8296C301.547 73.8296 303.097 74.7906 303.81 76.6196C304.864 74.7596 306.569 73.8296 308.894 73.8296ZM336.057 73.8296C339.188 73.8296 340.955 75.5346 340.955 79.2546V90.2286H338.103V79.2856C338.103 77.4256 337.111 76.3096 335.344 76.3096C333.484 76.3096 331.438 77.4256 331.438 81.5486V90.2286H328.586V79.2856C328.586 77.4256 327.594 76.3096 325.827 76.3096C323.967 76.3096 321.921 77.5806 321.921 81.7036V90.2286H319.069V74.2326H321.735V76.4956C322.789 74.7906 324.339 73.8296 326.54 73.8296C328.71 73.8296 330.26 74.7906 330.973 76.6196C332.027 74.7596 333.732 73.8296 336.057 73.8296ZM356.833 83.1296V74.2326H359.685V90.2286H357.019V87.9656C355.934 89.6706 354.012 90.6316 351.656 90.6316C348.308 90.6316 346.231 88.7096 346.231 85.3306V74.2326H349.083V84.7726C349.083 86.9736 350.106 88.1516 352.276 88.1516C354.477 88.1516 356.833 86.9426 356.833 83.1296ZM372.977 73.8296C376.325 73.8296 378.402 75.7516 378.402 79.1306V90.2286H375.55V79.6886C375.55 77.4876 374.527 76.3096 372.357 76.3096C370.156 76.3096 367.8 77.5186 367.8 81.3316V90.2286H364.948V74.2326H367.614V76.4956C368.699 74.7906 370.621 73.8296 372.977 73.8296ZM397.583 81.8586V82.9126H385.586C385.679 86.5086 387.539 88.2756 390.422 88.2756C392.654 88.2756 394.018 87.2216 394.762 85.3616L397.366 85.6716C396.343 88.8026 393.739 90.6006 390.329 90.6006C385.555 90.6006 382.734 87.0976 382.734 82.1686C382.734 77.2706 385.493 73.8606 390.267 73.8606C394.762 73.8606 397.583 76.8676 397.583 81.8586ZM390.298 76.1856C387.756 76.1856 385.896 77.7356 385.617 80.8666H394.917C394.545 77.8286 392.902 76.1856 390.298 76.1856ZM411.412 90.7556C405.212 90.7556 401.43 85.8886 401.43 79.1926C401.43 72.4346 405.305 67.7536 411.381 67.7536C416 67.7536 419.782 70.4816 420.464 74.8216H417.519C416.837 71.9076 414.543 70.3266 411.505 70.3266C407.041 70.3266 404.375 73.6746 404.375 79.1926C404.375 84.7106 407.01 88.1826 411.505 88.1826C414.977 88.1826 417.364 86.1676 417.891 82.1996H420.743C419.999 87.5006 416.589 90.7556 411.412 90.7556ZM427.979 80.1226V87.7176H440.999V90.2286H425.096V68.1566H440.72V70.6676H427.979V77.6116H439.728V80.1226H427.979ZM462.392 83.1916L463.198 90.2286H460.284L459.633 84.3386C459.354 81.7346 458.238 80.7116 455.665 80.7116H448.845V90.2286H445.962V68.1566H456.192C460.408 68.1566 462.95 70.4506 462.95 73.9846C462.95 76.8366 461.338 78.8516 459.013 79.5026C460.935 79.8746 462.175 81.1456 462.392 83.1916ZM448.845 78.2006H455.2C458.207 78.2006 460.005 76.7746 460.005 74.2636C460.005 71.9386 458.486 70.6676 455.696 70.6676H448.845V78.2006ZM465.822 68.1566H483.461V70.6676H476.083V90.2286H473.2V70.6676H465.822V68.1566Z" fill="black"/>
</svg>
