<svg width="486" height="97" viewBox="0 0 486 97" fill="none" xmlns="http://www.w3.org/2000/svg">
<path d="M68.2717 3.07123C64.1913 -1.02374 57.5748 -1.02374 53.4943 3.07123L38.8734 17.7442C42.8049 13.6391 42.7645 7.11555 38.732 3.07123C34.6516 -1.02374 28.0351 -1.02374 23.9546 3.07123L3.06033 24.0424C-1.02011 28.1374 -1.02011 34.7775 3.06033 38.8725C7.14078 42.9674 13.7573 42.9674 17.8377 38.8725L32.4587 24.1995C28.5271 28.3046 28.5675 34.8281 32.6 38.8725C36.6805 42.9674 43.297 42.9674 47.3774 38.8725L68.2742 17.9013C72.3547 13.8063 72.3547 7.1662 68.2742 3.07123H68.2717Z" fill="white"/>
<path d="M127.689 13.1479V0.906006H133.506V41.2606H126.559L114.189 21.7075C110.575 16.0399 107.958 11.7145 106.338 8.72874C106.487 13.2264 106.565 19.9905 106.565 29.0187V41.2606H100.691V0.906006H107.638L120.063 20.459C123.415 25.7873 126.031 30.133 127.914 33.4936C127.763 28.9605 127.687 22.1786 127.687 13.1453L127.689 13.1479Z" fill="white"/>
<path d="M163.722 37.748C161.049 40.5439 157.567 41.9418 153.275 41.9418C148.982 41.9418 145.5 40.5439 142.825 37.748C140.15 34.9522 138.815 31.2498 138.815 26.6382C138.815 22.0266 140.15 18.2684 142.825 15.4726C145.459 12.7148 148.944 11.3346 153.275 11.3346C157.605 11.3346 161.087 12.7148 163.722 15.4726C166.356 18.2305 167.676 21.9532 167.676 26.6382C167.676 31.3232 166.359 34.9902 163.722 37.748ZM147.004 34.2913C148.548 36.1425 150.638 37.0693 153.272 37.0693C155.907 37.0693 157.988 36.145 159.513 34.2913C161.037 32.44 161.799 29.8899 161.799 26.6407C161.799 23.3916 161.037 20.8414 159.513 18.9902C157.988 17.139 155.907 16.2121 153.272 16.2121C150.638 16.2121 148.546 17.139 147.004 18.9902C145.459 20.8414 144.687 23.3916 144.687 26.6407C144.687 29.8899 145.459 32.4426 147.004 34.2913Z" fill="white"/>
<path d="M187.16 11.5626C187.987 11.5626 188.535 11.5828 188.797 11.6183V17.0023H187.387C184.487 17.0023 182.246 17.7215 180.667 19.1574C179.085 20.5933 178.295 22.6724 178.295 25.3923V41.2631H172.647V12.0159H178.07V17.2302C179.915 13.4518 182.945 11.5626 187.162 11.5626H187.16Z" fill="white"/>
<path d="M202.747 41.9975C194.652 41.9975 190.397 38.6547 189.983 31.9665H195.631C195.858 34.0076 196.514 35.4435 197.607 36.2742C198.699 37.1048 200.431 37.5201 202.803 37.5201C207.095 37.5201 209.24 36.1602 209.24 33.4403C209.24 32.2704 208.788 31.3612 207.885 30.7205C206.981 30.0773 205.361 29.5505 203.027 29.1326L200.034 28.5654C193.859 27.4308 190.771 24.5236 190.771 19.836C190.771 17.2276 191.767 15.1586 193.764 13.629C195.76 12.0994 198.508 11.3346 202.01 11.3346C210.03 11.3346 214.133 14.604 214.322 21.1402H208.844C208.73 19.1751 208.127 17.7873 207.037 16.9744C205.944 16.1614 204.269 15.7563 202.01 15.7563C200.203 15.7563 198.81 16.0956 197.831 16.7768C196.852 17.4555 196.363 18.4204 196.363 19.6664C196.363 20.7984 196.794 21.6771 197.662 22.3026C198.528 22.9256 199.903 23.427 201.786 23.8044L204.837 24.3134C208.412 24.9946 210.991 26.0127 212.573 27.3751C214.156 28.7351 214.946 30.6243 214.946 33.0428C214.946 35.8766 213.873 38.0798 211.726 39.6474C209.578 41.215 206.585 42 202.745 42L202.747 41.9975Z" fill="white"/>
<path d="M245.331 41.2606H238.835L229.571 26.4686L224.714 31.2296V41.2606H219.122V0.906006H224.714V24.711L237.533 12.0159H244.594L233.581 22.7864L245.328 41.2631L245.331 41.2606Z" fill="white"/>
<path d="M274.699 11.3346C277.898 11.3346 280.402 12.2337 282.208 14.0266C284.015 15.8221 284.919 18.3622 284.919 21.6493V41.2606H279.271V22.4445C279.271 18.3647 277.217 16.3236 273.114 16.3236C271.231 16.3236 269.536 17.0428 268.032 18.4761C266.525 19.95 265.773 22.0469 265.773 24.7667V41.2606H260.126V0.906006H265.773V16.0399C267.994 12.9048 270.969 11.3372 274.696 11.3372L274.699 11.3346Z" fill="white"/>
<path d="M317.62 26.8661V28.5097H295.651C295.913 31.3815 296.761 33.5442 298.192 35.0003C299.623 36.4565 301.561 37.1833 304.009 37.1833C307.698 37.1833 310.108 35.56 311.238 32.3083H316.941C316.152 35.2941 314.617 37.6467 312.339 39.3637C310.06 41.0833 307.246 41.9418 303.895 41.9418C299.716 41.9418 296.345 40.5439 293.786 37.748C291.225 34.9522 289.945 31.2498 289.945 26.6382C289.945 22.0266 291.225 18.3267 293.786 15.5283C296.345 12.7325 299.678 11.3346 303.782 11.3346C307.885 11.3346 311.463 12.7882 313.949 15.698C316.396 18.6078 317.62 22.3305 317.62 26.8636V26.8661ZM303.784 16.0981C301.561 16.0981 299.747 16.7794 298.333 18.1393C296.923 19.4992 296.047 21.4644 295.706 24.0348H311.801C311.539 21.6543 310.698 19.7373 309.288 18.2811C307.877 16.8275 306.04 16.0981 303.782 16.0981H303.784Z" fill="white"/>
<path d="M328.294 41.2606H322.647V0.906006H328.294V41.2606Z" fill="white"/>
<path d="M345.406 41.9975C337.311 41.9975 333.056 38.6547 332.642 31.9665H338.29C338.517 34.0076 339.173 35.4435 340.266 36.2742C341.359 37.1048 343.09 37.5201 345.462 37.5201C349.754 37.5201 351.899 36.1602 351.899 33.4403C351.899 32.2704 351.447 31.3612 350.544 30.7205C349.641 30.0773 348.02 29.5505 345.686 29.1326L342.693 28.5654C336.519 27.4308 333.43 24.5236 333.43 19.836C333.43 17.2276 334.427 15.1586 336.423 13.629C338.419 12.0994 341.167 11.3346 344.669 11.3346C352.689 11.3346 356.792 14.604 356.981 21.1402H351.503C351.389 19.1751 350.786 17.7873 349.696 16.9744C348.603 16.1614 346.928 15.7563 344.669 15.7563C342.863 15.7563 341.47 16.0956 340.49 16.7768C339.511 17.4555 339.022 18.4204 339.022 19.6664C339.022 20.7984 339.453 21.6771 340.321 22.3026C341.187 22.9256 342.562 23.427 344.445 23.8044L347.496 24.3134C351.071 24.9946 353.65 26.0127 355.233 27.3751C356.815 28.7351 357.605 30.6243 357.605 33.0428C357.605 35.8766 356.532 38.0798 354.385 39.6474C352.237 41.215 349.244 42 345.404 42L345.406 41.9975Z" fill="white"/>
<path d="M388.103 26.8661V28.5097H366.134C366.396 31.3815 367.244 33.5442 368.675 35.0003C370.106 36.4565 372.044 37.1833 374.492 37.1833C378.181 37.1833 380.591 35.56 381.721 32.3083H387.424C386.635 35.2941 385.1 37.6467 382.822 39.3637C380.543 41.0833 377.729 41.9418 374.378 41.9418C370.199 41.9418 366.828 40.5439 364.269 37.748C361.708 34.9522 360.428 31.2498 360.428 26.6382C360.428 22.0266 361.708 18.3267 364.269 15.5283C366.828 12.7325 370.161 11.3346 374.264 11.3346C378.368 11.3346 381.946 12.7882 384.432 15.698C386.879 18.6078 388.103 22.3305 388.103 26.8636V26.8661ZM374.267 16.0981C372.044 16.0981 370.229 16.7794 368.816 18.1393C367.406 19.4992 366.53 21.4644 366.189 24.0348H382.284C382.022 21.6543 381.181 19.7373 379.771 18.2811C378.36 16.8275 376.523 16.0981 374.264 16.0981H374.267Z" fill="white"/>
<path d="M407.7 11.3346C410.9 11.3346 413.403 12.2336 415.21 14.0266C417.017 15.8221 417.921 18.3621 417.921 21.6493V41.2605H412.273V22.4444C412.273 18.3647 410.219 16.3235 406.116 16.3235C404.233 16.3235 402.537 17.0427 401.033 18.4761C399.527 19.95 398.775 22.0469 398.775 24.7667V41.2605H393.127V12.0158H398.55V16.3792C400.771 13.0161 403.822 11.3346 407.7 11.3346V11.3346Z" fill="white"/>
<path d="M450.622 26.8661V28.5097H428.653C428.915 31.3815 429.763 33.5442 431.194 35.0003C432.625 36.4565 434.563 37.1833 437.011 37.1833C440.7 37.1833 443.11 35.56 444.24 32.3083H449.943C449.154 35.2941 447.619 37.6467 445.341 39.3637C443.062 41.0833 440.248 41.9418 436.897 41.9418C432.718 41.9418 429.347 40.5439 426.788 37.748C424.227 34.9522 422.947 31.2498 422.947 26.6382C422.947 22.0266 424.227 18.3267 426.788 15.5283C429.347 12.7325 432.68 11.3346 436.784 11.3346C440.887 11.3346 444.465 12.7882 446.951 15.698C449.398 18.6078 450.622 22.3305 450.622 26.8636V26.8661ZM436.786 16.0981C434.563 16.0981 432.749 16.7794 431.335 18.1393C429.925 19.4992 429.049 21.4644 428.708 24.0348H444.803C444.541 21.6543 443.7 19.7373 442.29 18.2811C440.879 16.8275 439.042 16.0981 436.784 16.0981H436.786Z" fill="white"/>
<path d="M484 16.6629V12.0159H478.125V3.62842H472.478V12.0159H462.028V3.62842H456.381V12.0159H451.692V16.6629H456.381V34.7421C456.381 37.0846 457.039 38.7864 458.356 39.8424C459.674 40.901 461.708 41.4303 464.456 41.4303C465.508 41.4303 466.659 41.3746 467.9 41.2606V36.7275H465.359C464.153 36.7275 463.297 36.53 462.79 36.1324C462.28 35.7348 462.028 35.1042 462.028 34.2331V16.6629H472.478V34.7421C472.478 37.0846 473.136 38.7864 474.454 39.8424C475.771 40.901 477.805 41.4303 480.553 41.4303C481.605 41.4303 482.756 41.3746 483.997 41.2606V36.7275H481.456C480.25 36.7275 479.395 36.53 478.887 36.1324C478.378 35.7348 478.125 35.1042 478.125 34.2331V16.6629H484Z" fill="white"/>
<path d="M115.337 76.5969V67.5139H118.22V89.5859H115.337V79.1079H103.65V89.5859H100.767V67.5139H103.65V76.5969H115.337ZM137.576 81.2159V82.2699H125.579C125.672 85.8659 127.532 87.6329 130.415 87.6329C132.647 87.6329 134.011 86.5789 134.755 84.7189L137.359 85.0289C136.336 88.1599 133.732 89.9579 130.322 89.9579C125.548 89.9579 122.727 86.4549 122.727 81.5259C122.727 76.6279 125.486 73.2179 130.26 73.2179C134.755 73.2179 137.576 76.2249 137.576 81.2159ZM130.291 75.5429C127.749 75.5429 125.889 77.0929 125.61 80.2239H134.91C134.538 77.1859 132.895 75.5429 130.291 75.5429ZM144.772 89.5859H141.92V67.5139H144.772V89.5859ZM155.434 89.9889C151.435 89.9889 149.172 88.2219 148.8 84.6569L151.497 84.5329C151.776 86.7649 153.109 87.6949 155.558 87.6949C158.162 87.6949 159.402 86.7029 159.402 85.1839C159.402 83.9129 158.534 83.1999 156.86 82.8589L153.636 82.1769C150.536 81.5259 149.203 80.0999 149.203 77.8369C149.203 75.0469 151.218 73.2179 155.155 73.2179C158.72 73.2179 161.2 74.7679 161.665 78.1159L158.844 78.2399C158.534 76.4109 157.325 75.4809 155.062 75.4809C153.047 75.4809 151.838 76.1629 151.838 77.5889C151.838 78.6119 152.427 79.3249 154.318 79.7279L157.418 80.4099C160.735 81.1539 162.13 82.6109 162.13 84.9359C162.13 88.0669 159.65 89.9889 155.434 89.9889ZM179.92 81.2159V82.2699H167.923C168.016 85.8659 169.876 87.6329 172.759 87.6329C174.991 87.6329 176.355 86.5789 177.099 84.7189L179.703 85.0289C178.68 88.1599 176.076 89.9579 172.666 89.9579C167.892 89.9579 165.071 86.4549 165.071 81.5259C165.071 76.6279 167.83 73.2179 172.604 73.2179C177.099 73.2179 179.92 76.2249 179.92 81.2159ZM172.635 75.5429C170.093 75.5429 168.233 77.0929 167.954 80.2239H177.254C176.882 77.1859 175.239 75.5429 172.635 75.5429ZM192.014 82.8279H183.334V80.2549H192.014V82.8279ZM211.773 89.9889C207.185 89.9889 204.085 86.6099 204.085 81.5879C204.085 76.4419 207.278 73.1869 211.866 73.1869C216.33 73.1869 219.492 76.3799 219.492 81.4639C219.492 86.4859 216.268 89.9889 211.773 89.9889ZM211.773 87.6019C214.873 87.6019 216.64 85.0909 216.64 81.4639C216.64 77.8369 214.873 75.5739 211.773 75.5739C208.735 75.5739 206.937 77.9609 206.937 81.5879C206.937 85.2149 208.766 87.6019 211.773 87.6019ZM234.983 76.0699V73.5899H237.649V89.0589C237.649 94.2049 234.673 96.2819 230.147 96.2819C226.427 96.2819 223.823 94.8559 223.389 91.6009H226.179C226.613 93.3989 227.977 94.0189 230.24 94.0189C233.526 94.0189 234.89 92.6859 234.89 89.3379V87.2609C233.898 88.8109 232.1 89.9269 229.868 89.9269C225.528 89.9269 222.893 86.2999 222.893 81.3399C222.893 76.5039 225.745 73.2489 229.806 73.2489C232.131 73.2489 234.022 74.3339 234.983 76.0699ZM230.147 87.4779C232.813 87.4779 234.797 85.1839 234.797 81.4019C234.797 77.6199 232.875 75.6979 230.209 75.6979C227.45 75.6979 225.745 77.6819 225.745 81.3399C225.745 85.0599 227.388 87.4779 230.147 87.4779ZM269.702 67.5139L260.371 76.4109L270.322 89.5859H266.726L261.177 82.0839L258.356 78.2399L254.636 81.8669V89.5859H251.753V67.5139H254.636V78.3329L265.858 67.5139H269.702ZM279.857 89.9889C275.269 89.9889 272.169 86.6099 272.169 81.5879C272.169 76.4419 275.362 73.1869 279.95 73.1869C284.414 73.1869 287.576 76.3799 287.576 81.4639C287.576 86.4859 284.352 89.9889 279.857 89.9889ZM279.857 87.6019C282.957 87.6019 284.724 85.0909 284.724 81.4639C284.724 77.8369 282.957 75.5739 279.857 75.5739C276.819 75.5739 275.021 77.9609 275.021 81.5879C275.021 85.2149 276.85 87.6019 279.857 87.6019ZM308.894 73.1869C312.025 73.1869 313.792 74.8919 313.792 78.6119V89.5859H310.94V78.6429C310.94 76.7829 309.948 75.6669 308.181 75.6669C306.321 75.6669 304.275 76.7829 304.275 80.9059V89.5859H301.423V78.6429C301.423 76.7829 300.431 75.6669 298.664 75.6669C296.804 75.6669 294.758 76.9379 294.758 81.0609V89.5859H291.906V73.5899H294.572V75.8529C295.626 74.1479 297.176 73.1869 299.377 73.1869C301.547 73.1869 303.097 74.1479 303.81 75.9769C304.864 74.1169 306.569 73.1869 308.894 73.1869ZM336.057 73.1869C339.188 73.1869 340.955 74.8919 340.955 78.6119V89.5859H338.103V78.6429C338.103 76.7829 337.111 75.6669 335.344 75.6669C333.484 75.6669 331.438 76.7829 331.438 80.9059V89.5859H328.586V78.6429C328.586 76.7829 327.594 75.6669 325.827 75.6669C323.967 75.6669 321.921 76.9379 321.921 81.0609V89.5859H319.069V73.5899H321.735V75.8529C322.789 74.1479 324.339 73.1869 326.54 73.1869C328.71 73.1869 330.26 74.1479 330.973 75.9769C332.027 74.1169 333.732 73.1869 336.057 73.1869ZM356.833 82.4869V73.5899H359.685V89.5859H357.019V87.3229C355.934 89.0279 354.012 89.9889 351.656 89.9889C348.308 89.9889 346.231 88.0669 346.231 84.6879V73.5899H349.083V84.1299C349.083 86.3309 350.106 87.5089 352.276 87.5089C354.477 87.5089 356.833 86.2999 356.833 82.4869ZM372.977 73.1869C376.325 73.1869 378.402 75.1089 378.402 78.4879V89.5859H375.55V79.0459C375.55 76.8449 374.527 75.6669 372.357 75.6669C370.156 75.6669 367.8 76.8759 367.8 80.6889V89.5859H364.948V73.5899H367.614V75.8529C368.699 74.1479 370.621 73.1869 372.977 73.1869ZM397.583 81.2159V82.2699H385.586C385.679 85.8659 387.539 87.6329 390.422 87.6329C392.654 87.6329 394.018 86.5789 394.762 84.7189L397.366 85.0289C396.343 88.1599 393.739 89.9579 390.329 89.9579C385.555 89.9579 382.734 86.4549 382.734 81.5259C382.734 76.6279 385.493 73.2179 390.267 73.2179C394.762 73.2179 397.583 76.2249 397.583 81.2159ZM390.298 75.5429C387.756 75.5429 385.896 77.0929 385.617 80.2239H394.917C394.545 77.1859 392.902 75.5429 390.298 75.5429ZM411.412 90.1129C405.212 90.1129 401.43 85.2459 401.43 78.5499C401.43 71.7919 405.305 67.1109 411.381 67.1109C416 67.1109 419.782 69.8389 420.464 74.1789H417.519C416.837 71.2649 414.543 69.6839 411.505 69.6839C407.041 69.6839 404.375 73.0319 404.375 78.5499C404.375 84.0679 407.01 87.5399 411.505 87.5399C414.977 87.5399 417.364 85.5249 417.891 81.5569H420.743C419.999 86.8579 416.589 90.1129 411.412 90.1129ZM427.979 79.4799V87.0749H440.999V89.5859H425.096V67.5139H440.72V70.0249H427.979V76.9689H439.728V79.4799H427.979ZM462.392 82.5489L463.198 89.5859H460.284L459.633 83.6959C459.354 81.0919 458.238 80.0689 455.665 80.0689H448.845V89.5859H445.962V67.5139H456.192C460.408 67.5139 462.95 69.8079 462.95 73.3419C462.95 76.1939 461.338 78.2089 459.013 78.8599C460.935 79.2319 462.175 80.5029 462.392 82.5489ZM448.845 77.5579H455.2C458.207 77.5579 460.005 76.1319 460.005 73.6209C460.005 71.2959 458.486 70.0249 455.696 70.0249H448.845V77.5579ZM465.822 67.5139H483.461V70.0249H476.083V89.5859H473.2V70.0249H465.822V67.5139Z" fill="#DCDDDE"/>
</svg>
